<svg width="237" height="316" viewBox="0 0 237 316" fill="none" xmlns="http://www.w3.org/2000/svg">
<rect x="85" y="132" width="68.2139" height="128.131" rx="13.7769" fill="url(#paint0_linear_202_316)" stroke="black" stroke-width="4" stroke-linecap="round"/>
<path d="M86.896 214.634V173.678H155.5C150.333 194.68 119.523 215.768 86.896 214.634Z" fill="#BC764A" fill-opacity="0.33"/>
<path d="M78 126.178C78 137.867 67.4499 147.678 54 147.678C40.5501 147.678 30 137.867 30 126.178C30 114.489 40.5501 104.678 54 104.678C67.4499 104.678 78 114.489 78 126.178Z" fill="url(#paint1_linear_202_316)" stroke="black" stroke-width="4"/>
<path d="M161 126.178C161 137.867 171.55 147.678 185 147.678C198.45 147.678 209 137.867 209 126.178C209 114.489 198.45 104.678 185 104.678C171.55 104.678 161 114.489 161 126.178Z" fill="url(#paint2_linear_202_316)" stroke="black" stroke-width="4"/>
<path d="M186 119.261C186 141.713 180.042 158.834 168.986 170.337C157.941 181.828 141.532 188 120.03 188C98.5264 188 81.8421 181.827 70.5286 170.321C59.2107 158.81 53 141.69 53 119.261C53 96.8353 59.2068 80.7526 70.4667 70.2511C81.7517 59.726 98.4392 54.5 120.03 54.5C141.621 54.5 158.032 59.7257 169.047 70.2355C180.045 80.7288 186 96.8117 186 119.261Z" fill="url(#paint3_linear_202_316)" stroke="black" stroke-width="4" stroke-linecap="round"/>
<path d="M120 135C118.029 141.812 117 145.371 117 152.458C119.64 153.72 122.163 154.036 126.5 154" stroke="black" stroke-width="4" stroke-linecap="round" stroke-linejoin="round"/>
<path d="M84.7677 148.225C86.8292 148.225 88.6574 147.11 89.9532 145.382C91.2488 143.655 92.0354 141.291 92.0354 138.702C92.0354 136.112 91.2488 133.748 89.9532 132.021C88.6574 130.293 86.8292 129.178 84.7677 129.178C82.7062 129.178 80.878 130.293 79.5822 132.021C78.2866 133.748 77.5 136.112 77.5 138.702C77.5 141.291 78.2866 143.655 79.5822 145.382C80.878 147.11 82.7062 148.225 84.7677 148.225Z" fill="black" stroke="black" stroke-linecap="round"/>
<circle cx="87.6162" cy="136.487" r="2.5" fill="white" stroke="black"/>
<path d="M156.768 148.225C158.829 148.225 160.657 147.11 161.953 145.382C163.249 143.655 164.035 141.291 164.035 138.702C164.035 136.112 163.249 133.748 161.953 132.021C160.657 130.293 158.829 129.178 156.768 129.178C154.706 129.178 152.878 130.293 151.582 132.021C150.287 133.748 149.5 136.112 149.5 138.702C149.5 141.291 150.287 143.655 151.582 145.382C152.878 147.11 154.706 148.225 156.768 148.225Z" fill="black" stroke="black" stroke-linecap="round"/>
<circle cx="159.616" cy="136.487" r="2" fill="white"/>
<path d="M113 165.678C116 169.345 123.8 174.478 131 165.678" stroke="black" stroke-width="4" stroke-linecap="round" stroke-linejoin="round"/>
<path d="M37.4833 81C33.9883 111.005 50.4895 131.5 53.6109 134C53.6109 134 56.9712 107.457 70.0373 86.5C110.052 100.347 126.526 100.798 166.505 86.5C173.268 97.5 182.112 113.5 186.021 134C192.517 131.5 202.816 85.4455 199.28 64C195.745 42.5545 178.618 44.1151 178.618 44.1151C178.618 44.1151 190.956 33.4708 186.021 22.8266C181.085 12.1823 157.642 22.8266 157.642 22.8266C157.642 22.8266 168.747 7.45154 150.238 2.72076C131.73 -2.01003 109.521 18.0958 109.521 18.0958C109.521 18.0958 118.158 2.72076 102.118 2.72076C86.0774 2.72076 70.0373 33.4708 70.0373 33.4708C70.0373 33.4708 66.2168 21.4038 58.8134 28.5C51.4101 35.5962 55.2309 60.6729 55.2309 60.6729C55.2309 60.6729 40.9782 50.9952 37.4833 81Z" fill="#362209" stroke="black" stroke-width="4"/>
<path d="M85.6365 203.566C101.781 231.54 140.874 229.35 153.064 203.821C153.396 203.127 154.144 202.922 154.623 203.139C181.582 215.357 199.284 228.353 211.373 245.321C223.476 262.308 230.102 283.482 234.512 312.356C234.604 312.958 234.132 313.5 233.538 313.5H3.47117C2.87815 313.5 2.40543 312.956 2.5001 312.354C7.26355 282.036 15.0978 260.611 27.931 243.851C40.765 227.091 58.7469 214.803 84.1803 203.032C84.6375 202.82 85.3031 202.988 85.6365 203.566Z" fill="white" stroke="black" stroke-width="4" stroke-linecap="round" stroke-linejoin="round"/>
<path d="M38.6197 231.703H200.89L211.5 247.703H26L38.6197 231.703Z" fill="#00471C" fill-opacity="0.74"/>
<path d="M18.6477 258.703H218.085L224 274.703H14L18.6477 258.703Z" fill="#00471C" fill-opacity="0.74"/>
<path d="M6.96537 286.703H228.035L232 302.703H3L6.96537 286.703Z" fill="#00471C" fill-opacity="0.74"/>
<defs>
<linearGradient id="paint0_linear_202_316" x1="119.107" y1="130" x2="119.107" y2="262.131" gradientUnits="userSpaceOnUse">
<stop stop-color="#F7B186"/>
<stop offset="1" stop-color="#FFC299"/>
</linearGradient>
<linearGradient id="paint1_linear_202_316" x1="54" y1="102.678" x2="54" y2="149.678" gradientUnits="userSpaceOnUse">
<stop stop-color="#F7B186"/>
<stop offset="1" stop-color="#FFC299"/>
</linearGradient>
<linearGradient id="paint2_linear_202_316" x1="185" y1="102.678" x2="185" y2="149.678" gradientUnits="userSpaceOnUse">
<stop stop-color="#F7B186"/>
<stop offset="1" stop-color="#FFC299"/>
</linearGradient>
<linearGradient id="paint3_linear_202_316" x1="119.5" y1="52.5" x2="119.5" y2="190" gradientUnits="userSpaceOnUse">
<stop stop-color="#F7B186"/>
<stop offset="1" stop-color="#FFC299"/>
</linearGradient>
</defs>
</svg>
