<svg width="32" height="32" viewBox="0 0 32 32" fill="none" xmlns="http://www.w3.org/2000/svg">
<path d="M28.276 15.2746C28.276 11.9936 26.9973 8.90852 24.6755 6.58708C22.718 4.63042 20.2498 3.4224 17.5257 3.08415C17.4859 3.05402 17.445 3.02541 17.4031 2.99839C16.2007 2.22458 15.1467 2.74386 14.5816 3.02358L14.4583 3.08347C13.6161 3.18828 12.7861 3.38088 11.9827 3.65787C11.9432 3.61499 11.9023 3.57212 11.8608 3.53061C11.1711 2.8405 10.2546 2.46143 9.27894 2.46143C7.2656 2.46143 5.62743 4.09889 5.62743 6.11135C5.62743 6.76947 5.79696 7.3956 6.12242 7.94959C4.55232 10.0594 3.69238 12.6408 3.69238 15.2746C3.69238 18.5564 4.97106 21.6421 7.29284 23.9629C8.30393 24.9735 9.46074 25.7889 10.7353 26.3905C10.736 26.6151 10.7578 26.8233 10.8 27.0098C10.7489 27.0908 10.7047 27.1834 10.6727 27.2902C10.3704 27.8442 10.6536 28.456 11.5497 29.1373C12.095 29.5545 12.5192 29.626 12.8699 29.626C12.9645 29.626 13.0544 29.6205 13.1395 29.6157L13.2668 29.6089C13.8823 29.5838 14.3848 29.1645 14.7647 28.7222L15.3585 28.633C15.6008 28.5969 15.9011 28.5377 16.2933 28.3723C16.8897 28.1212 17.1328 27.7809 17.2254 27.4992C18.6566 27.3583 20.0265 26.9737 21.3134 26.3531C21.3494 26.5511 21.3869 26.8274 21.4175 27.184C21.4591 27.6707 21.5435 28.0041 21.76 28.7004C21.9439 29.2925 22.2523 29.5647 22.6833 29.5123C22.8807 29.4878 23.3444 29.3428 23.3887 28.486C23.4002 28.2539 23.4309 27.6366 23.4043 27.167C23.3669 26.528 23.3955 26.0904 23.4275 25.9842C23.4915 25.7807 23.548 25.4234 23.3458 25.1158C23.8163 24.7632 24.2615 24.3767 24.6755 23.9629C26.9973 21.6414 28.276 18.5564 28.276 15.2746" fill="#FEFEFE"/>
<mask id="mask0_121_2240" style="mask-type:alpha" maskUnits="userSpaceOnUse" x="4" y="3" width="24" height="26">
<path d="M4.43068 3.2002H27.4593V28.8001H4.43066L4.43068 3.2002Z" fill="white"/>
</mask>
<g mask="url(#mask0_121_2240)">
<path d="M27.4593 15.2374C27.4593 12.1619 26.2613 9.2706 24.0865 7.09582C22.2084 5.21718 19.7956 4.06862 17.1913 3.79047C17.131 3.73041 17.0633 3.67502 16.9865 3.6258C16.0646 3.03281 15.2952 3.47318 14.7617 3.73238C14.7233 3.75109 14.6785 3.77324 14.6281 3.79909C13.624 3.9138 12.6591 4.15872 11.7498 4.51564C11.6411 4.35293 11.5167 4.2013 11.3784 4.06297C10.822 3.50665 10.0824 3.2002 9.2954 3.2002C7.67103 3.2002 6.34967 4.5218 6.34967 6.14617C6.34967 6.82678 6.57934 7.4722 7.00149 7.99404C5.39484 9.97385 4.43066 12.4947 4.43066 15.2374C4.43066 18.3131 5.62844 21.2046 7.80297 23.3794C8.86512 24.4413 10.0991 25.2699 11.4409 25.8402C11.366 26.4487 11.4648 26.8615 11.576 27.0308C11.4067 27.1734 11.3355 27.2622 11.3087 27.4222C11.0419 27.7873 11.6915 28.25 11.9583 28.4546C12.5067 28.875 12.795 28.8019 13.222 28.7842C13.7493 28.762 14.2453 28.143 14.5306 27.7427C15.1 27.6627 15.2068 27.7516 15.2245 27.8227C15.4025 27.7961 15.6516 27.7516 15.9898 27.6091C16.7588 27.2854 16.5414 26.8886 16.4617 26.8172C16.4408 26.799 16.424 26.7731 16.4078 26.7421C18.2332 26.6702 19.9829 26.1752 21.5443 25.3038C21.5992 25.3654 21.6563 25.4358 21.7121 25.518C21.8812 25.7673 21.9701 26.5769 22.0058 26.9952C22.0415 27.4134 22.1126 27.6987 22.3172 28.3566C22.5217 29.0153 22.602 28.5348 22.6111 28.3566C22.62 28.1789 22.6554 27.5382 22.6288 27.0752C22.602 26.6124 22.5931 25.9451 22.6822 25.6603C22.7713 25.3757 22.6111 25.3043 22.5665 25.2512C22.5217 25.1975 22.5665 25.1798 22.4506 24.815C22.4442 24.7948 22.439 24.7734 22.4348 24.7517C23.0204 24.35 23.5738 23.8924 24.0865 23.3794C26.2613 21.2046 27.4593 18.3131 27.4593 15.2374" fill="white"/>
</g>
<mask id="mask1_121_2240" style="mask-type:alpha" maskUnits="userSpaceOnUse" x="4" y="3" width="24" height="26">
<path d="M4.43068 3.2002H27.4593V28.8001H4.43066L4.43068 3.2002Z" fill="white"/>
</mask>
<g mask="url(#mask1_121_2240)">
<path d="M27.4593 15.2374C27.4593 12.1619 26.2613 9.2706 24.0865 7.09582C22.2084 5.21718 19.7956 4.06862 17.1913 3.79047C17.131 3.73041 17.0633 3.67502 16.9865 3.6258C16.0646 3.03281 15.2952 3.47318 14.7617 3.73238C14.7233 3.75109 14.6785 3.77324 14.6281 3.79909C13.624 3.9138 12.6591 4.15872 11.7498 4.51564C11.6411 4.35293 11.5167 4.2013 11.3784 4.06297C10.822 3.50665 10.0824 3.2002 9.2954 3.2002C7.67103 3.2002 6.34967 4.5218 6.34967 6.14617C6.34967 6.82678 6.57934 7.4722 7.00149 7.99404C5.39484 9.97385 4.43066 12.4947 4.43066 15.2374C4.43066 18.3131 5.62844 21.2046 7.80297 23.3794C8.86512 24.4413 10.0991 25.2699 11.4409 25.8402C11.366 26.4487 11.4648 26.8615 11.576 27.0308C11.4067 27.1734 11.3355 27.2622 11.3087 27.4222C11.0419 27.7873 11.6915 28.25 11.9583 28.4546C12.5067 28.875 12.795 28.8019 13.222 28.7842C13.7493 28.762 14.2453 28.143 14.5306 27.7427C15.1 27.6627 15.2068 27.7516 15.2245 27.8227C15.4025 27.7961 15.6516 27.7516 15.9898 27.6091C16.7588 27.2854 16.5414 26.8886 16.4617 26.8172C16.4408 26.799 16.424 26.7731 16.4078 26.7421C18.2332 26.6702 19.9829 26.1752 21.5443 25.3038C21.5992 25.3654 21.6563 25.4358 21.7121 25.518C21.8812 25.7673 21.9701 26.5769 22.0058 26.9952C22.0415 27.4134 22.1126 27.6987 22.3172 28.3566C22.5217 29.0153 22.602 28.5348 22.6111 28.3566C22.62 28.1789 22.6554 27.5382 22.6288 27.0752C22.602 26.6124 22.5931 25.9451 22.6822 25.6603C22.7713 25.3757 22.6111 25.3043 22.5665 25.2512C22.5217 25.1975 22.5665 25.1798 22.4506 24.815C22.4442 24.7948 22.439 24.7734 22.4348 24.7517C23.0204 24.35 23.5738 23.8924 24.0865 23.3794C26.2613 21.2046 27.4593 18.3131 27.4593 15.2374" fill="#061922"/>
</g>
<path d="M13.2226 25.9805C13.6501 25.9625 14.2461 25.8293 14.5176 25.7134C14.5533 25.7225 14.6111 25.7579 14.7002 25.7934C14.7354 25.5088 14.5533 24.9171 14.4509 24.6453C14.3829 24.4654 14.3172 24.3431 14.2372 24.1562C13.997 24.1114 13.6989 23.9827 13.4852 23.8936C13.4852 24.0627 13.5165 24.5033 13.5522 24.7967C13.4633 24.8058 13.3385 24.8147 13.1869 24.8147C13.2048 25.1349 13.2408 25.7134 13.2226 25.9805V25.9805ZM21.2768 25.0372C21.1965 24.957 21.3745 24.7076 21.4547 24.2451C21.5345 23.7823 21.5433 23.0079 21.2054 22.5717C21.0407 22.3595 20.9609 22.2259 20.9331 22.1304C19.8791 22.8971 18.6715 23.4062 17.3875 23.6245C17.3723 23.6516 17.357 23.6752 17.3432 23.6932C17.1561 23.9337 16.7913 24.2808 16.524 24.4231C16.2572 24.5653 15.9458 24.6724 15.7767 24.7258C15.7413 25.0104 15.695 25.646 15.7681 25.8645C15.7949 25.9448 16.1238 26.1407 16.2395 26.3544C16.2515 26.3763 16.2624 26.3979 16.2729 26.4196C18.0888 26.3672 19.7979 25.8803 21.2989 25.0584C21.2913 25.0512 21.2832 25.0434 21.2768 25.0372L21.2768 25.0372ZM23.8563 7.32627C22.102 5.57194 19.8672 4.47262 17.4489 4.1499C17.6427 4.53317 17.6727 4.97354 17.6902 5.25415C18.0372 5.10277 18.3041 5.02252 18.4466 4.79138C18.5891 4.55975 18.7848 4.60431 18.9094 4.77342C19.0342 4.94227 19.0342 5.15618 18.7048 5.36074C18.3755 5.56554 18.1355 5.6635 18.0641 5.69919C17.9927 5.73439 18.0552 5.79692 18.1355 5.93034C18.2152 6.06375 18.419 6.39359 18.4557 7.08726C18.456 7.0939 18.4565 7.10079 18.4565 7.10744C19.7648 7.51015 20.9638 8.22843 21.959 9.22363C23.5659 10.8303 24.4508 12.9669 24.4508 15.2391C24.4508 16.544 24.1581 17.8041 23.6055 18.945C23.6791 18.9829 23.779 19.2413 23.813 19.5818C23.8307 19.7597 23.8216 19.9557 23.7687 20.08C23.7153 20.2048 23.2951 20.8349 23.0832 21.0235C23.0032 21.0949 22.8158 21.086 22.7361 20.9703C22.6561 20.8544 22.6472 20.9167 22.5847 20.9787C22.5224 21.0412 22.3088 21.3526 22.2558 21.4329C22.2022 21.5131 22.0242 21.5929 22.1397 21.9133C22.2558 22.2341 22.3888 22.4741 22.3447 22.6521C22.2999 22.8303 22.2822 22.8837 22.5224 23.0885C22.7632 23.2928 22.7541 23.5419 22.6472 23.7021C22.5803 23.8026 22.4752 24.0701 22.4343 24.3461C25.2766 22.3153 27.1334 18.9888 27.1334 15.2372C27.1334 12.2489 25.9693 9.43926 23.8563 7.32627V7.32627ZM11.0067 23.4973C10.9754 23.1958 10.9296 22.651 11.1403 22.2623C10.711 21.967 10.3049 21.631 9.92828 21.2543C8.32163 19.6472 7.43671 17.5113 7.43671 15.2391C7.43671 12.8059 8.46366 10.6082 10.1065 9.05644C10.122 9.02346 10.1417 8.99195 10.1658 8.96142C9.88766 9.04708 9.59548 9.09164 9.29591 9.09164C8.51216 9.09164 7.77517 8.78715 7.2196 8.23502C5.62477 10.2143 4.75781 12.6591 4.75781 15.2371C4.75781 18.2254 5.92138 21.035 8.03461 23.148C9.04754 24.1609 10.221 24.9553 11.497 25.5081C11.5462 25.2698 11.6201 25.0092 11.7277 24.7258C11.8256 24.4674 11.6742 23.8714 11.4249 23.5598C11.2915 23.5239 11.1226 23.5064 11.0067 23.4973L11.0067 23.4973ZM13.9733 4.22217C13.2703 4.34632 12.581 4.53815 11.9149 4.79497C12.1281 5.20777 12.2418 5.66783 12.2418 6.14587C12.2418 6.77947 12.0429 7.38254 11.6749 7.88371C12.2906 7.52507 12.9549 7.24101 13.6555 7.04507C13.701 7.00051 13.7466 6.95768 13.7924 6.9183C13.5341 6.49073 13.1871 5.80568 13.4898 4.8799C13.575 4.61923 13.7626 4.3999 13.9733 4.22217Z" fill="#008348"/>
<path d="M18.4459 7.59434C18.695 7.7189 18.9737 7.98991 18.8639 8.49305C18.8196 8.69785 18.6485 8.89477 18.633 8.97403C18.6062 9.1072 18.3258 9.33416 18.2367 9.51212C18.1483 9.68862 18.1345 9.83902 18.1604 9.91508C18.1606 9.91607 18.1611 9.91655 18.1613 9.91705C18.3034 10.0507 18.6239 10.2287 18.8016 10.2907C18.9409 10.3394 18.9311 10.3771 18.8727 10.4689C18.9709 10.4778 19.0212 10.5381 19.1135 10.6469C19.211 10.7628 19.4692 10.6914 19.6294 10.6112C19.7897 10.5312 19.9942 10.5044 20.1547 10.7003C20.3147 10.896 20.5552 11.261 20.6706 11.5993C20.7866 11.9372 20.9111 12.2132 20.9468 12.2663C20.9823 12.32 20.822 13.299 20.7772 13.6906C20.7329 14.082 20.6972 14.2511 20.6884 14.3134C20.6795 14.3756 20.9377 14.0911 20.9468 14.429C20.9535 14.6988 21.0795 15.5638 21.2252 16.2046C21.2622 16.3675 21.3003 16.5157 21.3382 16.6361C21.4453 16.654 21.5337 16.8677 21.5962 17.1968C21.6585 17.5262 21.7919 17.731 21.801 17.891C21.8098 18.051 21.8544 18.0778 21.9076 18.1044C21.961 18.1314 21.9433 18.2114 21.7833 18.398C21.8187 18.4249 21.8721 18.4785 21.9076 18.5135C21.9524 18.4692 22.0767 18.3274 22.0767 18.3274C22.0767 18.3274 22.5663 18.5228 22.6731 18.5583C22.7799 18.594 22.907 18.3303 23.2247 18.4692C23.3119 18.5073 23.4081 18.6277 23.4766 18.7466C23.9748 17.6802 24.2542 16.4918 24.2542 15.2389C24.2542 13.0191 23.3894 10.9319 21.8197 9.36222C20.8617 8.40443 19.7114 7.70979 18.4557 7.31299C18.4521 7.43532 18.4459 7.55126 18.4459 7.59434V7.59434ZM21.0175 21.5929C20.8932 21.5306 20.812 21.621 20.7507 21.1304C20.733 20.9881 20.6175 20.8008 20.5284 20.7122C20.4393 20.6231 20.4285 20.4564 20.4748 20.3114C20.5459 20.0889 20.5641 19.8846 20.5553 19.7066C20.5459 19.5284 20.5816 19.3061 20.8307 19.1988C20.7419 19.1013 20.6973 18.9765 20.6707 18.8788C20.3059 18.7585 20.2331 18.7481 20.159 18.5716C20.0347 18.2753 19.9579 17.8425 19.9209 17.6067C19.9027 17.4903 19.8904 17.3827 19.8877 17.2857C19.7708 17.0647 19.5113 16.5736 19.3105 16.2046C19.2492 16.0895 19.1865 15.9752 19.1224 15.8617C18.9442 15.5503 19.1224 15.141 19.211 14.9007C19.3001 14.6605 19.3715 14.4468 19.2913 14.2066C19.211 13.9663 19.211 13.9127 19.1935 13.8149C19.1758 13.717 19.0953 13.5924 18.989 13.9309C18.8819 14.2689 18.6774 14.7673 18.5614 15.2835C18.4959 15.5767 18.4502 15.8957 18.4654 16.2046C18.477 16.4399 18.524 16.6689 18.6237 16.8764C18.8551 17.3569 19.131 17.8019 19.0953 18.069C19.0599 18.3358 19.0015 18.3452 18.9976 18.3892C18.9531 18.9054 18.7305 19.8935 18.6148 20.178C18.4991 20.4626 18.0455 21.4949 17.9475 21.9311C17.8727 22.2652 17.6669 22.9805 17.4909 23.4046C18.8226 23.1528 20.0435 22.5827 21.0702 21.7758C21.1003 21.701 21.0948 21.6316 21.0175 21.5929V21.5929ZM11.1271 9.91503C11.2254 10.043 11.3541 10.1604 11.522 10.2466C11.9582 10.4689 12.0473 10.6291 12.0473 11.0116C12.0473 11.3942 12.1184 12.1777 12.2432 12.3111C12.323 12.2311 12.4123 12.1152 12.4298 12.0797C12.5544 12.3111 12.8054 12.7394 13.204 13.0052C13.2308 13.0232 13.2187 13.1212 13.2842 13.1387C13.4176 13.1744 14.2809 13.3078 14.3077 13.486C14.4859 13.3078 14.7705 12.863 14.8239 12.7113C14.8771 12.5604 15.1887 12.0797 15.4201 11.8129C15.4201 11.7058 15.4201 11.6435 15.4292 11.6169C15.3667 11.6704 15.2689 11.8038 15.1264 11.866C14.9839 11.9283 14.4859 12.142 14.1297 12.32C14.0052 12.3822 13.7827 12.4536 13.6936 11.8038C13.6044 11.1542 13.6936 10.816 13.7558 10.6648C13.8181 10.5134 13.9338 10.3798 14.1566 10.4423C14.3788 10.5046 14.7345 10.638 14.8328 10.638C14.8505 10.5668 14.913 10.4332 14.6728 10.4066C14.5017 10.3874 14.0556 10.2604 13.8031 9.91503C13.7009 9.77669 13.63 9.60143 13.6224 9.38309C13.1153 9.46334 11.9493 9.61472 11.6913 9.67675C11.4334 9.73928 11.2145 9.79195 11.1308 9.20512C11.0952 8.95602 11.0329 8.60894 11.2108 8.73349C11.3531 8.62666 11.5503 8.50112 11.8959 8.55577C11.9592 8.56562 12.0382 8.61854 12.063 8.66802C12.082 8.75442 12.0451 8.89546 12.0027 9.02715C11.9262 9.26568 11.776 9.43651 12.2609 9.32524C12.7685 9.20882 13.4132 9.11183 13.5823 9.07614C13.6044 8.90284 13.747 8.63552 13.9161 8.43983C14.0857 8.24316 14.112 8.08389 14.1209 8.02162C14.1297 7.95934 14.0711 7.94555 13.9875 8.02162C13.8895 8.11047 13.5956 8.28869 13.3196 8.21731C13.2131 8.18998 13.0796 7.98592 13.0085 7.87047C13.0668 7.74814 13.2143 7.53694 13.396 7.32402C12.4483 7.62777 11.5614 8.10211 10.7729 8.73103C10.7678 8.82974 10.7808 9.05916 10.8458 9.31196C10.8894 9.48156 10.9704 9.71122 11.1272 9.91503H11.1271ZM11.7448 22.0734C12.1094 21.9312 12.3971 21.9378 12.6792 22.3139C12.7592 22.4205 12.8215 22.7324 13.5068 22.4562C13.142 22.0203 12.9232 21.5036 12.7238 20.8097C12.4085 19.7145 11.6958 18.469 11.9582 17.8999C11.8071 17.7571 11.6291 17.2057 11.4421 17.268C11.3165 17.3099 11.1398 17.3123 11.2818 16.8941C11.3461 16.706 11.4517 16.4784 11.6513 16.2046C11.895 15.8711 12.28 15.4696 12.9015 14.9896C12.9552 14.9451 12.964 14.9099 12.9283 14.8739C12.8661 14.8119 12.8038 14.7408 12.7415 14.7051C12.6792 14.6694 12.6167 14.6871 12.5633 14.7408C12.5099 14.7942 12.421 14.8564 12.3676 14.8919C12.3142 14.9273 11.8871 14.5091 11.6646 14.2066C11.4421 13.9041 11.2109 13.8064 11.1398 13.7707C11.2286 13.6727 11.4295 13.4603 11.3532 13.4859C11.2198 13.5302 10.9859 13.56 10.7479 13.3076C10.4542 12.9965 10.5702 12.836 10.5077 12.7917C10.4454 12.7472 10.1249 12.8183 9.88489 12.4446C9.64439 12.0707 9.54815 11.908 9.74212 11.6434C9.84033 11.51 9.87578 11.4477 9.84919 11.2786C9.82237 11.1095 9.84919 11.0029 10.0717 10.7892C10.2942 10.5758 10.4277 10.3799 10.5254 10.3976C10.6032 10.4119 10.3782 10.1291 10.2421 9.91491C10.2064 9.8578 10.1771 9.80635 10.1603 9.76574C10.1254 9.67959 10.0695 9.5314 10.0567 9.37189C8.49289 10.9406 7.63184 13.0236 7.63184 15.239C7.63184 17.4585 8.49633 19.5457 10.0661 21.1154C10.4302 21.4796 10.827 21.8095 11.2515 22.101C11.4339 21.9031 11.6508 21.9796 11.7448 22.0734" fill="white"/>
<path d="M7.01612 4.52223C7.74572 4.70906 8.29267 5.29884 8.53243 5.62795C8.59396 5.71189 8.65723 5.69933 8.68381 5.63706C8.74043 5.50487 8.84406 5.07632 8.84406 4.74697C8.84406 3.99964 8.94646 3.70377 9.13353 3.35693C8.26043 3.40469 7.4944 3.85368 7.01612 4.52223V4.52223ZM6.5756 6.812C7.94594 6.93655 8.37227 6.17101 8.46139 6.05507C8.55 5.93962 8.44342 5.86825 8.39886 5.80597C8.16206 5.47415 7.6316 4.88732 6.90176 4.7005C6.646 5.1224 6.49609 5.6157 6.49609 6.14541C6.49609 6.37532 6.52317 6.59834 6.5756 6.812" fill="#A73832"/>
<path d="M12.0133 6.75854C11.4349 6.51806 10.7486 6.74033 10.2592 7.16766C9.76963 7.59473 9.52077 7.92286 9.35166 8.9375C9.33074 8.93799 9.30982 8.93799 9.28914 8.93799C8.56397 8.93799 7.90575 8.66206 7.40901 8.20864C8.24594 7.99498 8.95117 7.6127 9.7428 6.86513C10.5352 6.11756 10.9266 5.24543 11.0334 4.83608C11.1402 4.42673 10.9886 4.66698 10.9088 4.85356C10.7848 5.14279 10.3747 5.92162 9.56508 6.67806C8.75499 7.43473 8.13246 7.8079 7.28742 8.0927C7.00508 7.80297 6.78772 7.45147 6.65234 7.06107C6.93714 7.07879 7.83437 6.97541 8.28335 6.60691C8.87388 6.12273 8.94206 5.54796 9.02206 4.72901C9.10206 3.91054 9.22243 3.66685 9.41812 3.35547C10.9005 3.42291 12.0818 4.64605 12.0818 6.14538C12.0818 6.35608 12.0576 6.56113 12.0133 6.75854" fill="#A73832"/>
<path d="M11.9357 7.03818C11.8021 6.85135 11.3263 6.76151 10.5703 7.23388C10.4992 7.27868 10.4499 7.3097 10.5349 7.39412C10.6949 7.55462 10.9356 7.85763 11.1047 8.26699C11.4826 7.94305 11.773 7.52015 11.9357 7.03819V7.03818ZM10.8815 8.43962C10.7215 8.04799 10.5881 7.76343 10.437 7.56774C10.3552 7.46214 10.339 7.4166 10.1876 7.55002C9.76695 7.92121 9.60473 8.48392 9.51562 8.92872C10.0207 8.88811 10.4882 8.71334 10.8815 8.43962Z" fill="#A73832"/>
<path d="M10.1168 11.5636C10.0011 11.5279 9.91204 11.661 9.85862 11.7681C9.80521 11.8752 9.74269 11.9906 9.91204 12.2309C10.0811 12.4714 10.1863 12.6144 10.4816 12.5957C10.6242 12.5868 10.7485 12.48 10.793 12.418C10.8376 12.3554 10.8464 12.4623 10.7753 12.5691C10.7042 12.6757 10.6508 12.925 10.7842 13.0941C10.9178 13.2632 11.1935 13.4055 11.5583 13.1921C11.9231 12.9787 12.0747 12.7205 12.1368 12.6045C12.1991 12.4891 12.1991 12.4357 12.1368 12.3645C12.0747 12.2932 11.8699 11.9544 11.8254 11.2876C11.7988 10.8869 11.8699 10.6292 11.6206 10.4866C11.3715 10.3441 10.8014 10.0074 10.7307 9.34743C10.7042 9.09832 10.7219 8.7158 10.4728 8.92036C10.2234 9.12516 10.2234 9.26743 10.1968 9.41857C10.17 9.5702 10.2948 9.77451 10.4016 9.91703C10.5082 10.0596 10.6328 10.3709 10.7307 10.4509C10.8287 10.5312 10.891 10.5935 10.9712 10.6023C11.051 10.6112 11.3715 10.6112 11.4515 10.638C11.5317 10.6648 11.5763 10.7628 11.3803 10.7628C11.1847 10.7628 10.8821 10.8157 10.7485 10.8337C10.6153 10.8514 10.4907 10.8603 10.4282 11.1274C10.3659 11.3942 10.2768 11.7058 10.268 11.8038C10.2591 11.9015 10.2057 11.9549 10.2057 12.0084C10.2057 12.0618 10.3125 12.32 10.5528 12.0618C10.793 11.8038 10.891 11.5458 10.9355 11.421C10.9799 11.2965 11.0335 11.3142 10.9887 11.5101C10.9444 11.7058 10.9311 12.1954 11.0244 12.3645C11.1251 12.5462 11.3279 12.7333 11.5851 12.6045C11.6386 12.578 11.7274 12.5334 11.7988 12.5423C11.8699 12.5511 11.7853 12.6757 11.723 12.7293C11.6607 12.7828 11.4562 13.0092 11.0958 12.6848C11.0064 12.6045 10.8831 12.4266 10.8553 12.2043C10.8464 12.1329 10.7485 12.1063 10.7042 12.1686C10.6596 12.2309 10.4194 12.4534 10.2503 12.2932C10.0811 12.1329 10.011 12.0443 10.108 11.7058C10.1255 11.6436 10.1602 11.5768 10.1168 11.5636" fill="#FAB383"/>
<path d="M10.295 11.0654C10.2566 11.1804 10.2236 11.3322 10.2059 11.3859C10.1879 11.4393 10.1081 11.555 10.0368 11.4039C9.96587 11.2525 9.96931 11.1331 10.0813 11.0211C10.117 10.9854 10.1702 10.9143 10.2059 10.9497C10.2416 10.9854 10.3038 11.0388 10.295 11.0654ZM10.6953 10.6561C10.622 10.6928 10.4654 10.6926 10.4105 10.8161C10.3748 10.8964 10.2326 10.8078 10.3037 10.7096C10.3748 10.6116 10.4285 10.6205 10.4728 10.5939C10.5174 10.5673 10.5353 10.487 10.6242 10.5316C10.7131 10.5761 10.7308 10.6384 10.6953 10.6561V10.6561ZM16.5599 6.25098C16.3108 6.27757 16.0794 6.4292 15.848 6.5892C15.6164 6.7492 14.7802 7.45246 14.5843 7.59473C14.7888 7.70157 14.8422 7.91523 14.7711 8.27117C14.7551 8.35018 14.7711 8.378 14.8247 8.32458C14.8779 8.27117 15.127 8.00433 15.1184 7.79068C15.1093 7.57701 15.0116 7.45246 14.9936 7.42563C14.9759 7.39904 15.065 7.29221 15.163 7.51473C15.2607 7.73726 15.2339 8.04864 14.9404 8.39572C14.6468 8.74279 14.4151 8.73369 14.2906 8.79621C14.166 8.85848 14.0417 8.95621 14.1574 9.14328C14.2729 9.33037 14.4954 9.25898 14.5843 9.19671C14.6734 9.13418 14.7979 9.06304 15.0827 9.08988C15.3673 9.11646 15.4623 8.93553 15.2695 8.7428C15.2073 8.68053 15.047 8.538 15.2427 8.538C15.3587 8.538 15.5009 8.79621 15.5809 8.86735C15.6612 8.93849 15.8391 8.96508 16.0794 8.98304C16.3196 9.00077 16.6935 9.08963 16.6935 9.32126C16.6935 9.46353 16.6167 9.50513 16.5153 9.39264C16.4755 9.34784 16.4183 9.41824 16.3731 9.46353C16.2217 9.61517 15.8345 10.0243 15.5588 10.0954C15.2831 10.1665 15.1804 10.0865 14.8156 9.89086C14.4508 9.69517 14.1126 9.49923 14.0149 9.43695C13.9169 9.37468 13.7121 9.23215 13.8101 9.5172C13.9081 9.80175 14.1483 10.0954 14.6288 10.2559C15.1093 10.4157 15.1804 10.4693 15.2873 10.5227C15.3941 10.5761 15.3321 10.6296 15.1895 10.6116C15.0657 10.5963 14.9313 10.487 15.0384 10.7275C15.1447 10.9678 15.3052 11.2255 15.7948 11.1635C16.2839 11.1012 16.2985 10.9976 16.6044 10.487C16.6576 10.3979 16.7115 10.4605 16.6758 10.6918C16.9158 10.5761 17.0492 10.5405 17.1915 10.5048C17.3343 10.4693 17.7043 10.3435 17.9484 9.89086C18.0727 9.65948 18.1399 9.57997 18.1173 9.33923C18.1087 9.24938 18.2419 9.07215 18.3755 8.94735C18.5089 8.82304 18.8735 8.35117 18.6871 8.01295C18.4998 7.67473 18.1884 7.84409 18.0373 8.0932C17.8859 8.34255 17.7168 8.61824 17.7079 9.04533C17.6011 9.00987 17.4921 9.04901 17.4411 9.13418C17.4143 9.17898 17.0227 9.12557 16.889 9.16101C16.7558 9.1967 16.7115 9.11646 16.8535 8.92963C16.9961 8.7428 17.4975 8.06563 17.4677 7.55904C17.4588 7.4079 17.479 7.37984 17.5031 7.26563C17.5344 7.11868 17.5482 7.11646 17.3653 7.01628C17.2464 6.95129 17.2393 6.76593 17.2186 6.62464C17.1962 6.4735 17.1674 6.47277 16.9961 6.50895C16.8693 6.53578 16.6576 6.41098 16.5599 6.25098" fill="#FAB383"/>
<path d="M15.5186 9.0362C15.4699 9.14746 15.3352 9.25404 15.0246 9.2186C14.869 9.20087 14.7169 9.19891 14.691 9.321C14.6733 9.40567 14.6024 9.40075 14.5042 9.39681C14.4015 9.39238 14.2905 9.36555 14.2859 9.40124C14.2814 9.43669 14.7223 9.69908 14.869 9.7658C15.016 9.83275 15.2299 9.99176 15.4029 9.97502C15.6343 9.95287 15.8359 9.83841 16.1773 9.47656C16.3181 9.32764 16.4309 9.24986 16.2974 9.18734C16.2066 9.14524 16.1148 9.13392 15.9949 9.13392C15.8745 9.13392 15.6163 9.1162 15.5186 9.0362V9.0362ZM13.8587 9.04075C13.7386 9.03608 13.7253 8.94722 13.8053 8.8138C13.8853 8.68014 13.9614 8.55583 14.068 8.47559C14.0857 8.53344 14.1214 8.60457 14.1748 8.63558C14.1037 8.7114 14.0096 8.80617 14.0273 8.99325L13.8587 9.04075V9.04075Z" fill="#FAB383"/>
<path d="M16.5677 8.48792C16.4148 8.48792 16.1879 8.43819 16.0254 8.32717C15.861 8.21493 15.8061 8.16077 15.8352 7.99462C15.8529 7.89197 15.862 7.83659 15.8684 7.79869C15.8728 7.77112 15.876 7.7529 15.8797 7.73222C15.8935 7.65395 15.8891 7.60249 15.8657 7.57493C15.8534 7.55992 15.8356 7.55229 15.815 7.55229C15.781 7.55229 15.736 7.57394 15.6781 7.61825C15.5841 7.54785 15.4952 7.46884 15.4292 7.4105C15.378 7.36496 15.3411 7.33222 15.318 7.31696C15.2995 7.30465 15.2771 7.28496 15.2747 7.26084C15.2727 7.24237 15.2825 7.22269 15.3035 7.20151C15.3163 7.18871 15.333 7.18601 15.3556 7.18601L15.366 7.18625H15.3766C15.3926 7.18625 15.4224 7.18625 15.4418 7.16361C15.461 7.1417 15.4657 7.10477 15.4571 7.04397C15.4573 7.04053 15.464 7.03389 15.5041 7.03389C15.5149 7.03389 15.5262 7.03413 15.5371 7.03462C15.5489 7.03512 15.56 7.03561 15.5698 7.03561C15.5929 7.03561 15.6072 7.03314 15.6178 7.02797C15.6377 7.01813 15.6429 6.99869 15.6464 6.98465C15.6515 6.96496 15.6537 6.95684 15.6843 6.95684C15.7015 6.95684 15.7246 6.96053 15.7529 6.96767C15.7578 6.96892 15.7627 6.96959 15.7677 6.96964C15.7968 6.96964 15.8108 6.94674 15.8209 6.93001L15.8263 6.92164C15.8376 6.90416 15.8484 6.89481 15.8733 6.89481C15.8792 6.89481 15.8856 6.8953 15.8928 6.89653C15.9169 6.90047 15.9383 6.90589 15.9572 6.91032C15.9831 6.91672 16.0052 6.92213 16.0249 6.92213C16.0774 6.92213 16.0939 6.88274 16.1015 6.85272C16.1175 6.79265 16.1298 6.77444 16.1542 6.77444C16.1756 6.77444 16.2076 6.78749 16.2492 6.81333C16.2856 6.83597 16.3164 6.8468 16.3435 6.8468C16.3843 6.8468 16.4134 6.8212 16.4225 6.77592C16.4227 6.77493 16.4235 6.77197 16.4348 6.77197C16.4611 6.77197 16.5081 6.7897 16.5566 6.81825L16.5808 6.83179C16.6642 6.8793 16.8377 6.97801 17.0357 7.20914C17.0809 7.26182 17.094 7.30219 17.0905 7.3113C17.0898 7.31105 17.0886 7.31105 17.0876 7.31105C17.0841 7.31105 17.0797 7.31179 17.0753 7.31253C17.045 7.3172 16.9997 7.3241 16.9904 7.40016C16.9849 7.44201 16.9719 7.46662 16.9655 7.47056C16.9655 7.46933 16.9591 7.46441 16.9497 7.44594C16.9377 7.42207 16.9217 7.3977 16.8946 7.3977C16.8899 7.39773 16.8853 7.39839 16.8808 7.39967C16.8791 7.39622 16.8754 7.39007 16.8707 7.37727C16.8665 7.36545 16.8533 7.32976 16.82 7.32976C16.8043 7.32976 16.7912 7.33887 16.7819 7.34527C16.78 7.34636 16.7783 7.34759 16.7767 7.34896C16.7715 7.33567 16.7575 7.30293 16.7257 7.30293C16.7174 7.30293 16.7105 7.3049 16.7051 7.30662C16.7029 7.30737 16.7007 7.30795 16.6984 7.30835C16.6984 7.30761 16.696 7.30441 16.6923 7.29604C16.6861 7.28176 16.6731 7.27364 16.6558 7.27364C16.6435 7.27364 16.63 7.27782 16.6157 7.28225C16.6004 7.28693 16.5876 7.29062 16.5783 7.29062C16.5704 7.29062 16.5685 7.28841 16.5667 7.28521C16.5544 7.26256 16.5362 7.25912 16.5264 7.25912C16.5106 7.25912 16.4961 7.26699 16.482 7.27437C16.471 7.28004 16.4587 7.28693 16.45 7.28693C16.4478 7.28693 16.4429 7.28693 16.436 7.27757C16.4311 7.27142 16.4166 7.25247 16.3952 7.25247C16.374 7.25247 16.3612 7.2697 16.3508 7.28349L16.3467 7.28939C16.3363 7.30293 16.3292 7.3081 16.3213 7.3081C16.3179 7.3081 16.3142 7.30712 16.31 7.30539C16.2982 7.30121 16.2881 7.29924 16.2787 7.29924C16.248 7.29924 16.2342 7.32164 16.2265 7.3337C16.2192 7.34552 16.2179 7.34601 16.2152 7.34601C16.2132 7.34601 16.2083 7.34552 16.1995 7.34182C16.1886 7.33689 16.1785 7.33444 16.1689 7.33444C16.1332 7.33444 16.1182 7.36545 16.1084 7.38589C16.098 7.40705 16.0936 7.41272 16.087 7.41272C16.0848 7.4127 16.0826 7.41236 16.0806 7.41173C16.0658 7.40779 16.0545 7.40607 16.0444 7.40607C15.9939 7.40607 15.9873 7.44865 15.9799 7.49394C15.9787 7.50182 15.9774 7.50994 15.9757 7.51881C15.9632 7.59093 15.9309 7.88877 15.9358 7.96533C15.9403 8.03672 16.0333 8.03672 16.0685 8.03672C16.1345 8.03672 16.2246 8.02465 16.3363 8.00914C16.5554 7.97862 16.9584 7.85702 17.1664 7.68349C17.2195 7.63917 17.2609 7.63425 17.2761 7.63425C17.2892 7.63425 17.2953 7.63745 17.2966 7.63869C17.2983 7.64927 17.2732 7.70589 17.2208 7.74994C17.2158 7.75462 17.2097 7.75954 17.2033 7.76545C17.1383 7.82256 16.9864 7.95672 16.6797 8.01629C16.3863 8.07339 16.1153 8.12484 16.0242 8.12484C16.0124 8.12484 16.0065 8.12385 16.004 8.12336C15.9986 8.12213 15.9939 8.12139 15.9892 8.12139C15.9742 8.12139 15.9624 8.12902 15.9577 8.14157C15.9518 8.15807 15.9609 8.17752 15.9831 8.19622C16.0124 8.22084 16.0535 8.23536 16.0929 8.23536C16.1049 8.23536 16.1168 8.23413 16.1283 8.23142C16.1387 8.23167 16.1709 8.26169 16.1943 8.28361C16.2576 8.34293 16.3533 8.43228 16.4796 8.43228C16.6384 8.43228 16.868 8.26145 16.9342 8.20927C16.9648 8.18539 17.0344 8.1497 17.0743 8.13837C17.0677 8.14674 17.0576 8.15832 17.0416 8.17432L17.03 8.18589C16.8838 8.33234 16.7326 8.48373 16.5857 8.48767C16.5798 8.48792 16.5739 8.48792 16.5677 8.48792V8.48792ZM18.4463 8.28863C18.3432 8.36149 18.2861 8.3866 18.2772 8.5109C18.2683 8.63546 18.2437 8.84813 18.197 8.86709C18.1364 8.8917 18.1448 8.75165 18.1261 8.79595C18.0992 8.85823 18.0234 8.8314 18.0015 8.7738C17.9914 8.74869 17.7701 8.75115 17.9481 8.49318C18.1091 8.25958 18.2327 8.13725 18.3483 8.08383C18.464 8.03041 18.66 8.13725 18.4463 8.28863" fill="#061922"/>
<path d="M22.8026 18.8656C22.7615 18.7609 22.8338 18.5849 23.0564 18.7095C23.2791 18.8343 23.448 18.9414 23.288 19.4305C23.1273 19.9198 23.0121 20.2046 22.9495 20.4094C22.8875 20.6142 22.647 20.8722 22.727 20.5251C22.8075 20.1781 22.8496 19.7586 22.8159 19.5462C22.7541 19.1548 22.8796 19.1779 22.8385 18.999C22.8257 18.9438 22.8178 18.903 22.8026 18.8656V18.8656ZM23.6439 19.2882C23.7079 19.4804 23.7773 19.9198 23.6705 20.0978C23.5637 20.276 23.2343 20.7653 23.11 20.8901C22.9852 21.0147 22.8875 20.9613 22.9673 20.8276C23.0475 20.6942 23.1543 20.5162 23.1543 20.4539C23.1543 20.3917 23.1457 20.3205 23.2523 20.1157C23.3589 19.9112 23.546 19.2256 23.5637 19.1725C23.5814 19.1191 23.626 19.2347 23.6439 19.2882V19.2882ZM21.3475 20.9345C21.2944 20.7745 21.2675 20.5429 21.1787 20.4095C21.2498 20.2136 21.4844 19.6875 21.8817 19.5285C21.926 19.5106 21.9531 19.466 21.9351 19.4306C21.9169 19.3949 21.9885 19.3685 22.024 19.4931C22.0599 19.6171 22.1219 19.9733 22.1219 19.9733C22.1397 20.0536 22.1042 20.1159 22.0865 20.2227C22.0685 20.3295 22.024 20.5697 22.0508 20.6941C22.0774 20.8186 22.1219 20.908 22.3708 20.8545C22.4958 20.8275 22.487 20.7923 22.5222 20.6852C22.5579 20.5786 22.6558 20.2758 22.6915 20.1067C22.727 19.9376 22.6962 19.5241 22.6605 19.4173C22.6246 19.3104 22.6738 18.9498 22.647 18.8787C22.6204 18.8075 22.6024 18.7012 22.3802 18.6298C22.1576 18.5584 22.0954 18.5405 21.944 18.6919C21.7926 18.8435 21.7397 18.9055 21.6683 18.9767C21.5969 19.0478 21.4189 18.9853 21.5701 18.8435C21.7217 18.7012 21.8642 18.5584 21.908 18.5136L21.8642 18.3979H21.7837C21.5432 18.6387 21.223 18.781 21.0093 18.8253C20.9291 18.842 20.7779 18.8519 20.8848 18.9944C20.9116 19.0303 20.9205 19.128 20.983 19.0926C21.045 19.0567 21.1427 18.8967 21.2318 18.9678C21.3212 19.0387 21.2144 19.2083 21.1073 19.2883C21.0009 19.3685 20.8848 19.4483 20.805 19.4931C20.7248 19.5374 20.6802 19.5817 20.6891 19.7242C20.6979 19.8665 20.7068 20.125 20.6265 20.3206C20.5465 20.5163 20.5913 20.5697 20.6622 20.7032C20.7336 20.8368 20.8493 20.9523 20.8848 21.1659C20.9205 21.3793 20.9384 21.4328 21.0807 21.415C21.223 21.3973 21.2766 21.3348 21.3301 21.2459L21.3475 20.9345H21.3475Z" fill="#FAB383"/>
<path d="M21.4006 21.344C21.3386 21.4511 21.2315 21.62 21.2315 21.7714C21.2315 21.9227 21.0804 22.083 21.0981 22.1541C21.1161 22.225 21.312 22.4121 21.4275 22.608C21.5429 22.8037 21.6941 23.0971 21.6941 23.5867C21.6941 24.0766 21.5341 24.7437 21.5166 24.8328C21.4984 24.9216 21.4543 24.993 21.5877 25.1176C21.7214 25.2424 21.9348 25.4735 22.015 25.9983C22.095 26.5236 22.1484 26.7995 22.1841 26.8261C22.2198 26.853 22.2107 26.8973 22.2107 26.9952C22.2107 27.093 22.2993 27.6539 22.3621 27.7605C22.4241 27.8676 22.4153 27.1555 22.4062 26.9507C22.3973 26.7461 22.4153 25.7674 22.451 25.6251C22.4867 25.4824 22.5221 25.3221 22.3973 25.1442C22.2732 24.9662 22.0596 24.6546 22.2198 24.1389C22.3801 23.6222 22.6378 23.6315 22.5576 23.4267C22.4776 23.2219 22.3353 23.0797 22.2287 22.9642C22.1219 22.8483 22.2065 22.5726 22.2019 22.4567C22.193 22.2427 22.0237 22.2075 22.0059 21.9671C21.9882 21.7268 21.9702 21.5311 22.1485 21.2909C22.3264 21.0509 22.0862 21.0595 22.0059 20.9081C21.9257 20.757 21.8831 20.5546 21.9528 20.2408C21.9882 20.0803 21.9702 20.0362 21.9257 20.0183C21.8814 20.0005 21.6941 19.9648 21.6941 19.9648L21.4186 20.5167C21.4634 20.6233 21.4809 20.7838 21.4809 20.8904L21.4006 21.344V21.344Z" fill="#A73832"/>
<path d="M18.8293 10.5139C18.61 10.8061 18.2688 11.5462 18.1083 12.0088C17.9483 12.4718 17.5833 13.5753 17.8417 14.3049C18.0995 15.0345 18.607 14.572 18.7222 14.296C18.8382 14.0203 19.0164 13.5485 19.0698 13.4239C19.123 13.2993 19.1498 13.228 19.2475 13.5216C19.3455 13.8155 19.4878 14.5185 19.4878 14.5808C19.4878 14.6431 19.3896 14.8213 19.2832 15.097C19.1764 15.3727 19.1141 15.5686 19.2207 15.738C19.3275 15.9069 19.746 16.6276 19.8794 16.9392C19.9594 17.1261 20.0305 17.1615 20.2442 17.1081C20.4579 17.0549 20.974 16.8767 21.1252 16.8056C21.2766 16.7344 21.2052 16.6096 21.1606 16.4587C21.0932 16.2283 20.8229 14.9454 20.8229 14.7765C20.8229 14.6074 20.868 14.3859 20.6444 14.6342C20.5649 14.7233 20.4579 14.6342 20.4844 14.5094C20.5113 14.3849 20.7779 12.6495 20.7961 12.4361C20.6444 12.1067 20.1996 11.0655 20.0753 10.8787C19.9505 10.6918 19.9062 10.683 19.7192 10.7809C19.5323 10.8787 19.1148 11.0288 18.9627 10.6741C18.9361 10.6116 18.8918 10.4693 18.9984 10.4516L18.9182 10.4248C18.9182 10.4248 18.8556 10.4782 18.8293 10.5139H18.8293ZM21.1606 16.9123C20.9951 17.0073 20.4312 17.2503 20.1998 17.2862C19.9623 17.3229 20.0219 17.3842 20.0664 17.5624C20.1105 17.7399 20.2441 18.2738 20.3153 18.4609C20.3867 18.6479 20.4844 18.6445 20.6715 18.6391C20.9563 18.6302 21.4367 18.5054 21.7838 18.1849C21.6856 18.0692 21.5143 17.5147 21.4636 17.2771C21.4099 17.0283 21.4099 16.77 21.1606 16.9123V16.9123ZM16.0613 11.7774C16.0436 11.8134 15.9813 11.92 15.8393 11.92C15.697 11.92 15.581 11.8754 15.4919 12C15.4031 12.1245 14.9137 12.721 14.8066 13.0855C14.9137 13.308 15.0562 13.7085 15.1628 13.9933C15.5099 13.6999 16.6178 12.6186 16.8268 12.4093C16.9073 12.3293 16.9159 12.2582 16.8002 12.1782C16.6846 12.0977 16.2572 11.8309 16.1861 11.7866C16.115 11.7418 16.0793 11.7418 16.0613 11.7774V11.7774ZM13.2583 13.3438C13.1899 13.618 13.0537 14.1002 12.8312 14.4741C12.9201 14.6164 12.9912 14.7412 13.098 14.7855C13.3471 14.6076 13.8188 14.1711 13.9522 14.0111C14.0858 13.8511 14.255 13.6106 14.255 13.5575C14.255 13.5038 14.1927 13.4863 14.1127 13.5038C14.0324 13.5218 13.7031 13.3901 13.3828 13.3261C13.294 13.3081 13.2671 13.3081 13.2583 13.3438V13.3438ZM13.0627 13.0769C12.9648 13.0574 12.6266 12.6941 12.5106 12.4984C12.3952 12.3024 12.377 12.3204 12.3329 12.4627C12.2883 12.605 12.1192 12.9166 12.0035 13.068C11.8878 13.2191 11.5853 13.6108 11.5051 13.6999C11.4248 13.7887 11.5051 13.8244 11.5765 13.8956C11.6476 13.9667 12.0124 14.4115 12.0924 14.5095C12.1726 14.6074 12.2618 14.7856 12.4749 14.5897C12.6888 14.3938 12.9468 14.0378 13.0627 13.673C13.1782 13.308 13.1868 13.1167 13.2848 13.1389L13.2892 13.0633L13.2626 13.019L13.2092 12.9744C13.2225 13.0055 13.2225 13.0323 13.2006 13.068C13.1782 13.1034 13.107 13.0855 13.0627 13.0768V13.0769ZM18.5089 4.88959C18.2691 5.17267 17.7877 5.42325 16.9783 5.62805C16.1685 5.83285 15.3941 6.40245 15.065 6.67815C14.7354 6.95408 13.9056 7.63347 13.5075 7.79938C13.401 7.84393 13.1738 7.99482 13.463 8.03076C13.6766 8.0576 13.8278 7.93304 14.2906 7.59482C14.7536 7.25661 15.1127 7.01267 15.4654 6.66928C15.7948 6.34879 16.391 6.04627 17.0315 5.8683C17.6725 5.69008 18.5141 5.41045 18.758 5.14732C18.8734 5.02301 18.8828 4.96048 18.776 4.85365C18.6691 4.74707 18.6069 4.7739 18.5089 4.88959H18.5089ZM14.424 7.68826C14.3544 7.72666 14.3263 7.76826 14.2458 8.02648C14.166 8.28445 14.1749 8.43559 14.2416 8.49811C14.2901 8.54316 14.3615 8.54709 14.3974 8.54709C14.424 8.54709 14.4508 8.5562 14.4467 8.48039C14.4417 8.40482 14.4368 8.08211 14.6778 7.93762C14.7224 7.91079 14.6719 7.7242 14.5131 7.75054C14.4597 7.75965 14.5131 7.63928 14.424 7.68826V7.68826ZM11.6741 8.70727C11.7989 8.70727 11.8789 8.70727 11.8701 8.84954C11.8612 8.99207 11.7989 9.18776 11.7901 9.32142C11.781 9.45484 11.781 9.508 11.8612 9.508C11.941 9.508 11.7455 9.58825 11.6384 9.60623C11.5319 9.62395 11.3674 9.68524 11.2825 9.23232C11.2559 9.08979 11.2648 8.86752 11.2471 8.8141C11.3628 8.76068 11.5218 8.70727 11.6741 8.70727H11.6741ZM14.0398 9.08731C14.0728 9.26675 14.1217 9.26331 14.0858 9.29014C14.0501 9.31696 14.0129 9.2222 13.8677 9.24583C13.7299 9.26798 12.6086 9.44152 12.5286 9.45063C12.2795 9.47696 12.266 9.43684 12.4974 9.3881C12.7288 9.33912 13.5753 9.18478 13.8278 9.13408L14.0398 9.08731ZM12.6888 22.6969C12.8045 22.7681 13.0802 22.8483 13.5521 22.6524C14.0237 22.4565 14.5487 22.5899 14.6287 22.9281C14.709 23.2665 14.7117 23.7025 14.5665 23.8896C14.4419 24.0496 14.3262 24.0318 14.1839 23.9875C13.926 23.9065 13.3295 23.6316 13.1604 23.5513C12.9913 23.4711 12.7065 23.3822 12.5017 23.3822C12.4217 23.2131 12.4306 22.9192 12.484 22.8126C12.5374 22.7058 12.5374 22.599 12.5817 22.6258C12.6265 22.6524 12.6888 22.6969 12.6888 22.6969H12.6888ZM14.5577 24.2719C14.6734 24.2719 14.8828 24.3207 14.9491 24.5304C15.0022 24.6993 15.3496 24.7436 15.5009 24.7347C15.6521 24.7263 15.6255 24.8061 15.6164 24.8952C15.6078 24.9841 15.5809 25.2514 15.5809 25.358C15.5809 25.4648 15.6078 25.8382 15.6255 25.9096C15.6432 25.9807 15.5809 26.0164 15.5009 26.0519C15.4209 26.0876 15.127 26.1764 14.9404 26.043C14.842 25.9729 14.7265 25.8741 14.8422 25.865C14.9579 25.8564 14.7002 24.8506 14.6288 24.6727C14.5577 24.4945 14.3526 24.2719 14.5577 24.2719V24.2719ZM11.4961 22.1719C11.5441 22.1877 11.5675 22.2344 11.603 22.2965C11.6387 22.3587 11.6507 22.4127 11.5941 22.4744C11.4961 22.5813 11.3804 23.0706 11.3984 23.4179C11.3361 23.4 11.2027 23.3734 11.1316 23.3911C11.1048 23.1952 11.1225 22.5813 11.2116 22.3853C11.3007 22.1899 11.3893 22.1362 11.4961 22.1719ZM11.5139 27.6003C11.7357 27.8499 12.1546 28.2324 12.466 28.3658C12.7777 28.4993 12.9825 28.5438 13.2582 28.5172C13.4814 28.4956 13.4361 28.5884 13.2582 28.6152C13.0802 28.6418 12.6708 28.6418 12.4042 28.4993C12.1369 28.3567 11.7135 28.0936 11.4428 27.7074C11.3805 27.618 11.4428 27.5205 11.5139 27.6003V27.6003ZM16.1503 26.9775C15.9697 27.0597 15.6344 27.2268 15.3142 27.3068C15.3496 27.4671 15.3587 27.5382 15.3587 27.5825C15.5542 27.5825 15.9315 27.4459 16.2395 27.2534C16.3108 27.2086 16.3374 27.1557 16.3108 27.0932C16.2838 27.0309 16.2483 26.9329 16.1503 26.9775V26.9775ZM14.0416 26.2477C13.997 26.2034 14.2503 26.1502 14.3037 26.1502C14.3662 26.1901 14.4797 26.2903 14.5221 26.3326C14.5489 26.3589 14.5356 26.3767 14.5085 26.3949C14.4822 26.4123 14.3264 26.4527 14.255 26.4571C14.175 26.386 14.0637 26.2701 14.0416 26.2477ZM14.5132 22.5457C14.4418 22.4921 14.4509 22.4657 14.4866 22.4121C14.5221 22.3587 14.5578 22.3232 14.5932 22.3052C14.6286 22.2875 14.6823 22.2787 14.7443 22.3675C14.8066 22.4566 15.1448 23.0176 15.216 23.1685C15.2874 23.3199 15.3765 23.2219 15.3408 23.1331C15.3053 23.0439 15.2339 22.8928 15.2071 22.8483C15.3053 22.5457 15.403 22.083 15.403 21.7804C15.403 21.4774 15.3319 21.1754 15.2782 21.0683C15.5187 21.0772 16.0435 21.0683 16.2483 21.006C16.4534 20.9435 16.2838 20.926 16.2038 20.9349C16.1238 20.9435 15.5483 20.9415 15.1271 20.8903C14.3975 20.8012 13.6807 20.3909 13.4542 20.1071C13.4183 20.0628 13.2046 20.0802 13.3829 20.223C13.5611 20.3653 14.015 20.7904 14.6823 20.9083C14.8334 20.9349 15.0734 20.9792 15.1094 21.5311C15.1448 22.083 15.0917 22.4387 15.0917 22.4921C15.0917 22.5457 15.0562 22.5635 15.0114 22.5009C14.9669 22.4387 14.8157 22.2343 14.7352 22.19C14.6555 22.1452 14.6023 22.1541 14.5309 22.2075C14.4598 22.2609 14.3527 22.3675 14.3084 22.4209L14.5132 22.5457V22.5457ZM13.0803 24.2854C13.0136 24.2854 12.6131 24.3167 12.5286 24.2854C12.444 24.2544 12.3893 24.1571 12.4486 24.1163C12.5195 24.0673 12.6576 24.1298 12.7955 24.1298C12.9336 24.1298 13.0803 24.0944 13.116 24.1163C13.1514 24.1387 13.2006 24.1298 13.2006 24.2989L13.0803 24.2854ZM12.1102 26.7282C11.9945 26.6573 11.8606 26.3274 11.8343 25.6692C11.8256 25.4467 11.9148 25.0728 11.9856 24.8953C12.0568 24.7171 11.9411 24.7882 11.9148 24.8505C11.8877 24.9128 11.7988 25.1621 11.772 25.3487C11.7456 25.5358 11.7008 25.8115 11.772 26.212C11.8434 26.6125 11.8791 26.737 11.8965 26.8084L12.1102 26.7282H12.1102Z" fill="white"/>
<path d="M16.1811 5.47642C16.3015 5.48972 16.4349 5.48085 16.4662 5.39642C16.4972 5.31199 16.4704 5.25833 16.4305 5.24061C16.3904 5.22288 16.3727 5.22732 16.3904 5.14707C16.4081 5.06707 16.4662 5.07618 16.4618 4.95138C16.4571 4.82682 16.3638 4.82239 16.2791 4.84947C16.1947 4.87581 16.1634 4.91569 16.0832 5.02252C16.0034 5.12934 16.0389 4.95138 16.0522 4.92012C16.0647 4.89132 16.0967 4.68627 15.9869 4.64934C15.9251 4.68036 15.8641 4.71113 15.8055 4.74141C15.7863 4.78054 15.7713 4.82634 15.7541 4.87138C15.7095 4.98707 15.6554 4.90018 15.616 4.84454C15.616 4.8443 15.6155 4.84405 15.6152 4.84381C15.4966 4.90954 15.3927 4.97107 15.3137 5.02252C15.3051 5.02818 15.2957 5.03458 15.2871 5.04024C15.2977 5.11039 15.3821 5.19925 15.4294 5.23174C15.4872 5.27187 15.4513 5.34744 15.3804 5.34744C15.309 5.34744 15.2202 5.2987 15.1311 5.40504C15.0419 5.51211 15.0998 5.61451 15.1847 5.61451C15.2691 5.61451 15.3403 5.64553 15.3715 5.74325C15.4026 5.84122 15.4294 5.88159 15.5451 5.89464C15.6605 5.90793 15.7272 5.81907 15.7585 5.76565C15.7898 5.71224 15.8299 5.63667 15.8786 5.65464C15.9512 5.68098 15.9421 5.75729 15.92 5.83851C16.0037 5.78929 16.0891 5.74301 16.1802 5.6987C16.1656 5.62337 16.1208 5.55396 16.0879 5.52097C16.0477 5.48085 16.0608 5.46313 16.1811 5.47642V5.47642ZM17.1736 4.18604C17.1325 4.19564 17.0886 4.20721 17.0448 4.21976C17.066 4.32142 17.1071 4.45213 17.0847 4.47083C17.0579 4.49299 16.9555 4.51096 16.8755 4.53286C16.7955 4.55526 16.604 4.73348 16.7019 4.86222C16.7997 4.99145 16.8309 5.06702 16.8489 5.13397C16.8664 5.20068 17.0266 5.28068 17.1376 5.14702C17.2491 5.01385 17.3336 4.86689 17.3606 4.96019C17.383 5.03871 17.3769 5.2285 17.3614 5.33041C17.3845 5.32573 17.4079 5.32081 17.4315 5.31613C17.4761 4.81816 17.352 4.46197 17.1736 4.18604ZM14.7305 6.57548C14.6685 6.52674 14.6505 6.45092 14.7259 6.42877C14.8019 6.40637 14.9043 6.38864 15.0912 6.30864C15.2777 6.2284 15.18 6.09055 15.0958 6.05486C15.0112 6.01917 15.0018 5.93941 15.0112 5.85449C15.02 5.77006 14.9976 5.64575 14.8329 5.70803C14.6685 5.77006 14.7259 5.9303 14.6774 5.98372C14.6281 6.03714 14.6018 6.01917 14.6104 5.93941C14.6195 5.85917 14.5484 5.80575 14.5083 5.78778C14.4768 5.77425 14.4086 5.758 14.3502 5.75332C14.1799 5.90692 14.0241 6.06766 13.9059 6.22717C13.9325 6.28206 13.9948 6.3431 14.0275 6.35295C14.0723 6.36649 14.139 6.39775 14.1341 6.48661C14.1304 6.56169 13.9611 6.56686 13.8498 6.56957C13.9283 6.78224 14.0083 6.93314 14.1198 7.05375C14.1447 7.04661 14.1779 7.03529 14.2235 7.01609C14.3613 6.95825 14.4056 6.74902 14.428 6.68674C14.4504 6.62446 14.5083 6.63775 14.5484 6.718C14.5764 6.77412 14.5865 6.82581 14.5905 6.87627C14.669 6.79775 14.7451 6.7244 14.8199 6.65523C14.7972 6.63283 14.7694 6.60625 14.7305 6.57548H14.7305ZM17.0933 11.8926C17.1199 11.8882 17.0487 11.5726 17.1071 11.5591C17.1647 11.5458 17.191 11.7326 17.3158 11.7102C17.4406 11.6881 17.4716 11.5638 17.4539 11.4257C17.4362 11.2876 17.5162 11.3634 17.5787 11.2654C17.6405 11.1677 17.5071 11.0343 17.3557 11.1276C17.2045 11.2209 17.2314 11.0963 17.3116 11.0476C17.3919 10.9984 17.3338 10.8206 17.1647 10.8782C17.0423 10.9203 16.9805 10.8411 16.922 10.8076C16.8767 10.8251 16.8321 10.844 16.7873 10.864C16.7775 10.8984 16.7853 10.9403 16.7954 10.9851C16.8082 11.0422 16.8353 11.1899 16.742 11.1276C16.6605 11.0734 16.5505 11.0429 16.5195 11.1453C16.4882 11.2477 16.5505 11.2568 16.5416 11.3189C16.5325 11.3811 16.3725 11.3944 16.4481 11.5234C16.5237 11.6524 16.6352 11.5815 16.711 11.5325C16.7866 11.4835 16.8577 11.5414 16.8311 11.6081C16.8099 11.66 16.7681 11.8353 16.7652 11.9507C16.8006 11.9741 16.8378 11.9992 16.8767 12.0268C16.9212 11.982 17.0052 11.9079 17.0933 11.8926V11.8926ZM14.6685 11.5859C14.735 11.5682 14.8642 11.7058 14.9799 11.6258C15.0958 11.5458 14.9309 11.4658 14.9533 11.3989C14.9755 11.3322 15.0289 11.2032 14.9486 11.1409C14.8686 11.0786 14.784 11.1365 14.6998 11.23C14.6148 11.3233 14.6461 11.1451 14.6907 11.0698C14.7485 10.9718 14.6907 10.9048 14.5927 10.8871C14.4947 10.8694 14.4637 11.0072 14.397 10.945C14.2909 10.8462 14.1255 10.8871 14.1656 11.0252C14.2057 11.1633 14.2498 11.2076 14.1656 11.2253C14.0812 11.243 14.0009 11.0208 13.9032 11.199C13.805 11.3765 13.9608 11.4301 13.9475 11.5638C13.9342 11.6972 13.9876 11.8395 14.0676 11.8528C14.1479 11.8663 14.2321 11.7772 14.2766 11.724C14.3214 11.6706 14.428 11.6305 14.4147 11.7326C14.4054 11.8033 14.4007 11.95 14.398 12.0344C14.5619 11.9547 14.7374 11.8715 14.8329 11.8395C14.8369 11.8381 14.8408 11.8366 14.8448 11.835C14.8002 11.8171 14.7369 11.7875 14.6774 11.7459C14.5883 11.6837 14.6018 11.6039 14.6685 11.5859V11.5859ZM12.6971 15.6395C12.9019 15.5772 12.9108 15.7375 12.884 15.8709C12.8574 16.0043 12.8574 16.2891 12.8662 16.4314L13.2042 16.4496C13.1865 16.3603 13.2042 16.102 13.2133 15.9512C13.2219 15.7995 13.3736 15.5681 13.427 15.7995C13.4804 16.0312 13.7115 16.04 13.8718 15.942C14.032 15.8441 14.148 15.6307 14.3168 15.3279C14.4862 15.0254 14.2637 14.9451 14.13 14.9631C13.9966 14.9808 13.8629 14.9985 14.1657 14.7497C14.447 14.5178 13.9734 14.4014 13.7558 14.3578C13.3972 14.7344 12.9563 15.161 12.5637 15.497C12.5135 15.5398 12.4667 15.5809 12.4219 15.6208C12.4689 15.6479 12.5613 15.6806 12.6971 15.6395V15.6395ZM12.3411 17.8822C12.5102 17.8285 12.6171 18.1936 12.8662 17.9799C13.1155 17.7665 12.9373 17.5885 12.9287 17.4106C12.9196 17.2321 13.1244 17.1612 13.0623 16.9389C12.9671 16.5997 12.6525 16.921 12.4568 17.1078C12.2611 17.2946 12.2523 17.1433 12.4482 16.8412C12.6439 16.5385 12.3234 16.4405 12.1277 16.5207C11.9537 16.5916 11.7939 16.5222 11.6918 16.4309C11.6164 16.5513 11.5613 16.6625 11.5047 16.7787C11.3356 17.1258 11.4513 17.1344 11.5761 17.1344C11.7004 17.1344 11.9675 17.6597 12.0029 17.7572C12.0155 17.7921 12.1068 17.9255 12.2279 18.0961C12.2207 18.0119 12.237 17.9149 12.3411 17.8822ZM17.2091 14.3757C17.0489 14.3403 16.8409 14.3134 16.8175 14.6428C16.8086 14.7674 16.933 14.8656 17.0489 14.9099C17.1646 14.9542 17.1466 15.0342 17.0221 14.9899C16.8978 14.9451 16.7998 14.9187 16.7112 15.1767C16.6216 15.4347 16.7821 15.4706 16.8623 15.4883C16.9423 15.5061 17.0043 15.5238 16.9866 15.6309C16.9686 15.7377 16.9155 16.0488 17.12 16.0757C17.3248 16.1022 17.5026 15.8531 17.5651 15.7286C17.6276 15.604 17.6982 15.4792 17.7165 15.6218C17.7342 15.7643 17.7074 15.8352 17.6365 15.9954C17.5651 16.1557 17.5651 16.227 17.6719 16.2182C17.7787 16.2088 17.9567 16.2182 18.0101 16.0931C18.0635 15.9688 18.1438 15.7286 18.1527 15.5595C18.1578 15.4536 18.2506 15.4418 18.3193 15.448C18.3394 15.2769 18.364 15.1063 18.3929 14.9365C18.0436 14.9886 17.7462 14.5621 17.6429 14.1928C17.524 14.3221 17.3492 14.407 17.2091 14.3757V14.3757ZM15.5451 14.3136C15.4826 14.4202 15.3048 14.7229 15.3846 14.8209C15.4648 14.9186 15.5537 14.7229 15.6251 14.7943C15.6965 14.8654 15.8565 14.9452 15.8565 14.892C15.8565 14.8386 15.8742 14.7318 15.901 14.5895C15.9279 14.447 15.9899 14.367 16.0522 14.4827C16.1144 14.5981 16.2033 14.6961 16.4258 14.6427C16.6483 14.5895 16.6218 14.3579 16.5772 14.189C16.5324 14.0199 16.6932 13.9397 16.7732 13.8954C16.8532 13.8508 17.058 13.6906 16.9068 13.5483C16.7554 13.4057 16.6218 13.6105 16.4883 13.6369C16.3547 13.664 16.4081 13.5483 16.684 13.3346C16.9223 13.1502 16.7229 12.9659 16.578 12.9021C16.1947 13.2876 15.516 13.9133 15.3669 14.0556C15.3135 14.1068 15.2674 14.1666 15.2243 14.2387C15.5825 14.0721 15.6039 14.2124 15.5451 14.3136V14.3136ZM17.7519 17.8911C17.8676 17.9982 18.1438 18.1493 18.3393 17.9711C18.5354 17.7931 18.2947 17.5972 18.2684 17.4552C18.2413 17.3124 18.4106 17.2233 18.3215 16.9924C18.167 16.5894 17.939 17.0724 17.8051 17.2058C17.6719 17.3392 17.6941 17.1125 17.8142 16.9924C17.8767 16.9299 18.1527 16.7608 17.9922 16.5739C17.8319 16.3871 17.6008 16.4937 17.4851 16.5739C17.3692 16.6542 17.2803 16.7519 17.1023 16.6985C16.9244 16.6451 16.773 16.6273 16.6664 16.8855C16.5593 17.1433 16.7641 17.0724 16.933 17.259C17.1023 17.4458 16.9957 17.4552 16.8623 17.4106C16.7284 17.366 16.6664 17.1969 16.4705 17.2233C16.2745 17.2501 16.2745 17.562 16.337 17.642C16.3996 17.722 16.5236 17.7665 16.4348 17.9177C16.3461 18.0691 16.4793 18.247 16.6393 18.3182C16.7998 18.3893 17.0396 18.1045 17.1292 17.9888C17.218 17.8731 17.3066 17.9 17.2889 17.9888C17.2741 18.0654 17.2323 18.2667 17.2264 18.4348C17.362 18.3915 17.4962 18.3514 17.6249 18.3162C17.6247 18.2227 17.6045 18.0723 17.5651 17.927C17.5117 17.7311 17.6365 17.7843 17.7519 17.8911V17.8911ZM15.4382 18.8435C15.2246 18.9055 15.1889 18.8075 15.0466 18.7544C14.9043 18.7012 14.895 18.8253 14.9929 18.9767C15.0912 19.128 15.1977 19.2703 15.082 19.2703C14.9664 19.2703 14.8775 19.2883 14.8595 19.3774C14.8418 19.466 14.655 19.3597 14.6104 19.1726C14.5661 18.9853 14.5216 18.6298 14.4236 18.8075C14.3259 18.9853 14.2368 19.2794 13.9876 19.146C13.7383 19.0126 13.9074 18.8344 13.7828 18.7096C13.6583 18.585 13.5426 18.425 13.6672 18.2025C13.792 17.98 13.8985 18.1668 14.0142 18.1668C14.1299 18.1668 14.1479 18.06 14.0411 17.98C13.9342 17.9 13.8006 17.5172 14.2902 17.544C14.4787 17.5544 14.6818 17.4906 14.8418 17.3749C15.0018 17.259 15.4205 17.3213 15.2514 17.6154C15.082 17.9088 15.1357 17.9711 15.2334 17.8643C15.3314 17.7572 15.456 17.562 15.6428 17.6154C15.8299 17.6686 15.7496 17.8109 15.6339 17.9711C15.5182 18.1314 15.5894 18.2382 15.6782 18.3002C15.7673 18.3628 15.9313 18.6992 15.4382 18.8435V18.8435ZM16.3462 16.743C16.1857 16.7519 15.9897 16.7073 15.9897 16.7073C15.972 16.8764 15.8078 17.1186 15.6429 17.366C15.6249 17.3929 15.5272 17.3929 15.4824 17.3569C15.4384 17.3215 15.3138 17.2589 15.4113 17.1521C15.5095 17.0458 15.6695 16.823 15.6429 16.7253C15.6161 16.6273 15.5452 16.5385 15.4384 16.6719C15.3315 16.8053 15.1624 17.0812 14.9756 17.0903C14.7883 17.0989 14.6019 16.9298 14.6905 16.7607C14.7796 16.5919 14.8062 16.5028 14.6817 16.3511C14.5571 16.2 14.6036 16.0065 14.8688 15.8886C14.9488 15.8532 15.091 15.8886 15.189 15.9686C15.2867 16.0489 15.3404 15.9686 15.2067 15.8886C15.0731 15.8086 14.9665 15.7106 14.9488 15.5327C14.9318 15.3636 15.0379 15.1858 15.2692 15.2836C15.5004 15.3813 15.6429 15.3013 15.7409 15.2213C15.8386 15.141 16.2561 15.0411 16.1948 15.4084C16.15 15.6749 16.0259 15.6841 15.9897 15.8263C15.9545 15.9686 16.0609 15.8797 16.1234 15.7732C16.1857 15.6661 16.3282 15.2292 16.6216 15.5593C16.693 15.6395 16.6664 15.7732 16.5771 15.9243C16.4882 16.0757 16.5593 16.1645 16.6128 16.2445C16.6664 16.3248 16.7902 16.7181 16.3462 16.743" fill="#008348"/>
<path d="M23.6869 9.66535L23.9587 9.47261L24.5477 10.3474L24.8946 10.1015L24.288 9.24442L24.5517 9.05809L25.1971 9.96295L25.5444 9.7168L24.5859 8.37329L23.009 9.49082L23.8787 10.7273L24.2258 10.4813L23.6869 9.66535ZM24.8266 12.7033L25.3423 12.4648L24.9871 11.6931L26.195 11.19L25.9756 10.7065L24.2695 11.4487L24.8266 12.7033ZM25.1338 13.5193L25.1875 13.9951L26.3326 13.8605L26.3774 14.3567L26.8899 14.3188L26.7474 12.6546L26.2344 12.6925L26.2787 13.3847L25.1338 13.5193ZM25.1915 15.1424L25.1986 15.7095L26.8818 15.7044L26.8749 15.1375L25.1915 15.1424ZM25.9821 16.5111C25.7 16.457 25.366 16.5035 25.1322 16.6807C24.9222 16.8402 24.8245 17.0002 24.7688 17.2907C24.7339 17.4748 24.7622 17.7165 24.8232 17.9282L25.268 17.7791C25.2252 17.6767 25.2072 17.5211 25.2535 17.3636C25.3436 17.0593 25.5908 16.9222 25.8925 16.9668C26.2128 17.0138 26.3952 17.3074 26.3373 17.657C26.3149 17.7963 26.2455 17.9169 26.087 18.0117L26.3624 18.3435C26.5867 18.2061 26.7565 17.9356 26.793 17.7456C26.8548 17.4254 26.7784 17.2043 26.63 16.9444C26.4855 16.6908 26.2411 16.5606 25.9821 16.5111H25.9821ZM25.6735 18.8626C25.4384 18.8023 25.1182 19.0605 24.9638 19.2089C24.8747 19.2946 24.5638 19.6079 24.4203 19.5595C24.2918 19.5164 24.331 19.3202 24.3745 19.1919C24.4375 19.0049 24.5343 18.8476 24.6847 18.7464L24.406 18.6228C24.2707 18.7361 24.1198 18.9187 24.0577 19.1026C23.9861 19.3148 23.9566 19.5632 23.9868 19.7212C24.0257 19.9248 24.0969 20.0545 24.327 20.0336C24.5043 20.0171 24.9493 19.7281 25.206 19.4856C25.3363 19.363 25.4473 19.3497 25.5051 19.382C25.5991 19.4339 25.5932 19.5942 25.5595 19.6946C25.5142 19.8287 25.4497 20.0338 25.3429 20.1096L25.7232 20.3649C25.8785 20.2088 25.959 19.9742 26.0046 19.7549C26.1151 19.2252 25.8281 18.9025 25.6735 18.8626V18.8626ZM23.5598 7.69045C23.5268 7.42978 23.3828 7.12996 23.2363 7.0032C23.0099 6.80652 22.7418 6.75384 22.4568 6.79076C22.1675 6.82867 21.8985 7.01427 21.7466 7.23015C21.5812 7.46473 21.4862 7.78842 21.5519 8.0747C21.6105 8.33144 21.7163 8.48652 21.9583 8.65661C22.1116 8.76467 22.3435 8.83802 22.5616 8.86928L22.6086 8.40258C22.4976 8.39962 22.3482 8.35187 22.2241 8.2448C21.9836 8.03729 21.9723 7.70941 22.1249 7.49944C22.315 7.23729 22.6465 7.18117 22.9414 7.3776C23.0591 7.45538 23.1056 7.58141 23.1265 7.76553L23.5598 7.69046V7.69045ZM6.34392 17.3876C6.35598 17.2603 6.34884 17.0277 6.48669 16.9987C6.61961 16.9706 6.70724 17.0996 6.7353 17.232C6.77617 17.4253 6.83057 17.5757 6.75277 17.7396L7.11117 17.7019C7.17001 17.5358 7.15179 17.3135 7.11167 17.124C7.06515 16.9044 6.99524 16.7503 6.83377 16.607C6.67844 16.4692 6.56152 16.4333 6.33505 16.481C6.19697 16.5103 5.95057 16.7572 5.94195 17.2537C5.94047 17.348 5.91807 17.5279 5.8334 17.5321C5.72558 17.5377 5.64607 17.4095 5.62441 17.3059C5.59487 17.1673 5.63475 16.8638 5.68767 16.7441L5.31253 16.7424C5.25813 16.9556 5.23721 17.2544 5.28349 17.4737C5.38564 17.9569 5.67856 18.115 5.91635 18.0889C6.17062 18.0608 6.30404 17.7955 6.34392 17.3876V17.3876ZM5.59342 15.3489L6.92241 15.3324L6.91601 14.9149L5.58702 14.9314L5.58161 14.365L5.15625 14.3697L5.17324 15.9557L5.59859 15.951L5.59342 15.3489ZM7.99354 11.1774L6.96757 10.5856L6.97028 10.5807L8.32905 10.5581L8.65323 10.0576L6.97889 9.0922L6.72585 9.4858L7.86825 10.2033L6.31034 10.2477L6.09299 10.6681L7.74049 11.6244L7.99354 11.1774ZM6.33178 12.1485C6.62741 12.1485 6.86765 12.3883 6.86765 12.6842C6.86765 12.98 6.62741 13.22 6.33178 13.22C6.03565 13.22 5.79591 12.98 5.79591 12.6842C5.79591 12.3883 6.03565 12.1485 6.33178 12.1485ZM6.33178 13.7128C6.89991 13.7128 7.36045 13.2523 7.36045 12.6842C7.36045 12.1163 6.89991 11.6555 6.33178 11.6555C5.76341 11.6555 5.30311 12.1163 5.30311 12.6842C5.30311 13.2523 5.76341 13.7128 6.33178 13.7128V13.7128ZM6.99475 19.9881C6.69887 19.9881 6.45887 19.7478 6.45887 19.4519C6.45887 19.1561 6.69887 18.9163 6.99475 18.9163C7.29038 18.9163 7.53038 19.1561 7.53038 19.4519C7.53038 19.7478 7.29038 19.9881 6.99475 19.9881V19.9881ZM8.02342 19.4519C8.02342 18.8838 7.56287 18.4235 6.99475 18.4235C6.42638 18.4235 5.96607 18.8838 5.96607 19.4519C5.96607 20.0203 6.42638 20.4809 6.99475 20.4809C7.56287 20.4809 8.02342 20.0203 8.02342 19.4519V19.4519ZM8.92671 21.8506L8.89126 21.808C8.77779 21.6718 8.39453 21.2662 8.55281 21.1173C8.69729 20.9814 9.06161 21.4439 9.16474 21.5672L9.20881 21.6209L8.92671 21.8506V21.8506ZM8.29483 22.4211C8.15896 22.2584 7.75379 21.9399 7.92683 21.777C8.09176 21.6219 8.49816 22.1174 8.54862 22.1779L8.29483 22.4211ZM8.23231 20.6269C8.07453 20.767 7.99822 21.0995 8.14714 21.3248C7.98493 21.2458 7.65779 21.2187 7.50764 21.3491C7.13742 21.6706 7.58641 22.1351 7.95514 22.5034L8.46911 23.0109L9.83502 21.8811L9.28191 21.2379C9.08794 20.9942 8.55182 20.3443 8.23231 20.6269H8.23231Z" fill="white"/>
<path d="M14.3122 25.9449C14.3701 25.9183 14.4503 25.8826 14.486 25.9095C14.5215 25.936 14.7346 26.0874 14.8685 26.2034C15.0017 26.3188 15.0463 26.3545 14.9397 26.4168C14.8328 26.4788 14.7346 26.5413 14.7528 26.4877C14.7706 26.4347 14.7971 26.3545 14.7258 26.2834C14.6549 26.212 14.4801 26.0771 14.4055 26.0163C14.3568 25.9762 14.3122 25.9449 14.3122 25.9449V25.9449ZM13.8093 26.092C13.7648 26.1321 13.7559 26.1988 13.8093 26.252C13.8627 26.3054 14.1608 26.5545 14.2098 26.6038C14.2588 26.6525 14.3299 26.6707 14.4099 26.6525C14.4902 26.6345 14.3166 26.7505 14.2497 26.7638C14.1835 26.7768 14.1077 26.7768 14.0365 26.7103C13.9649 26.6436 13.5646 26.2653 13.4846 26.1897C13.4044 26.1142 13.5068 26.1142 13.5779 26.1055C13.6493 26.0967 13.7114 26.1009 13.8093 26.092ZM15.7539 4.87157C15.7707 4.82825 15.7849 4.78074 15.8034 4.74259C15.7408 4.77521 15.6786 4.80861 15.6168 4.84277C15.6562 4.8984 15.7096 4.98652 15.7539 4.87157ZM17.3604 4.96041C17.3336 4.86711 17.2489 5.01407 17.1377 5.14724C17.0266 5.2809 16.8661 5.2009 16.8487 5.13419C16.8309 5.06724 16.7997 4.99166 16.7017 4.86244C16.6037 4.7337 16.7953 4.55548 16.8753 4.53308C16.9553 4.51118 17.0579 4.49321 17.0845 4.47105C17.1071 4.45235 17.0668 4.32115 17.0451 4.21973C16.7251 4.31105 16.3349 4.47819 15.9906 4.64804C16.0954 4.68816 16.0644 4.89173 16.0521 4.92028C16.0386 4.95155 16.0031 5.12951 16.0831 5.02268C16.1634 4.91585 16.1946 4.87598 16.2788 4.84964C16.3635 4.82256 16.4568 4.82699 16.4617 4.95155C16.4659 5.07635 16.4081 5.06724 16.3903 5.14724C16.3724 5.22748 16.3903 5.22306 16.4305 5.24078C16.4703 5.2585 16.4969 5.31216 16.4659 5.39659C16.4346 5.48102 16.3012 5.48988 16.1809 5.47659C16.0607 5.4633 16.0474 5.48102 16.0878 5.52115C16.1201 5.55388 16.1639 5.62502 16.1796 5.69936C16.4691 5.5593 16.8194 5.44213 17.3619 5.33062C17.3767 5.22798 17.3823 5.03795 17.3604 4.96041H17.3604ZM14.5482 6.71822C14.508 6.63797 14.4502 6.62468 14.428 6.68695C14.4054 6.74923 14.3611 6.95846 14.2232 7.01606C14.1893 7.03066 14.1544 7.04307 14.1189 7.05323C14.1666 7.10492 14.2198 7.1512 14.2811 7.19428C14.3899 7.07932 14.4918 6.97446 14.5895 6.87674C14.5858 6.82727 14.5755 6.77311 14.5482 6.71822V6.71822ZM15.8783 5.65476C15.8296 5.63703 15.7895 5.7126 15.7582 5.76577C15.7272 5.81919 15.6605 5.9083 15.545 5.895C15.4291 5.88171 15.4023 5.84159 15.3713 5.74362C15.34 5.6459 15.2689 5.61463 15.1844 5.61463C15.0997 5.61463 15.0419 5.51223 15.131 5.4054C15.2201 5.29882 15.309 5.34756 15.3801 5.34756C15.451 5.34756 15.4869 5.27199 15.4291 5.23187C15.3831 5.20011 15.3023 5.10928 15.2883 5.03937C15.0345 5.20627 14.6707 5.46448 14.3534 5.75051C14.4108 5.75544 14.4777 5.77464 14.508 5.78818C14.5481 5.8059 14.6192 5.85931 14.6104 5.93956C14.6015 6.01931 14.6281 6.03753 14.6771 5.98387C14.7258 5.9307 14.6682 5.7702 14.8327 5.70818C14.9976 5.6459 15.02 5.7702 15.0109 5.85463C15.0015 5.93956 15.0109 6.01931 15.0956 6.055C15.1797 6.0907 15.2777 6.22854 15.0909 6.30879C14.904 6.38879 14.8016 6.40676 14.7258 6.42916C14.6503 6.45107 14.6682 6.52688 14.7303 6.57562C14.7684 6.60565 14.7957 6.6347 14.8179 6.6571C15.0532 6.43851 15.2757 6.2598 15.5271 6.0907C15.6647 5.99839 15.7902 5.91494 15.9209 5.83814C15.9423 5.75814 15.95 5.6806 15.8783 5.65476V5.65476ZM14.1339 6.48671C14.1389 6.39785 14.0722 6.36658 14.0274 6.3533C13.9949 6.3432 13.9338 6.28019 13.907 6.22603C13.8627 6.28536 13.8236 6.34419 13.7916 6.40228C13.811 6.4621 13.8304 6.51748 13.8494 6.56966C13.9609 6.56695 14.1303 6.5613 14.134 6.48671H14.1339ZM17.8943 10.6383C17.6029 10.6198 17.256 10.6789 16.9247 10.8067C16.9826 10.8411 17.0443 10.9196 17.1645 10.8785C17.3336 10.8207 17.3917 10.9987 17.3114 11.0479C17.2312 11.0966 17.2043 11.2209 17.3557 11.1276C17.5069 11.0344 17.6403 11.1678 17.5785 11.2657C17.516 11.3635 17.436 11.2879 17.4537 11.4257C17.4714 11.5638 17.4404 11.6884 17.3156 11.7105C17.191 11.7329 17.1645 11.5461 17.1069 11.5594C17.0485 11.5727 17.1199 11.8885 17.0931 11.8929C17.0062 11.9077 16.9232 11.983 16.8784 12.0283C16.8821 12.0308 16.8851 12.033 16.8883 12.0355C17.3784 12.3872 17.5024 12.1957 17.5738 12.0266C17.645 11.8575 17.8032 11.3563 17.8495 11.0922C17.8766 10.9408 17.912 10.7808 17.8943 10.6383V10.6383ZM16.8309 11.6084C16.8574 11.5417 16.7863 11.4838 16.711 11.5325C16.6349 11.5818 16.5234 11.6527 16.4478 11.5237C16.3725 11.3945 16.5323 11.3814 16.5414 11.3191C16.5502 11.2569 16.488 11.248 16.5192 11.1456C16.5502 11.0432 16.6605 11.0737 16.742 11.1276C16.8353 11.1901 16.808 11.0425 16.7952 10.9853C16.7853 10.942 16.7784 10.8982 16.7863 10.8645C16.6905 10.9081 16.5958 10.957 16.5059 11.0119C16.0486 11.2918 16.0343 11.5281 16.1409 11.6172C16.2366 11.6967 16.4323 11.7341 16.7649 11.9513C16.7683 11.8358 16.8102 11.6598 16.8308 11.6084H16.8309ZM15.3758 11.3412C15.1865 11.2469 15.0017 11.0386 14.8773 10.7984C14.8773 10.7984 14.8862 10.7629 14.8328 10.7629C14.7796 10.7629 14.5834 10.745 14.2543 10.6293C13.925 10.5138 13.8807 10.585 13.8364 10.7273C13.7916 10.8695 13.7559 11.1277 13.747 11.5551C13.7381 11.9821 13.925 12.249 14.0409 12.2044C14.097 12.1825 14.2425 12.1104 14.3983 12.0346C14.4005 11.9496 14.4052 11.8027 14.4146 11.7328C14.4279 11.6306 14.3213 11.6708 14.2765 11.7242C14.2319 11.7773 14.1477 11.8664 14.0675 11.8529C13.9875 11.8396 13.9341 11.6973 13.9474 11.5639C13.9607 11.4303 13.8048 11.3769 13.9031 11.1991C14.0008 11.0209 14.081 11.2434 14.1655 11.2255C14.2496 11.2077 14.2056 11.1634 14.1655 11.0253C14.1253 10.8873 14.2908 10.8464 14.3968 10.9451C14.4636 11.0076 14.4946 10.8695 14.5925 10.8873C14.6905 10.9052 14.7484 10.9719 14.6905 11.0699C14.646 11.1455 14.6147 11.3234 14.6996 11.2301C14.7838 11.1366 14.8685 11.0788 14.9485 11.1413C15.0287 11.2033 14.9753 11.3323 14.9532 11.399C14.9308 11.466 15.0957 11.5462 14.9797 11.626C14.8641 11.706 14.7348 11.5684 14.6684 11.5861C14.6016 11.6041 14.5881 11.6841 14.6772 11.7463C14.7353 11.7869 14.7961 11.8187 14.8409 11.8367C15.0263 11.7737 15.2431 11.6521 15.3135 11.6082L15.4292 11.6173C15.4381 11.466 15.4292 11.368 15.3758 11.3412H15.3758ZM14.7171 13.2992C14.646 13.139 14.6211 13.262 14.4235 13.5752C14.3235 13.7334 14.071 14.0268 13.7549 14.3584C13.974 14.4027 14.4459 14.5187 14.1655 14.75C13.8627 14.9989 13.9964 14.9812 14.1298 14.9632C14.2635 14.9452 14.486 15.0255 14.3166 15.3283C14.1478 15.631 14.0318 15.8442 13.8716 15.9424C13.7114 16.0401 13.4802 16.0313 13.4268 15.7999C13.3734 15.5685 13.2218 15.7999 13.2131 15.9513C13.204 16.1024 13.1863 16.3606 13.204 16.4497L12.8661 16.4318C12.8572 16.2892 12.8572 16.0044 12.8838 15.871C12.9106 15.7379 12.9018 15.5774 12.697 15.6396C12.5633 15.6805 12.4717 15.646 12.4242 15.6187C12.0264 15.9727 11.8253 16.2171 11.6904 16.4328C11.7926 16.5233 11.9546 16.5915 12.1274 16.5209C12.323 16.4406 12.6438 16.5386 12.4478 16.8414C12.2519 17.1434 12.261 17.2948 12.4565 17.108C12.6524 16.9211 12.967 16.5999 13.062 16.9391C13.124 17.1614 12.9195 17.2325 12.9283 17.4107C12.9372 17.5887 13.1154 17.7667 12.8661 17.9803C12.617 18.1937 12.5101 17.8287 12.341 17.8824C12.2391 17.9148 12.2184 18.0086 12.2241 18.0918C12.4456 18.4052 12.7681 18.8483 12.8838 19.0388C13.062 19.3329 13.062 19.6891 13.1329 19.6355C13.204 19.5818 13.3734 19.4216 13.4268 19.3775C13.4802 19.3329 13.5334 19.2795 13.5068 19.1816C13.4802 19.0838 13.3778 18.5588 13.4091 18.1937C13.4445 17.7755 13.6402 17.3172 13.7827 17.0548C13.9196 16.8022 14.3344 15.9956 14.4323 15.7819C14.5303 15.5685 14.7083 15.3194 14.7528 15.1235C14.7971 14.9275 14.9663 14.4739 15.0376 14.2602C15.0199 14.0822 14.905 13.7221 14.7171 13.2992V13.2992ZM16.052 11.3145C15.9986 11.457 15.9277 11.635 15.892 11.7241C15.8563 11.8132 15.6924 11.7785 15.7049 11.715C15.7317 11.5816 15.5415 11.6699 15.5626 11.5638C15.5804 11.4747 15.5449 11.3322 15.6426 11.3322C15.7406 11.3322 15.9277 11.3145 16.052 11.3145Z" fill="#BB9753"/>
<path d="M15.7544 4.87166C15.7711 4.82833 15.7854 4.78083 15.8039 4.74268C15.7413 4.7753 15.6791 4.8087 15.6173 4.84286C15.6567 4.89849 15.7101 4.98661 15.7544 4.87166ZM16.3465 16.7433C16.186 16.7521 15.9901 16.7076 15.9901 16.7076C15.9723 16.8767 15.8081 17.1189 15.6432 17.3663C15.6253 17.3931 15.5275 17.3931 15.4827 17.3572C15.4387 17.3217 15.3141 17.2592 15.4116 17.1524C15.5098 17.0461 15.6698 16.8233 15.6432 16.7256C15.6164 16.6276 15.5455 16.5387 15.4387 16.6721C15.3318 16.8056 15.1627 17.0815 14.9759 17.0906C14.7886 17.0992 14.6022 16.9301 14.6909 16.761C14.78 16.5921 14.8066 16.503 14.682 16.3514C14.5574 16.2003 14.604 16.0068 14.8691 15.8889C14.9491 15.8534 15.0913 15.8889 15.1893 15.9689C15.287 16.0491 15.3407 15.9689 15.207 15.8889C15.0734 15.8089 14.9668 15.7109 14.9491 15.5329C14.9321 15.3638 15.0382 15.1861 15.2696 15.2838C15.5007 15.3816 15.6432 15.3016 15.7412 15.2216C15.8389 15.1413 16.2564 15.0414 16.1951 15.4086C16.1503 15.6752 16.0262 15.6843 15.9901 15.8266C15.9549 15.9689 16.0612 15.88 16.1237 15.7734C16.186 15.6664 16.3285 15.2294 16.6219 15.5595C16.6933 15.6398 16.6667 15.7734 16.5774 15.9246C16.4885 16.076 16.5597 16.1648 16.6131 16.2448C16.6667 16.3251 16.7905 16.7184 16.3465 16.7433V16.7433ZM15.4387 18.8437C15.2248 18.9057 15.1893 18.808 15.0468 18.7546C14.9045 18.7014 14.8954 18.8255 14.9934 18.9769C15.0913 19.1283 15.1982 19.2708 15.0825 19.2708C14.9668 19.2708 14.8777 19.2885 14.86 19.3776C14.8422 19.4665 14.6554 19.3599 14.6109 19.1728C14.5663 18.9855 14.522 18.6301 14.4238 18.808C14.3261 18.9855 14.237 19.2797 13.9878 19.1462C13.7387 19.0128 13.9078 18.8346 13.783 18.7098C13.6587 18.5853 13.543 18.4253 13.6676 18.2027C13.7922 17.9802 13.899 18.167 14.0147 18.167C14.1304 18.167 14.1481 18.0605 14.0415 17.9802C13.9344 17.9002 13.801 17.5177 14.2904 17.5443C14.4792 17.5546 14.682 17.4909 14.8422 17.3752C15.0022 17.2592 15.4207 17.3217 15.2516 17.6157C15.0825 17.9091 15.1359 17.9713 15.2336 17.8648C15.3318 17.7574 15.4562 17.5622 15.6432 17.6157C15.8301 17.6688 15.7501 17.8111 15.6344 17.9713C15.5187 18.1318 15.5898 18.2384 15.6787 18.3005C15.7678 18.363 15.9315 18.6995 15.4387 18.8437V18.8437ZM18.5978 17.2504C18.3664 16.8681 18.3219 16.7167 18.2862 16.3251C18.2638 16.0779 18.284 15.7567 18.3197 15.448C18.2512 15.4426 18.1582 15.4557 18.153 15.5595C18.1441 15.7289 18.0639 15.9689 18.0105 16.0934C17.9571 16.2185 17.7791 16.2091 17.6723 16.2185C17.5654 16.2273 17.5654 16.156 17.6368 15.9957C17.7077 15.8355 17.7345 15.7643 17.7166 15.6221C17.6986 15.4795 17.628 15.6043 17.5654 15.7289C17.5029 15.8534 17.3252 16.1023 17.1204 16.076C16.9158 16.0491 16.969 15.738 16.987 15.6309C17.0047 15.5241 16.9427 15.5064 16.8627 15.4884C16.7824 15.4709 16.6219 15.435 16.7113 15.177C16.8001 14.9188 16.8981 14.9454 17.0224 14.9899C17.147 15.0345 17.165 14.9545 17.049 14.9102C16.9333 14.8659 16.809 14.7677 16.8179 14.6431C16.8413 14.3135 17.049 14.3406 17.2095 14.376C17.3488 14.4068 17.5246 14.3231 17.644 14.1956C17.6415 14.1875 17.6385 14.1793 17.6368 14.171C17.3993 13.2654 17.85 12.151 17.9745 11.8397C18.0993 11.5283 18.5798 10.6517 18.7445 10.3891C18.6556 10.3445 18.4198 10.2246 18.2906 10.1577C18.1619 10.0912 18.0905 10.06 18.0548 10.1089C18.0191 10.1577 17.9745 10.1843 17.9125 10.2734C17.7875 10.4518 17.8948 10.4248 17.9302 10.4248C17.9659 10.4248 18.1171 10.6205 18.1441 10.6653C18.1707 10.7096 18.1441 10.745 18.0816 10.8873C17.9999 11.0736 17.9482 11.5017 17.8771 11.7597C17.6614 12.5412 17.3252 12.4627 17.1738 12.3649C17.0224 12.2667 16.9781 12.4184 16.8267 12.6318C16.7905 12.6825 16.7 12.7797 16.5803 12.9001C16.7253 12.9648 16.9215 13.1514 16.6845 13.3348C16.4085 13.5485 16.3549 13.6641 16.4885 13.6373C16.6219 13.6107 16.7556 13.4059 16.907 13.5485C17.0584 13.691 16.8536 13.851 16.7733 13.8955C16.6933 13.9401 16.5328 14.0201 16.5774 14.1892C16.6219 14.3581 16.6488 14.5897 16.426 14.6431C16.2037 14.6965 16.1149 14.5985 16.0526 14.4829C15.9901 14.3672 15.928 14.4472 15.9012 14.5897C15.8746 14.732 15.8569 14.8388 15.8569 14.8922C15.8569 14.9454 15.6966 14.8659 15.6253 14.7945C15.5541 14.7231 15.4653 14.9188 15.3848 14.8211C15.3053 14.7231 15.4827 14.4203 15.5455 14.3137C15.6041 14.2131 15.5795 14.0735 15.2257 14.2372C15.1113 14.4289 15.0205 14.7069 14.8777 15.1413C14.682 15.738 14.2387 16.5501 14.0546 16.8457C13.5753 17.6161 13.4896 18.3453 13.561 18.7992C13.6317 19.2506 13.6942 19.2171 13.7922 19.2171C13.8901 19.2171 14.1304 19.5197 14.2904 19.707C14.4506 19.8938 14.5131 19.8136 14.5931 19.751C14.8504 19.5512 15.367 19.2171 16.0969 18.8703C16.4083 18.7224 16.8228 18.5646 17.2272 18.4351C17.2334 18.2675 17.2745 18.0654 17.2893 17.9893C17.307 17.9002 17.2184 17.8734 17.1295 17.9893C17.0399 18.1048 16.8001 18.3896 16.6397 18.3184C16.4797 18.2473 16.3465 18.0693 16.4351 17.9179C16.524 17.7668 16.3999 17.7222 16.3374 17.6422C16.2749 17.5622 16.2749 17.2504 16.4708 17.2235C16.6667 17.1972 16.7288 17.3663 16.8627 17.4109C16.9961 17.4554 17.1027 17.4461 16.9333 17.2592C16.7645 17.0726 16.5597 17.1435 16.6667 16.8858C16.7733 16.6276 16.9247 16.6456 17.1027 16.6987C17.2806 16.7521 17.3695 16.6544 17.4854 16.5742C17.6011 16.4939 17.8323 16.3873 17.9925 16.5742C18.153 16.761 17.8771 16.9301 17.8145 16.9926C17.6944 17.1128 17.6723 17.3395 17.8054 17.2061C17.9393 17.0726 18.167 16.5897 18.3219 16.9926C18.411 17.2235 18.2416 17.3126 18.2687 17.4554C18.295 17.5974 18.5358 17.7934 18.3396 17.9713C18.1441 18.1496 17.868 17.9984 17.7523 17.8913C17.6368 17.7845 17.512 17.7313 17.5654 17.9273C17.6046 18.0713 17.6245 18.2229 17.625 18.3165C18.0144 18.2086 18.3536 18.1432 18.5262 18.1584C18.7804 18.1811 18.9715 18.2562 18.9626 18.0248C18.9537 17.7934 18.8292 17.6331 18.5978 17.2504V17.2504ZM13.3241 24.3517C13.285 24.3517 13.2001 24.3379 13.2001 24.3017L13.0974 24.2904C13.1595 24.303 13.2161 24.3741 13.1506 24.4187C13.0795 24.4684 12.8525 24.4952 12.6128 24.4812C12.3725 24.4684 12.3139 24.3379 12.3097 24.2434C12.3068 24.1809 12.3139 24.1262 12.3139 24.0361C12.3139 23.9465 12.2925 23.8653 12.3457 23.8294C12.3986 23.7937 12.3856 23.883 12.4208 23.883C12.5726 23.883 13.0974 23.9328 13.2222 23.951C13.3475 23.9684 13.3387 23.8941 13.3108 23.8107C13.3025 23.7836 13.2673 23.7937 13.254 23.8294C13.2402 23.8653 13.1245 23.852 13.1245 23.852C13.1245 23.852 12.8931 23.8294 12.7427 23.82C12.5909 23.8107 12.4742 23.7937 12.3816 23.7755C12.2876 23.7568 12.1714 23.7619 12.1812 23.807C12.1886 23.852 12.2162 24.414 12.2214 24.4952C12.2253 24.576 12.23 24.608 12.2699 24.608C12.3725 24.608 13.063 24.6168 13.2222 24.6168C13.3827 24.6168 13.3744 24.5986 13.378 24.509C13.3827 24.4187 13.3652 24.3517 13.3241 24.3517" fill="#BB9753"/>
</svg>
