<svg width="32" height="32" viewBox="0 0 32 32" fill="none" xmlns="http://www.w3.org/2000/svg">
<path d="M21.4936 9.7835C21.1423 9.74727 20.3907 9.94344 19.2271 10.4327C17.4904 11.1626 15.4374 12.7039 14.1308 14.1066C12.7301 15.6109 9.94795 19.0883 9.98537 20.7053C9.98537 20.762 10.0275 20.9735 10.2607 21.0641L10.3631 21.096C11.2096 21.2914 12.3972 21.1606 14.9836 20.3555C14.9836 20.3555 18.9333 19.1588 23.8437 17.0053L25.2578 16.2187L24.5334 19.8721L24.4487 19.9454C20.8083 23.1073 15.175 26.0797 10.4057 26.303C9.30314 26.3542 8.01545 26.2979 6.88101 25.8445C5.38655 25.2485 4.46482 24.3402 4.06149 23.2054C3.89999 22.878 2.52917 19.7248 6.36542 14.9098L3.86728 15.5274L5.8758 12.4183C9.94206 9.05481 21.9112 2.07363 27.501 7.39017L27.9359 7.83253V9.61216C27.9359 9.61216 19.0223 14.8117 19.0688 14.7286C19.1491 14.5817 21.0111 10.9081 21.0111 10.9081C21.2416 10.4559 21.3987 10.0844 21.4936 9.7835" fill="#FCB61A"/>
<path d="M21.4936 9.7835C21.1423 9.74727 20.3907 9.94344 19.2271 10.4327C17.4904 11.1626 15.4374 12.7039 14.1308 14.1066C12.7301 15.6109 9.94795 19.0883 9.98537 20.7053C9.98537 20.762 10.0275 20.9735 10.2607 21.0641L10.3631 21.096C11.2096 21.2914 12.3972 21.1606 14.9836 20.3555C14.9836 20.3555 18.9333 19.1588 23.8437 17.0053L25.2578 16.2187L24.5334 19.8721L24.4487 19.9454C20.8083 23.1073 15.175 26.0797 10.4057 26.303C9.30314 26.3542 8.01545 26.2979 6.88101 25.8445C5.38655 25.2485 4.46482 24.3402 4.06149 23.2054C3.89999 22.878 2.52917 19.7248 6.36542 14.9098L3.86728 15.5274L5.8758 12.4183C9.94206 9.05481 21.9112 2.07363 27.501 7.39017L27.9359 7.83253V9.61216C27.9359 9.61216 19.0223 14.8117 19.0688 14.7286C19.1491 14.5817 21.0111 10.9081 21.0111 10.9081C21.2416 10.4559 21.3987 10.0844 21.4936 9.7835" stroke="white" stroke-width="0.5" stroke-linecap="round"/>
<path d="M21.7978 9.18421C21.2247 8.99991 20.188 9.32248 18.9767 9.83378C17.1395 10.6058 15.0113 12.2055 13.6547 13.6625C12.3359 15.081 9.28751 18.7789 9.33478 20.7212C9.33789 20.8032 9.34341 20.884 9.35524 20.9619C9.06141 20.7185 8.88253 20.3644 8.86839 19.8543C8.8223 17.9123 11.8691 14.2155 13.1867 12.7986C14.5445 11.3413 16.6743 9.74199 18.5099 8.96838C20.4109 8.16678 21.881 7.82527 21.7978 9.18421V9.18421ZM27.3402 8.12158L27.3543 9.26903L20.6158 13.3459C20.6875 13.2727 21.4478 11.8034 21.4939 11.6986L27.3402 8.12158ZM7.47167 13.9709C6.75871 14.1423 6.03747 14.3207 5.3954 14.479C5.48445 14.3597 6.14539 13.451 6.29666 13.254C7.08407 13.0697 7.89197 12.888 8.62344 12.7183C8.26893 13.0708 7.87501 13.4939 7.47167 13.9709V13.9709ZM24.0239 19.454C20.4457 22.5615 14.9476 25.4385 10.376 25.6548C9.30496 25.7036 8.1284 25.6414 7.12431 25.238C5.75236 24.6913 4.99214 23.898 4.66797 22.968C5.09021 23.5265 5.73502 24.0043 6.65636 24.3746C7.66318 24.7736 8.83979 24.8382 9.9108 24.7862C14.844 24.5574 20.853 21.2253 24.3666 17.8488L24.0239 19.454V19.454Z" fill="#000840"/>
<path d="M27.0458 7.85816L21.5899 11.2036C23.9324 6.61425 19.7137 7.69119 16.8957 9.3499C15.2929 10.1921 13.4558 11.8969 12.8795 12.5109C8.19127 17.5029 4.90766 24.1744 15.1732 20.9791C15.1732 20.9791 19.1634 19.771 24.1167 17.5935C10.095 29.4385 -3.13973 24.4852 9.88305 12.0324C8.69781 12.3034 7.50117 12.561 6.33045 12.8883C10.5003 9.43774 21.9397 3.00019 27.0458 7.85816" fill="#690031"/>
</svg>
