<svg width="33" height="33" viewBox="0 0 33 33" fill="none" xmlns="http://www.w3.org/2000/svg">
<g clip-path="url(#clip0_114_841)">
<path d="M16.5524 0.334238C13.4625 0.388172 10.458 1.35359 7.91867 3.1084C5.37938 4.86321 3.4194 7.32861 2.28659 10.1928C1.15378 13.057 0.899011 16.1914 1.55451 19.1996C2.21001 22.2078 3.74633 24.9547 5.96919 27.093C8.19205 29.2312 11.0016 30.6647 14.0426 31.2123C17.0836 31.7599 20.2194 31.3969 23.0535 30.1692C25.8877 28.9415 28.2928 26.9043 29.9648 24.3152C31.6367 21.7261 32.5005 18.7013 32.4467 15.6235C32.3702 11.4977 30.6538 7.57076 27.674 4.70442C24.6942 1.83808 20.6945 0.266401 16.5524 0.334238V0.334238ZM15.1681 20.4044L16.872 18.6468L23.7689 25.281C22.1857 26.4498 20.3307 27.1994 18.3777 27.4598C17.9273 24.8744 16.8227 22.4461 15.1681 20.4044V20.4044ZM18.48 11.388L16.776 13.1456L9.88051 6.51133C11.4628 5.34265 13.3168 4.59302 15.2691 4.33263C15.7207 6.91788 16.8257 9.34593 18.48 11.388V11.388ZM14.0627 15.9444L12.3588 17.702C10.2523 16.1265 7.77764 15.1112 5.16811 14.7518C5.36095 12.7992 6.04836 10.9272 7.16593 9.31142L14.0627 15.9444ZM19.5854 15.848L21.2893 14.0903C23.3958 15.6659 25.8704 16.6812 28.48 17.0405C28.2869 18.9935 27.5995 20.8658 26.4822 22.4822L19.5854 15.848ZM28.1785 13.0491C26.0414 12.5928 24.0755 11.5494 22.5035 10.037C20.9315 8.52461 19.8163 6.60376 19.2843 4.49215C21.419 4.95342 23.3823 5.99857 24.9535 7.51016C26.5247 9.02175 27.6415 10.9399 28.1785 13.0491V13.0491ZM5.46959 18.7433C7.60642 19.1996 9.57217 20.2429 11.1441 21.755C12.7161 23.2671 13.8314 25.1876 14.3638 27.2989C12.229 26.8382 10.2656 25.7933 8.69437 24.2819C7.12314 22.7705 6.00636 20.8524 5.46959 18.7433V18.7433Z" fill="#353535"/>
</g>
<g clip-path="url(#clip1_114_841)">
<path d="M15.5163 1.84702C12.4882 1.89987 9.54376 2.84598 7.05526 4.5657C4.56675 6.28541 2.64597 8.7015 1.53582 11.5084C0.425661 14.3154 0.175992 17.3871 0.818379 20.3351C1.46077 23.2831 2.96636 25.9751 5.14477 28.0706C7.32317 30.166 10.0766 31.5709 13.0567 32.1075C16.0369 32.6441 19.11 32.2884 21.8874 31.0853C24.6649 29.8821 27.0219 27.8857 28.6604 25.3484C30.299 22.811 31.1454 19.8468 31.0928 16.8305C31.0178 12.7872 29.3357 8.9388 26.4155 6.12979C23.4953 3.32078 19.5756 1.78054 15.5163 1.84702V1.84702ZM14.1597 21.5158L15.8296 19.7933L22.5884 26.2949C21.0369 27.4402 19.2191 28.1749 17.3051 28.43C16.8637 25.8963 15.7812 23.5166 14.1597 21.5158V21.5158ZM17.4054 12.6797L15.7355 14.4022L8.97786 7.90056C10.5285 6.75526 12.3455 6.02062 14.2587 5.76544C14.7013 8.29898 15.7842 10.6785 17.4054 12.6797V12.6797ZM13.0764 17.145L11.4065 18.8674C9.34217 17.3234 6.91705 16.3284 4.35971 15.9762C4.54869 14.0627 5.22236 12.2281 6.31757 10.6447L13.0764 17.145ZM18.4886 17.0505L20.1585 15.328C22.2229 16.872 24.648 17.867 27.2053 18.2192C27.0161 20.1331 26.3425 21.968 25.2475 23.5521L18.4886 17.0505ZM26.9099 14.3075C24.8156 13.8604 22.8889 12.8379 21.3484 11.3557C19.8078 9.87358 18.7149 7.99114 18.1935 5.92177C20.2856 6.37382 22.2096 7.39806 23.7494 8.87942C25.2891 10.3608 26.3836 12.2406 26.9099 14.3075V14.3075ZM4.65516 19.8879C6.74925 20.3351 8.67569 21.3575 10.2162 22.8394C11.7567 24.3212 12.8498 26.2033 13.3715 28.2724C11.2794 27.8209 9.35525 26.7969 7.81544 25.3158C6.27564 23.8346 5.1812 21.9548 4.65516 19.8879V19.8879Z" fill="#F7F7F7"/>
</g>
<defs>
<clipPath id="clip0_114_841">
<rect width="31.2502" height="31.1286" fill="white" transform="translate(0.929688 0.606934) rotate(-1)"/>
</clipPath>
<clipPath id="clip1_114_841">
<rect width="30.6252" height="30.5061" fill="white" transform="translate(0.206055 2.11426) rotate(-1)"/>
</clipPath>
</defs>
</svg>
