<svg width="60" height="60" viewBox="0 0 60 60" fill="none" xmlns="http://www.w3.org/2000/svg">
<rect width="60" height="60" fill="white"/>
<path d="M0 60V30V0H30H60V30V60H39C51.4 52 58.1667 36.6667 60 30C58 14.4 39.1667 3.5 30 0C14.8 1.2 3.66667 20.5 0 30C2.33333 38 11.141 55.2 21.141 60H0Z" fill="#823C9A"/>
<path d="M30.0002 0C13.4337 0 0 13.7712 0 30.7595C0 44.3499 8.59598 55.8799 20.516 59.9471C22.0153 60.2319 22.5658 59.2799 22.5658 58.4674C22.5658 57.7339 22.5379 55.3109 22.525 52.7406C14.1789 54.6013 12.4178 49.1114 12.4178 49.1114C11.0531 45.5561 9.08681 44.6107 9.08681 44.6107C6.36489 42.7016 9.29199 42.7408 9.29199 42.7408C12.3045 42.9578 13.8908 45.9106 13.8908 45.9106C16.5665 50.613 20.909 49.2535 22.6209 48.4676C22.8902 46.4795 23.6676 45.1226 24.5256 44.3545C17.8621 43.5767 10.8574 40.9392 10.8574 29.153C10.8574 25.7947 12.0293 23.0508 13.9484 20.8967C13.6369 20.1219 12.6101 16.9934 14.239 12.7565C14.239 12.7565 16.7583 11.9298 22.4912 15.9095C24.8843 15.228 27.4507 14.8862 30.0002 14.8745C32.5498 14.8862 35.1182 15.228 37.5157 15.9095C43.2417 11.9298 45.7575 12.7565 45.7575 12.7565C47.3904 16.9934 46.3631 20.1219 46.0516 20.8967C47.9752 23.0508 49.1391 25.7947 49.1391 29.153C49.1391 40.9672 42.121 43.5685 35.4406 44.33C36.5167 45.2846 37.4755 47.1565 37.4755 50.0262C37.4755 54.1419 37.4407 57.4543 37.4407 58.4674C37.4407 59.286 37.9807 60.2451 39.5014 59.9431C51.4149 55.8712 60 44.3453 60 30.7595C60 13.7712 46.5682 0 30.0002 0Z" fill="#823C9A"/>
<path d="M11.4514 43.953C11.3854 44.1043 11.1514 44.1497 10.9381 44.0458C10.721 43.9464 10.599 43.7401 10.6694 43.5883C10.7338 43.4325 10.9684 43.3891 11.1851 43.4935C11.4028 43.5929 11.5267 43.8012 11.4514 43.953" fill="#823C9A"/>
<path d="M12.6642 45.3289C12.5214 45.4635 12.2423 45.401 12.0528 45.1882C11.857 44.9758 11.8203 44.6919 11.9651 44.5552C12.1123 44.4205 12.3831 44.4836 12.5794 44.6959C12.7753 44.9108 12.8135 45.1927 12.6642 45.3289" fill="#823C9A"/>
<path d="M13.8441 47.0828C13.6607 47.2124 13.3607 47.0909 13.1752 46.82C12.9917 46.5492 12.9917 46.2244 13.1792 46.0943C13.3651 45.9642 13.6607 46.0812 13.8486 46.35C14.0316 46.6254 14.0316 46.9502 13.8441 47.0828" fill="#823C9A"/>
<path d="M15.462 48.7774C15.2978 48.9615 14.9482 48.9121 14.6924 48.6609C14.4306 48.4153 14.3577 48.0668 14.5223 47.8827C14.6884 47.6981 15.04 47.7501 15.2978 47.9992C15.5577 48.2443 15.637 48.5953 15.462 48.7774" fill="#823C9A"/>
<path d="M17.6935 49.7614C17.6211 50 17.2844 50.1084 16.9452 50.007C16.6065 49.9026 16.3849 49.6232 16.4533 49.3821C16.5237 49.1421 16.8619 49.0291 17.2036 49.1375C17.5418 49.2414 17.7639 49.5188 17.6935 49.7614" fill="#823C9A"/>
<path d="M20.1442 49.944C20.1526 50.1952 19.865 50.4035 19.509 50.408C19.151 50.4161 18.8614 50.2128 18.8574 49.9657C18.8574 49.712 19.1386 49.5057 19.4966 49.4997C19.8526 49.4926 20.1442 49.6944 20.1442 49.944" fill="#823C9A"/>
<path d="M22.4247 49.5489C22.4673 49.794 22.2199 50.0457 21.8663 50.1128C21.5187 50.1773 21.1969 50.026 21.1528 49.7829C21.1096 49.5318 21.3615 49.2801 21.7086 49.215C22.0627 49.1525 22.3795 49.2998 22.4247 49.5489" fill="#823C9A"/>
</svg>
