<svg width="60" height="60" viewBox="0 0 60 60" fill="none" xmlns="http://www.w3.org/2000/svg">
<rect width="60" height="60" fill="#C55402"/>
<path d="M38.92 20C37.86 20 37 20.859 37 21.9194C37 22.9794 37.86 23.8394 38.92 23.8394C39.98 23.8394 40.84 22.9794 40.84 21.9194C40.84 20.8593 39.98 20 38.92 20Z" fill="white"/>
<path d="M23.5 30.2168C23.5 26.5076 26.5073 23.5002 30.2164 23.5H30.2168C33.9256 23.5002 36.9322 26.5073 36.9322 30.2168C36.9322 33.926 33.9261 36.9318 30.2168 36.9318C26.5071 36.9318 23.5 33.9256 23.5 30.2168Z" stroke="white" stroke-width="3"/>
<path d="M20.0644 16.238L20.0637 16.2383C19.1911 16.5772 18.4787 17.0138 17.7472 17.7455L17.7466 17.7461C17.0147 18.4775 16.5777 19.1902 16.2373 20.0638L16.2373 20.0638C15.9073 20.9103 15.6651 21.9094 15.5948 23.4695L20.0644 16.238ZM20.0644 16.238C20.9111 15.9087 21.9106 15.6667 23.4723 15.5951L20.0644 16.238ZM17.7458 42.2528L17.7466 42.2536C18.4783 42.9861 19.1909 43.4237 20.062 43.7622L20.0621 43.7622C20.9097 44.0916 21.9096 44.3337 23.471 44.4052C25.1437 44.4813 25.6622 44.5003 29.9995 44.5003C34.3371 44.5003 34.8545 44.4813 36.527 44.4052C38.089 44.3337 39.09 44.0916 39.9375 43.7622L39.9378 43.7621C40.8085 43.4239 41.5199 42.9865 42.252 42.2536L42.253 42.2526C42.9845 41.5217 43.4213 40.8094 43.7617 39.9367C44.0894 39.0881 44.3314 38.0872 44.4049 36.5279C44.48 34.855 44.5 34.3361 44.5 30.0002C44.5 25.6644 44.48 25.144 44.4049 23.4713C44.3315 21.9112 44.0894 20.9106 43.7617 20.0624C43.4214 19.1893 42.9845 18.477 42.253 17.7461L42.2526 17.7457C41.5195 17.0126 40.8095 16.5765 39.9378 16.2386L39.9375 16.2385C39.0872 15.9087 38.0865 15.6667 36.525 15.5951L17.7458 42.2528ZM17.7458 42.2528C17.0141 41.5214 16.5774 40.8089 16.2382 39.936L17.7458 42.2528ZM23.4727 15.5951C25.1445 15.519 25.6638 15.5 29.9965 15.5L23.4727 15.5951ZM30.0015 15.5C34.3355 15.5 34.8528 15.519 36.5246 15.5951L30.0015 15.5ZM15.5 30.0002C15.5 25.6637 15.52 25.1434 15.5948 23.4699L15.5951 36.5276C15.5193 34.8548 15.5 34.3371 15.5 30.0002ZM16.2381 39.9359C15.909 39.089 15.667 38.0894 15.5951 36.528L16.2381 39.9359Z" stroke="white" stroke-width="3"/>
</svg>
