<svg width="60" height="60" viewBox="0 0 60 60" fill="none" xmlns="http://www.w3.org/2000/svg">
<rect width="60" height="60" fill="#FF9900"/>
<path d="M30.0015 14C25.6561 14 25.1108 14.019 23.4041 14.0967C21.7007 14.1747 20.5381 14.4443 19.5207 14.84C18.4684 15.2487 17.5757 15.7954 16.6864 16.685C15.7964 17.5744 15.2497 18.467 14.8397 19.5191C14.443 20.5367 14.173 21.6997 14.0963 23.4024C14.02 25.1091 14 25.6548 14 30.0002C14 34.3455 14.0193 34.8892 14.0967 36.5959C14.175 38.2993 14.4447 39.4619 14.84 40.4793C15.249 41.5316 15.7957 42.4243 16.6854 43.3136C17.5744 44.2036 18.467 44.7517 19.5187 45.1603C20.5367 45.556 21.6997 45.8257 23.4028 45.9037C25.1094 45.9813 25.6545 46.0003 29.9995 46.0003C34.3452 46.0003 34.8889 45.9813 36.5956 45.9037C38.2989 45.8257 39.4629 45.556 40.4809 45.1603C41.533 44.7517 42.4243 44.2036 43.3133 43.3136C44.2033 42.4243 44.75 41.5316 45.16 40.4796C45.5533 39.4619 45.8233 38.2989 45.9033 36.5962C45.98 34.8896 46 34.3455 46 30.0002C46 25.6548 45.98 25.1094 45.9033 23.4028C45.8233 21.6994 45.5533 20.5367 45.16 19.5194C44.75 18.467 44.2033 17.5744 43.3133 16.685C42.4233 15.795 41.5333 15.2483 40.4799 14.84C39.4599 14.4443 38.2966 14.1747 36.5932 14.0967C34.8866 14.019 34.3432 14 29.9965 14H30.0015Z" fill="white"/>
<path d="M28.5657 16.8833C28.9917 16.8826 29.4671 16.8833 30.0011 16.8833C34.2731 16.8833 34.7795 16.8986 36.4665 16.9753C38.0265 17.0466 38.8732 17.3073 39.4372 17.5263C40.1839 17.8163 40.7162 18.163 41.2759 18.723C41.8359 19.283 42.1825 19.8163 42.4732 20.563C42.6922 21.1263 42.9532 21.973 43.0242 23.533C43.1009 25.2197 43.1175 25.7264 43.1175 29.9964C43.1175 34.2665 43.1009 34.7731 43.0242 36.4598C42.9529 38.0198 42.6922 38.8665 42.4732 39.4298C42.1832 40.1765 41.8359 40.7082 41.2759 41.2679C40.7159 41.8279 40.1842 42.1745 39.4372 42.4645C38.8738 42.6845 38.0265 42.9445 36.4665 43.0159C34.7798 43.0925 34.2731 43.1092 30.0011 43.1092C25.7287 43.1092 25.2224 43.0925 23.5357 43.0159C21.9757 42.9439 21.129 42.6832 20.5646 42.4642C19.818 42.1742 19.2846 41.8275 18.7246 41.2675C18.1646 40.7075 17.818 40.1755 17.5273 39.4285C17.3083 38.8652 17.0473 38.0185 16.9763 36.4585C16.8996 34.7718 16.8843 34.2651 16.8843 29.9924C16.8843 25.7197 16.8996 25.2157 16.9763 23.529C17.0476 21.969 17.3083 21.1223 17.5273 20.5583C17.8173 19.8116 18.1646 19.2783 18.7246 18.7183C19.2846 18.1583 19.818 17.8116 20.5646 17.5209C21.1287 17.3009 21.9757 17.0409 23.5357 16.9693C25.0117 16.9026 25.5837 16.8826 28.5657 16.8793V16.8833Z" fill="#FF9900"/>
<path d="M38.5421 19.5401C37.4821 19.5401 36.6221 20.3991 36.6221 21.4594C36.6221 22.5195 37.4821 23.3795 38.5421 23.3795C39.6021 23.3795 40.4621 22.5195 40.4621 21.4594C40.4621 20.3994 39.6021 19.5394 38.5421 19.5394V19.5401Z" fill="white"/>
<path d="M30.0019 21.7833C25.4642 21.7833 21.7852 25.4624 21.7852 30.0001C21.7852 34.5378 25.4642 38.2152 30.0019 38.2152C34.5396 38.2152 38.2173 34.5378 38.2173 30.0001C38.2173 25.4624 34.5393 21.7833 30.0016 21.7833H30.0019Z" fill="white"/>
<path d="M30.0018 24.6669C32.9472 24.6669 35.3352 27.0546 35.3352 30.0003C35.3352 32.9456 32.9472 35.3336 30.0018 35.3336C27.0561 35.3336 24.6685 32.9456 24.6685 30.0003C24.6685 27.0546 27.0561 24.6669 30.0018 24.6669V24.6669Z" fill="#FF9900"/>
</svg>
