<svg width="32" height="32" viewBox="0 0 32 32" fill="none" xmlns="http://www.w3.org/2000/svg">
<path d="M16.4911 21.3746L18.5147 18.9222L19.2147 18.0756L18.5684 15.4143L17.5043 16.4472C17.3666 16.5803 17.1923 16.6692 17.0037 16.7024C16.815 16.7356 16.6208 16.7116 16.4459 16.6335L12.2604 14.7483L12.6809 13.484L16.2935 14.2883L17.7047 12.1237C17.8982 11.7823 18.121 11.4584 18.3708 11.1558C18.9748 10.5208 19.83 10.4333 20.6597 10.3994C22.0038 10.3295 23.348 10.533 24.6111 10.9977C25.4621 11.3235 26.245 11.8048 26.9198 12.4172C27.5664 12.999 28.1161 13.6802 28.5483 14.4351C28.5483 14.4351 27.4193 15.1491 27.4193 15.1462L27.3996 15.1237C26.9505 14.6266 26.4279 14.2011 25.8501 13.8622C24.992 13.3667 24.0186 13.1059 23.0277 13.1058C22.6593 13.1034 22.2913 13.1298 21.927 13.1849L23.0559 17.8357C23.628 19.2875 24.5148 20.5945 25.6525 21.6625C26.9762 22.9353 29.0168 23.796 30.0356 24.098C29.9002 24.8007 29.6857 25.7913 29.6857 25.7913C28.2015 25.6169 26.7528 25.2162 25.39 24.6031C24.426 24.1749 23.5279 23.6114 22.7229 22.9296C22.0984 22.4123 21.5161 21.8461 20.9815 21.2364L19.1131 22.7857L20.7416 26.8439L19.2006 27.6313L16.2399 22.9776C16.1023 22.7639 16.0364 22.5119 16.0516 22.2582C16.0668 22.0045 16.1624 21.7623 16.3246 21.5665L16.4911 21.3746Z" fill="white"/>
<path d="M10.3016 22.766L9.16985 23.8977L4.46778 19.196L9.1642 14.5L10.296 15.6317L7.53005 18.3973H13.5981V19.9975H7.53005L10.3016 22.766Z" fill="white"/>
<path d="M12.7993 2.39893V3.99907H3.19762V27.9984H12.7993V29.5985H1.59734V2.39893H12.7993Z" fill="white"/>
<path d="M18.6108 9.65997C17.5056 9.65997 16.6097 8.76414 16.6097 7.65908C16.6097 6.55403 17.5056 5.6582 18.6108 5.6582C19.7159 5.6582 20.6118 6.55403 20.6118 7.65908C20.6118 8.76414 19.7159 9.65997 18.6108 9.65997Z" fill="white"/>
<path d="M18.6108 9.65997C17.5056 9.65997 16.6097 8.76414 16.6097 7.65908C16.6097 6.55403 17.5056 5.6582 18.6108 5.6582C19.7159 5.6582 20.6118 6.55403 20.6118 7.65908C20.6118 8.76414 19.7159 9.65997 18.6108 9.65997Z" fill="white"/>
</svg>
