<svg width="35" height="32" viewBox="0 0 35 32" fill="none" xmlns="http://www.w3.org/2000/svg">
<g id="letterCircle">
<g id="letters">
<path id="s" d="M9.31568 26.4277C9.42882 26.5157 9.52795 26.616 9.61305 26.7286C9.69815 26.8412 9.75336 26.9433 9.77866 27.0347L9.86398 26.9111L10.164 27.1443L9.64533 27.8304L9.38878 27.6309C9.4709 27.5005 9.48853 27.3496 9.44167 27.178C9.39273 27.0091 9.28406 26.8591 9.11565 26.7282C9.04987 26.677 8.9756 26.6446 8.89285 26.6309C8.81011 26.6172 8.74181 26.6443 8.68795 26.7122C8.63051 26.79 8.62676 26.8779 8.67671 26.9758C8.72402 27.0717 8.79857 27.2057 8.90035 27.3778C8.95707 27.4725 9.01406 27.5696 9.07134 27.6691C9.12599 27.7665 9.17019 27.8663 9.20395 27.9685C9.23301 28.0714 9.24063 28.1744 9.2268 28.2776C9.21091 28.3835 9.16153 28.4887 9.07868 28.5931C8.99789 28.695 8.89418 28.7748 8.76755 28.8325C8.63828 28.8883 8.49353 28.9045 8.3333 28.8812C8.17307 28.8579 8.00744 28.7798 7.8364 28.6468C7.76535 28.5916 7.69441 28.5174 7.62359 28.4243C7.54806 28.3318 7.49633 28.2388 7.46839 28.1453L7.37829 28.2589L7.07831 28.0256L7.62826 27.3323L7.88482 27.5318C7.80079 27.686 7.77638 27.8401 7.8116 27.9942C7.84682 28.1482 7.93548 28.2805 8.07757 28.391C8.14336 28.4422 8.21631 28.4736 8.29642 28.4852C8.37391 28.4948 8.44268 28.4617 8.50275 28.386C8.55039 28.3259 8.56766 28.2612 8.55456 28.1919C8.53938 28.1252 8.50428 28.0515 8.44924 27.9707C8.39421 27.8899 8.33438 27.799 8.26977 27.6981C8.17079 27.5494 8.0938 27.405 8.03882 27.2652C7.98121 27.1233 7.95632 26.9857 7.96415 26.8524C7.96991 26.7218 8.02147 26.5951 8.11883 26.4724C8.22654 26.3365 8.34981 26.2509 8.48866 26.2153C8.6275 26.1797 8.76978 26.1826 8.91551 26.2242C9.05861 26.2637 9.192 26.3315 9.31568 26.4277Z" fill="#F7F7F7"/>
<path id="c" d="M7.61888 24.6236C7.76337 24.7939 7.85756 24.9822 7.90145 25.1885C7.94534 25.3948 7.93091 25.6019 7.85817 25.8098C7.78327 26.0152 7.64204 26.2042 7.43447 26.3769C7.23971 26.5389 7.02731 26.6441 6.79727 26.6923C6.56466 26.7428 6.33712 26.7348 6.11466 26.6684C5.89005 26.5994 5.69471 26.4671 5.52866 26.2714C5.39064 26.1087 5.30197 25.9527 5.26264 25.8033C5.2186 25.6535 5.21493 25.5178 5.25165 25.3962C5.28364 25.2742 5.34449 25.1759 5.43418 25.1013C5.50849 25.0395 5.59453 25.0069 5.69228 25.0036C5.78532 24.9999 5.86763 25.0377 5.9392 25.1169C6.02371 25.2113 6.05396 25.3011 6.02993 25.3861C6.00334 25.4733 5.96313 25.5392 5.90932 25.584C5.88626 25.6032 5.85611 25.6218 5.81889 25.6397C5.77911 25.6598 5.73994 25.6729 5.70137 25.6789C5.66872 25.7538 5.67058 25.8281 5.70696 25.9019C5.74335 25.9757 5.77791 26.0293 5.81067 26.0628C5.92187 26.1784 6.06856 26.2276 6.25073 26.2105C6.4329 26.1934 6.63289 26.0942 6.85071 25.913C6.97884 25.8064 7.08634 25.691 7.17321 25.5667C7.25537 25.442 7.30105 25.3129 7.31026 25.1795C7.31948 25.0461 7.27381 24.915 7.17326 24.7862C7.08525 24.6773 6.9712 24.5944 6.83113 24.5375C6.69105 24.4806 6.54469 24.4549 6.39206 24.4605L6.41623 24.1413C6.62199 24.1262 6.80024 24.1405 6.95097 24.1842C7.10171 24.2279 7.23066 24.2897 7.33783 24.3696C7.4454 24.4449 7.53909 24.5296 7.61888 24.6236Z" fill="#F7F7F7"/>
<path id="r" d="M6.46103 23.6244C6.39592 23.5043 6.3209 23.4498 6.23596 23.4609C6.14807 23.4736 6.04525 23.5113 5.9275 23.5738L5.18568 23.9679C5.13269 23.9961 5.07302 24.0259 5.00667 24.0573C4.93738 24.0904 4.86876 24.1212 4.80082 24.1497C4.82917 24.195 4.86229 24.2492 4.90017 24.3121C4.93351 24.3736 4.96039 24.4197 4.9808 24.4504L4.64522 24.6287L4.54994 24.4528C4.48801 24.3385 4.41692 24.2423 4.33667 24.1641C4.25483 24.0831 4.19125 24.0357 4.14593 24.022L4.02921 23.8066C4.05548 23.7851 4.10903 23.751 4.18986 23.7043C4.26776 23.6591 4.33761 23.6201 4.39943 23.5873C4.18873 23.5483 4.02467 23.4939 3.90728 23.4241C3.78988 23.3544 3.7026 23.2668 3.64543 23.1613C3.58985 23.0587 3.57086 22.9537 3.58845 22.8462C3.60309 22.7403 3.67518 22.6529 3.8047 22.5841C3.84886 22.5606 3.90151 22.5459 3.96267 22.5398C4.02089 22.5353 4.0781 22.5464 4.1343 22.5732C4.1905 22.6 4.23924 22.6514 4.28053 22.7276C4.31229 22.7863 4.32718 22.8557 4.3252 22.936C4.32322 23.0163 4.27457 23.0875 4.17925 23.1494C4.21101 23.2081 4.26779 23.2534 4.34959 23.2854C4.42845 23.319 4.51444 23.3413 4.60755 23.3522C4.69613 23.3617 4.77315 23.3605 4.83861 23.3483L5.55836 22.966C5.59957 22.9441 5.65924 22.9143 5.73737 22.8766C5.81255 22.8404 5.88558 22.8073 5.95646 22.7772C5.92517 22.7334 5.89443 22.6837 5.86426 22.628C5.82956 22.5709 5.80427 22.5277 5.78839 22.4984L6.12398 22.3202L6.74804 23.472L6.46103 23.6244Z" fill="#F7F7F7"/>
<path id="o" d="M5.44879 20.0681C5.51505 20.2987 5.52514 20.521 5.47906 20.7348C5.43297 20.9486 5.33414 21.1358 5.18254 21.2962C5.02682 21.4544 4.82383 21.5687 4.57356 21.6392C4.30726 21.7142 4.059 21.7252 3.82878 21.6723C3.59443 21.6171 3.39648 21.5136 3.23493 21.3617C3.06926 21.2075 2.95513 21.0215 2.89255 20.8036C2.82628 20.5729 2.81665 20.3523 2.86366 20.1417C2.91066 19.931 3.01203 19.7466 3.16775 19.5885C3.32026 19.4313 3.52486 19.3165 3.78154 19.2442C4.05105 19.1683 4.3 19.1536 4.52838 19.2001C4.75676 19.2466 4.95126 19.3442 5.11189 19.4929C5.2693 19.6425 5.38161 19.8342 5.44879 20.0681ZM5.10156 20.1451C5.06154 20.0178 4.98901 19.9344 4.88398 19.8947C4.77802 19.8518 4.65559 19.8361 4.51667 19.8475C4.37776 19.8589 4.24093 19.8836 4.10617 19.9216C3.98746 19.955 3.8699 19.9985 3.7535 20.0521C3.63618 20.1024 3.53331 20.1608 3.44489 20.2273C3.35647 20.2937 3.29144 20.3692 3.2498 20.4536C3.20725 20.5349 3.20138 20.6231 3.2322 20.7183C3.2713 20.8424 3.34475 20.929 3.45255 20.9783C3.55942 21.0244 3.68324 21.0449 3.82399 21.0399C3.96061 21.0326 4.09951 21.0091 4.24069 20.9693C4.40432 20.9232 4.55968 20.8604 4.70678 20.7809C4.85387 20.7014 4.96771 20.6087 5.04829 20.5029C5.12475 20.3948 5.1425 20.2755 5.10156 20.1451Z" fill="#F7F7F7"/>
<path id="l" d="M4.78842 18.5248C4.77715 18.3852 4.73056 18.3053 4.64866 18.2851C4.56317 18.2617 4.45397 18.2553 4.32105 18.2658L2.27245 18.4279C2.21264 18.4326 2.14439 18.4364 2.06769 18.4391C1.98767 18.4421 1.91084 18.4431 1.8372 18.4423C1.84481 18.4952 1.85324 18.558 1.86246 18.6309C1.8681 18.7007 1.87406 18.7537 1.88033 18.79L1.50152 18.8199C1.48273 18.5874 1.45175 18.4109 1.40859 18.2906C1.36543 18.1703 1.3259 18.0949 1.28998 18.0643L1.26824 17.7951L4.22899 17.5609C4.27551 17.5572 4.34211 17.5536 4.42877 17.5501C4.51211 17.5469 4.59227 17.5455 4.66923 17.5461C4.65802 17.4902 4.64987 17.4306 4.64477 17.3675C4.63635 17.3046 4.63079 17.2566 4.62811 17.2234L5.00693 17.1934L5.11241 18.4992L4.78842 18.5248Z" fill="#F7F7F7"/>
<path id="l_2" d="M4.75126 16.4888C4.76285 16.3493 4.72988 16.263 4.65235 16.23C4.57177 16.1934 4.46503 16.1697 4.33213 16.159L2.28378 15.9937C2.22398 15.9889 2.156 15.9817 2.07986 15.9722C2.0004 15.9625 1.92439 15.9513 1.85185 15.9388C1.85076 15.9922 1.84883 16.0556 1.84608 16.129C1.84029 16.1987 1.83753 16.252 1.83782 16.2888L1.45905 16.2582C1.47837 16.0257 1.47652 15.8466 1.45351 15.7211C1.4305 15.5955 1.40376 15.5147 1.37329 15.4788L1.39565 15.2097L4.35603 15.4486C4.40254 15.4524 4.46886 15.4594 4.55497 15.4697C4.63775 15.4797 4.71708 15.4911 4.79295 15.5039C4.79099 15.4469 4.79264 15.3869 4.79788 15.3238C4.7998 15.2604 4.80214 15.2121 4.8049 15.1788L5.18367 15.2094L5.07521 16.5149L4.75126 16.4888Z" fill="#F7F7F7"/>
<path id="d" d="M6.42072 11.8612C6.33475 12.0417 6.21199 12.1794 6.05244 12.2741C5.89433 12.3659 5.71056 12.4107 5.50114 12.4086C5.29315 12.4034 5.07287 12.3466 4.84029 12.238C4.59563 12.1238 4.40037 11.9757 4.2545 11.7935C4.10862 11.6114 4.02144 11.4107 3.99294 11.1914C3.96445 10.9721 4.00321 10.7511 4.10924 10.5284C4.14793 10.4471 4.19138 10.3791 4.23959 10.3244C4.28622 10.2652 4.33372 10.212 4.38208 10.1647L4.08306 10.0251C4.04077 10.0054 3.98108 9.97565 3.90398 9.93598C3.82688 9.89632 3.75653 9.85797 3.69295 9.82093C3.67304 9.87049 3.64884 9.92909 3.62034 9.99671C3.59184 10.0643 3.5697 10.1147 3.55394 10.1478L3.20961 9.98707C3.30991 9.7764 3.37146 9.60833 3.39427 9.48288C3.41709 9.35742 3.42055 9.27259 3.40468 9.2284L3.52074 8.98462L6.21199 10.2408C6.25427 10.2606 6.31397 10.2903 6.39107 10.3299C6.46515 10.3682 6.53549 10.4065 6.60209 10.445C6.62041 10.391 6.64318 10.3354 6.67041 10.2782C6.69461 10.2197 6.71388 10.1753 6.7282 10.1452L7.07254 10.3059L6.66417 11.1637C6.62952 11.1512 6.59263 11.1395 6.55352 11.1286C6.51584 11.1147 6.47896 11.103 6.44287 11.0935C6.49828 11.2407 6.52205 11.3769 6.51419 11.502C6.50633 11.6271 6.47517 11.7468 6.42072 11.8612ZM6.12019 11.434C6.15744 11.3557 6.1722 11.2743 6.16445 11.1898C6.15369 11.1038 6.12591 11.0265 6.0811 10.9577L4.72189 10.3233C4.6834 10.3421 4.64227 10.3781 4.59851 10.4312C4.55173 10.483 4.51329 10.5404 4.4832 10.6036C4.42031 10.7435 4.41253 10.8723 4.45985 10.99C4.50717 11.1077 4.58789 11.2135 4.702 11.3072C4.81756 11.3979 4.94631 11.4764 5.08828 11.5427C5.21514 11.6019 5.34765 11.6454 5.48582 11.6731C5.62542 11.6978 5.75248 11.6945 5.86698 11.6634C5.97991 11.6278 6.06431 11.5513 6.12019 11.434Z" fill="#F7F7F7"/>
<path id="o_2" d="M8.20162 9.22749C8.05097 9.41432 7.87445 9.55095 7.67203 9.63737C7.46962 9.7238 7.25832 9.75221 7.03813 9.7226C6.81742 9.68834 6.60508 9.59059 6.40111 9.42935C6.18407 9.25777 6.03006 9.06379 5.93907 8.8474C5.84756 8.62634 5.81698 8.40672 5.84733 8.18852C5.87716 7.96567 5.96321 7.76601 6.10548 7.58956C6.25613 7.40272 6.43161 7.26739 6.63193 7.18357C6.83225 7.09974 7.04277 7.07496 7.26348 7.10922C7.48158 7.14142 7.69522 7.24021 7.90442 7.40558C8.12407 7.57922 8.28148 7.77165 8.37666 7.98285C8.47183 8.19405 8.50529 8.40745 8.47703 8.62305C8.44616 8.83658 8.35435 9.03806 8.20162 9.22749ZM7.93568 8.99177C8.01676 8.8859 8.04291 8.77912 8.01416 8.6714C7.98749 8.5611 7.92892 8.45319 7.83845 8.34767C7.74797 8.24216 7.64782 8.14599 7.53799 8.05917C7.44124 7.98268 7.3369 7.91295 7.22498 7.84997C7.11515 7.78439 7.00716 7.73513 6.90099 7.70218C6.79482 7.66924 6.69492 7.66038 6.6013 7.67559C6.50977 7.68821 6.43393 7.73448 6.37378 7.8144C6.29479 7.91767 6.26654 8.02705 6.28902 8.14255C6.3136 8.25545 6.36903 8.36725 6.45532 8.47795C6.54108 8.58399 6.6415 8.68249 6.75655 8.77345C6.88991 8.87888 7.03217 8.96796 7.18332 9.04071C7.33446 9.11346 7.47698 9.15177 7.61087 9.15564C7.74424 9.15485 7.85251 9.10023 7.93568 8.99177Z" fill="#F7F7F7"/>
<path id="w" d="M9.94665 7.55878L8.41093 6.54009C8.3344 6.48907 8.27633 6.45131 8.23672 6.42679C8.19979 6.40029 8.16957 6.37709 8.14606 6.35721C8.12254 6.33733 8.09467 6.31446 8.06242 6.28861L7.9122 6.4132L7.68204 6.11083L8.64374 5.39311L8.83756 5.64773C8.75677 5.71219 8.73291 5.7799 8.76599 5.85087C8.79907 5.92185 8.85759 5.99047 8.94155 6.05674L9.44726 6.44044C9.5077 6.48683 9.56984 6.5382 9.63367 6.59454C9.69815 6.64623 9.75997 6.69992 9.81911 6.7556C9.79007 6.68994 9.75699 6.61896 9.71987 6.54269C9.68542 6.46441 9.64554 6.36525 9.60023 6.24518L9.13261 5.02826L9.56938 4.70229L10.7258 5.56112C10.7842 5.60486 10.8467 5.6539 10.9132 5.70825C10.9803 5.75795 11.0408 5.80434 11.0945 5.84742C11.0648 5.78639 11.0351 5.71708 11.0053 5.63947C10.9756 5.56185 10.9496 5.49187 10.9272 5.42951L10.6989 4.80761C10.6657 4.72005 10.64 4.64774 10.6217 4.59069C10.6014 4.53098 10.5851 4.46829 10.5728 4.4026L10.3565 4.58898L10.1264 4.28661L10.8877 3.71841L11.0815 3.97303C11.0281 4.01291 10.9945 4.06504 10.9807 4.12942C10.9668 4.19381 10.9631 4.26316 10.9694 4.33748C10.9763 4.40715 10.9886 4.47284 11.0063 4.53454C11.0219 4.59358 11.0358 4.63936 11.048 4.67186L11.5936 6.32967L11.1688 6.64667L10.2473 6.00559C10.217 5.9824 10.1714 5.94993 10.1103 5.90818C10.0519 5.86445 9.98907 5.81773 9.92192 5.76803C9.85542 5.71368 9.79295 5.66464 9.73453 5.6209C9.7777 5.70514 9.82227 5.80496 9.86824 5.92038C9.91421 6.03581 9.95546 6.14227 9.99198 6.23979C10.0285 6.3373 10.0525 6.40463 10.0641 6.44178L10.3434 7.26272L9.94665 7.55878Z" fill="#F7F7F7"/>
<path id="n" d="M12.0704 6.23685L11.9444 5.93728C12.0707 5.88517 12.1322 5.81652 12.129 5.73134C12.1244 5.64309 12.0962 5.53751 12.0445 5.41461L11.7188 4.64034C11.6955 4.58503 11.6712 4.52295 11.6459 4.45408C11.6192 4.38214 11.5948 4.31111 11.5725 4.24097C11.5245 4.26438 11.4672 4.2916 11.4007 4.32263C11.336 4.34933 11.2873 4.3712 11.2547 4.38825L11.1074 4.03799C11.32 3.95029 11.4769 3.86756 11.578 3.78981C11.6821 3.71078 11.7432 3.64955 11.761 3.60612L11.9875 3.5127C12.0105 3.5501 12.0259 3.57802 12.0336 3.59645C12.0414 3.61489 12.0491 3.63332 12.0569 3.65176C12.0664 3.66585 12.0849 3.69249 12.1122 3.7317C12.1532 3.65712 12.2059 3.58487 12.2705 3.51495C12.3339 3.44196 12.4011 3.37819 12.4721 3.32364C12.5419 3.26601 12.6076 3.22448 12.6692 3.19906C12.9527 3.08213 13.1873 3.08094 13.3729 3.19548C13.5603 3.30568 13.729 3.53899 13.8789 3.8954L14.1387 4.51297C14.1568 4.55599 14.1811 4.61807 14.2116 4.69923C14.2409 4.77731 14.2673 4.85296 14.2908 4.92617C14.3406 4.89842 14.3948 4.87247 14.4534 4.84832C14.5106 4.8211 14.5547 4.80113 14.5855 4.78842L14.7328 5.13869L13.5218 5.6382L13.3958 5.33863C13.5252 5.28524 13.5883 5.21596 13.585 5.13078C13.5804 5.04253 13.5522 4.93696 13.5005 4.81406L13.2206 4.16152C13.1366 3.9618 13.0453 3.8264 12.9466 3.7553C12.8498 3.67986 12.7336 3.6701 12.598 3.72602C12.521 3.7578 12.4511 3.80647 12.3882 3.87205C12.3285 3.93635 12.2821 4.00235 12.2491 4.07004L12.6873 5.11162C12.7054 5.15464 12.7297 5.21672 12.7603 5.29788C12.7895 5.37597 12.8159 5.45161 12.8395 5.52482C12.8862 5.49834 12.9388 5.47302 12.9974 5.44888C13.0577 5.42038 13.1033 5.39978 13.1341 5.38707L13.2814 5.73734L12.0704 6.23685Z" fill="#F7F7F7"/>
<path id="t" d="M17.8464 5.10643C17.7465 5.1091 17.6495 5.10002 17.5556 5.07918C17.465 5.05826 17.3805 5.01717 17.3022 4.9559C17.227 4.89122 17.1661 4.79614 17.1193 4.67068C17.0726 4.54521 17.0464 4.37752 17.0407 4.1676L17.018 2.96278L16.6781 2.97185L16.6668 2.557C16.77 2.55091 16.869 2.51326 16.9639 2.44403C17.0587 2.37481 17.138 2.286 17.2017 2.17759C17.2688 2.0691 17.3124 1.95623 17.3326 1.83898L17.7024 1.82911L17.7164 2.52899L18.3512 2.51204L18.3617 2.8969L17.7273 2.92884L17.7557 4.15852C17.7578 4.23516 17.7665 4.31162 17.7819 4.3879C17.8006 4.46076 17.8322 4.52161 17.8769 4.57043C17.9215 4.61592 17.9854 4.63756 18.0687 4.63534C18.1154 4.63409 18.1782 4.61574 18.2573 4.58029C18.3397 4.54474 18.4258 4.45908 18.5154 4.32331L18.7615 4.54182C18.6751 4.67751 18.5846 4.78329 18.49 4.85918C18.3953 4.93506 18.3035 4.99087 18.2144 5.02659C18.1287 5.06222 18.0526 5.08426 17.9861 5.0927C17.9197 5.10115 17.8731 5.10572 17.8464 5.10643Z" fill="#F7F7F7"/>
<path id="o_3" d="M20.2214 5.41705C19.9852 5.37457 19.7813 5.2854 19.6096 5.14954C19.4379 5.01368 19.3134 4.84227 19.236 4.63531C19.1625 4.42566 19.1492 4.19296 19.1959 3.9372C19.2457 3.66505 19.345 3.43736 19.4937 3.25412C19.6463 3.0682 19.8263 2.93631 20.0337 2.85845C20.245 2.7779 20.4622 2.75769 20.6853 2.79781C20.9215 2.84028 21.1238 2.92916 21.2922 3.06443C21.4606 3.19971 21.5815 3.37217 21.655 3.58181C21.7291 3.78818 21.7421 4.02252 21.6942 4.28484C21.6438 4.56027 21.5475 4.79019 21.4053 4.97461C21.2632 5.15902 21.09 5.29045 20.8859 5.3689C20.6824 5.44407 20.4609 5.46012 20.2214 5.41705ZM20.305 5.07138C20.4368 5.0917 20.5436 5.0635 20.6254 4.98676C20.7105 4.91062 20.7785 4.80769 20.8293 4.67798C20.8801 4.54826 20.9182 4.41454 20.9433 4.27683C20.9655 4.15551 20.9782 4.03078 20.9813 3.90264C20.9877 3.77509 20.9805 3.65695 20.9597 3.54822C20.9389 3.4395 20.8998 3.34779 20.8423 3.2731C20.7881 3.199 20.7115 3.15474 20.6124 3.14032C20.4839 3.1206 20.3738 3.14821 20.2821 3.22317C20.1938 3.29873 20.1209 3.40077 20.0635 3.52931C20.01 3.65516 19.97 3.79022 19.9436 3.93449C19.913 4.10172 19.9011 4.26891 19.9078 4.43606C19.9145 4.60322 19.9476 4.74634 20.0072 4.86543C20.0706 4.98182 20.1699 5.05048 20.305 5.07138Z" fill="#F7F7F7"/>
<path id="l_3" d="M23.7654 6.36023C23.8859 6.43148 23.9783 6.43963 24.0425 6.38469C24.1114 6.32859 24.1802 6.24345 24.2491 6.12927L25.3102 4.36942C25.3412 4.31803 25.3779 4.26036 25.4203 4.1964C25.4645 4.12959 25.5084 4.06648 25.552 4.00707C25.5044 3.98278 25.4481 3.95341 25.3833 3.91894C25.323 3.88332 25.2763 3.85761 25.243 3.8418L25.4392 3.51638C25.64 3.63512 25.8022 3.7116 25.9255 3.74582C26.0489 3.78003 26.1336 3.79135 26.1795 3.77977L26.4119 3.91717L24.8783 6.46061C24.8542 6.50057 24.8184 6.55682 24.7708 6.62934C24.7249 6.69901 24.6793 6.76497 24.6339 6.82724C24.6861 6.85036 24.7395 6.87804 24.794 6.91027C24.8503 6.93965 24.8927 6.96282 24.9214 6.97978L24.7252 7.3052L23.5975 6.63856L23.7654 6.36023Z" fill="#F7F7F7"/>
<path id="e" d="M26.085 8.57279C25.9023 8.41203 25.7765 8.2303 25.7077 8.0276C25.641 7.82241 25.6346 7.61251 25.6884 7.39789C25.7444 7.18079 25.8626 6.97178 26.043 6.77085C26.1988 6.59721 26.3835 6.46887 26.5969 6.38583C26.8103 6.30278 27.0282 6.27703 27.2507 6.30858C27.478 6.33985 27.6854 6.43806 27.8731 6.60323C27.9782 6.69572 28.0674 6.8009 28.1408 6.91875C28.2164 7.03413 28.2631 7.16178 28.2808 7.30171C28.301 7.44384 28.2815 7.59535 28.2221 7.75626C28.1653 7.91937 28.0555 8.08913 27.8926 8.26552L26.6415 7.20435C26.5212 7.3383 26.4295 7.47292 26.3663 7.60821C26.3056 7.74571 26.2862 7.8796 26.3081 8.00988C26.33 8.14016 26.406 8.26256 26.5361 8.37708C26.6112 8.44315 26.7178 8.50148 26.856 8.55208C26.999 8.60241 27.1598 8.61292 27.3384 8.58361L27.367 8.88853C27.1633 8.93576 26.9802 8.94772 26.8175 8.9244C26.657 8.8986 26.5154 8.85172 26.3928 8.78375C26.2726 8.71799 26.17 8.64767 26.085 8.57279ZM26.8978 6.96371L27.5884 7.57153C27.724 7.41553 27.7908 7.2812 27.7889 7.16854C27.7893 7.05339 27.7456 6.95728 27.6581 6.8802C27.548 6.78331 27.426 6.74702 27.2922 6.77134C27.1606 6.79318 27.0292 6.85731 26.8978 6.96371Z" fill="#F7F7F7"/>
<path id="a" d="M27.9793 10.7376C28.0132 10.705 28.0414 10.6785 28.0638 10.6583C28.0908 10.6388 28.1209 10.6151 28.1541 10.5871C27.995 10.562 27.8591 10.512 27.7462 10.4372C27.6334 10.3624 27.5385 10.2726 27.4615 10.1679C27.3352 9.99593 27.2879 9.8246 27.3196 9.65386C27.3514 9.48312 27.4443 9.34223 27.5985 9.23118C27.7283 9.13767 27.8629 9.09003 28.0022 9.08826C28.1435 9.08918 28.282 9.12292 28.4178 9.18946C28.5582 9.25674 28.6916 9.34548 28.8181 9.45568C28.9492 9.56662 29.0668 9.6873 29.1709 9.81772L29.3819 9.66576C29.4874 9.58978 29.5608 9.504 29.6023 9.40842C29.6457 9.31552 29.6243 9.21595 29.538 9.10971C29.4497 9.00078 29.3447 8.93672 29.2231 8.91753C29.2145 8.95655 29.1973 8.98946 29.1715 9.01627C29.1484 9.04112 29.126 9.06134 29.1044 9.07693C29.0503 9.11589 28.9777 9.13531 28.8866 9.13519C28.7983 9.13312 28.7209 9.0841 28.6545 8.98813C28.598 8.90559 28.581 8.82335 28.6036 8.7414C28.6261 8.65946 28.6738 8.59219 28.7469 8.53959C28.8551 8.46166 28.976 8.43206 29.1097 8.45078C29.2481 8.47023 29.3863 8.52885 29.5243 8.62662C29.665 8.72245 29.7926 8.84827 29.907 9.00407C30.0807 9.24047 30.1527 9.46795 30.123 9.68651C30.098 9.90581 29.9502 10.1129 29.6798 10.3077C29.5878 10.3739 29.5094 10.4304 29.4444 10.4772C29.3795 10.5239 29.3136 10.5693 29.2467 10.6134C29.1818 10.6602 29.1034 10.7167 29.0114 10.7829C28.9736 10.8102 28.9185 10.8478 28.8462 10.8958C28.7766 10.9418 28.7087 10.9845 28.6426 11.0239C28.6815 11.0657 28.7197 11.1121 28.7572 11.1632C28.7974 11.2123 28.8274 11.2502 28.8472 11.2771L28.5388 11.4992L27.9793 10.7376ZM28.8799 10.0212C28.7559 9.88047 28.6209 9.77844 28.4751 9.71505C28.3312 9.65436 28.2022 9.66724 28.0878 9.75369C28.0141 9.81093 27.9777 9.87407 27.9788 9.94311C27.9799 10.0122 28.0022 10.0762 28.0456 10.1353C28.091 10.1971 28.1469 10.2451 28.2134 10.2794C28.28 10.3136 28.3506 10.3367 28.4255 10.3485L28.8799 10.0212Z" fill="#F7F7F7"/>
<path id="r_2" d="M28.884 11.7061C28.9405 11.8305 29.0115 11.8901 29.097 11.8849C29.1855 11.8783 29.2907 11.8479 29.4125 11.7937L30.1798 11.452C30.2347 11.4276 30.2962 11.402 30.3646 11.3752C30.436 11.3471 30.5066 11.3211 30.5764 11.2974C30.5513 11.2502 30.522 11.1938 30.4887 11.1284C30.4597 11.0647 30.4362 11.0168 30.4179 10.9848L30.7651 10.8302L30.8478 11.0123C30.9015 11.1307 30.9657 11.2317 31.0403 11.3152C31.1162 11.4018 31.1763 11.4535 31.2205 11.4703L31.3218 11.6934C31.2941 11.713 31.2383 11.7433 31.1544 11.7843C31.0736 11.824 31.0012 11.858 30.9373 11.8865C31.1446 11.9401 31.3044 12.0058 31.4166 12.0835C31.5288 12.1613 31.6097 12.2548 31.6593 12.3641C31.7076 12.4703 31.7192 12.5764 31.6941 12.6824C31.6721 12.7871 31.5941 12.8693 31.4601 12.9289C31.4144 12.9493 31.3609 12.9603 31.2994 12.9621C31.2411 12.9626 31.1848 12.9475 31.1306 12.9169C31.0765 12.8863 31.0315 12.8315 30.9956 12.7526C30.9681 12.6919 30.9581 12.6216 30.9657 12.5416C30.9733 12.4615 31.0268 12.3939 31.1262 12.3387C31.0986 12.278 31.0451 12.2289 30.9658 12.1912C30.8895 12.1522 30.8053 12.124 30.7132 12.1066C30.6256 12.0909 30.5487 12.0869 30.4826 12.0944L29.738 12.4259C29.6954 12.4449 29.6338 12.4705 29.5532 12.5027C29.4757 12.5336 29.4006 12.5616 29.3278 12.5867C29.3559 12.6325 29.3831 12.6843 29.4093 12.7419C29.4399 12.8013 29.4621 12.8461 29.4759 12.8765L29.1287 13.0311L28.5871 11.8383L28.884 11.7061Z" fill="#F7F7F7"/>
<path id="n_2" d="M29.4574 14.0715L29.7756 14.0053C29.804 14.139 29.8605 14.2123 29.945 14.2254C30.0329 14.2377 30.142 14.2303 30.2726 14.2031L31.0949 14.0319C31.1537 14.0196 31.2193 14.0077 31.2918 13.996C31.3675 13.9836 31.442 13.9732 31.5152 13.9648C31.5008 13.9133 31.4844 13.852 31.4659 13.781C31.4513 13.7125 31.4386 13.6607 31.4278 13.6255L31.7998 13.548C31.8476 13.773 31.9006 13.9424 31.9588 14.0563C32.0178 14.1734 32.067 14.2448 32.1066 14.2706L32.1575 14.5103C32.1165 14.5256 32.0861 14.5354 32.0666 14.5394C32.047 14.5435 32.0274 14.5476 32.0078 14.5517C31.9922 14.5583 31.9626 14.5713 31.919 14.5906C31.985 14.6449 32.0467 14.7104 32.1038 14.787C32.1643 14.863 32.2149 14.941 32.2557 15.021C32.2999 15.1003 32.3288 15.1726 32.3427 15.2378C32.4064 15.5378 32.3649 15.7677 32.2183 15.9277C32.0756 16.0902 31.815 16.2108 31.4364 16.2896L30.7805 16.4262C30.7348 16.4357 30.6692 16.4477 30.5837 16.4621C30.5014 16.4758 30.422 16.4873 30.3456 16.4964C30.3639 16.5504 30.3796 16.6084 30.3928 16.6704C30.4092 16.7317 30.4209 16.7786 30.4278 16.8112L30.0558 16.8887L29.7836 15.6073L30.1018 15.541C30.1309 15.678 30.1877 15.7529 30.2723 15.766C30.3601 15.7783 30.4692 15.7709 30.5998 15.7437L31.2938 15.5941C31.5059 15.5499 31.656 15.4863 31.744 15.4033C31.836 15.3229 31.8667 15.2109 31.8362 15.0675C31.8189 14.986 31.7837 14.9082 31.7305 14.8341C31.6779 14.7634 31.6213 14.7054 31.5606 14.6601L30.4543 14.8905C30.4087 14.9 30.343 14.912 30.2575 14.9264C30.1752 14.9401 30.0959 14.9515 30.0194 14.9606C30.037 15.0114 30.0524 15.0678 30.0656 15.1298C30.0827 15.1943 30.0947 15.2429 30.1016 15.2755L29.7296 15.3529L29.4574 14.0715Z" fill="#F7F7F7"/>
<path id="m" d="M29.7974 18.9185L30.1151 18.987C30.0857 19.1205 30.107 19.2103 30.1787 19.2564C30.2537 19.3033 30.3564 19.3408 30.4868 19.3689L31.3079 19.5459C31.3666 19.5585 31.4314 19.5742 31.5023 19.5929C31.5766 19.6123 31.6488 19.633 31.7191 19.6549C31.7273 19.6021 31.7376 19.5396 31.7501 19.4673C31.7651 19.3989 31.7749 19.3465 31.7795 19.3099L32.151 19.39C32.1016 19.6146 32.08 19.7907 32.0861 19.9182C32.0915 20.0489 32.1069 20.1341 32.1323 20.1736L32.0797 20.4129C32.0457 20.4124 32.0043 20.4069 31.9554 20.3964C31.9058 20.3891 31.8643 20.3836 31.831 20.3798C31.8914 20.5087 31.9321 20.642 31.9531 20.7795C31.9733 20.9202 31.9709 21.0476 31.9459 21.1615C31.913 21.3113 31.8581 21.429 31.7812 21.5148C31.7076 21.6012 31.6106 21.6621 31.4902 21.6975C31.5622 21.8358 31.6121 21.9813 31.64 22.1339C31.6671 22.2898 31.6664 22.4328 31.6378 22.5631C31.5798 22.8268 31.4596 23.0089 31.2771 23.1093C31.0971 23.2138 30.8198 23.2256 30.4451 23.1448L29.7266 22.99C29.6809 22.9801 29.6161 22.9644 29.5321 22.9429C29.4514 22.9221 29.3742 22.9004 29.3007 22.8777C29.2958 22.9312 29.2865 22.9889 29.2729 23.0507C29.2619 23.1166 29.2528 23.1657 29.2456 23.1983L28.8741 23.1182L29.1457 21.8827L29.4634 21.9512C29.4384 22.0652 29.4625 22.142 29.5357 22.1816C29.6114 22.2252 29.7144 22.261 29.8448 22.2891L30.5926 22.4503C30.8051 22.4927 30.9596 22.4885 31.0561 22.4377C31.1519 22.3901 31.2136 22.3114 31.2412 22.2014C31.263 22.1174 31.2659 22.0345 31.2498 21.9526C31.233 21.874 31.2082 21.8004 31.1754 21.732C31.0386 21.7332 30.8806 21.7145 30.7014 21.6759L30.0465 21.5347C30.0008 21.5249 29.936 21.5092 29.852 21.4877C29.7713 21.4669 29.6942 21.4451 29.6206 21.4225C29.6157 21.476 29.6064 21.5336 29.5928 21.5955C29.5825 21.658 29.5734 21.7072 29.5655 21.743L29.1941 21.663L29.471 20.4031L29.7887 20.4715C29.7615 20.5953 29.7842 20.6786 29.8567 20.7215C29.9317 20.7683 30.0344 20.8058 30.1647 20.8339L30.9283 20.9933C31.1401 21.039 31.2919 21.0393 31.3837 20.9943C31.4755 20.9493 31.5352 20.8718 31.5628 20.7618C31.5807 20.6805 31.5795 20.6001 31.5594 20.5207C31.5386 20.4446 31.5099 20.3737 31.4732 20.3078L30.3685 20.0697C30.3229 20.0599 30.2581 20.0442 30.1741 20.0227C30.0933 20.0019 30.0162 19.9801 29.9427 19.9574C29.9378 20.0109 29.9292 20.0654 29.917 20.1207C29.9081 20.1768 29.9001 20.2211 29.893 20.2536L29.5215 20.1735L29.7974 18.9185Z" fill="#F7F7F7"/>
<path id="o_4" d="M28.1549 23.3586C28.2654 23.1456 28.4112 22.9766 28.5924 22.8519C28.7735 22.7271 28.9748 22.6575 29.1964 22.643C29.4194 22.633 29.6467 22.6869 29.8785 22.8048C30.1251 22.9302 30.3144 23.09 30.4464 23.2843C30.5799 23.4831 30.6534 23.6925 30.6669 23.9125C30.6819 24.137 30.6372 24.3499 30.5328 24.5511C30.4223 24.7641 30.2773 24.9316 30.0977 25.0534C29.9181 25.1752 29.7168 25.2411 29.4938 25.2511C29.2738 25.2626 29.045 25.208 28.8073 25.0871C28.5577 24.9601 28.3654 24.8025 28.2303 24.6141C28.0952 24.4258 28.0201 24.223 28.005 24.006C27.9929 23.7904 28.0429 23.5746 28.1549 23.3586ZM28.4621 23.5373C28.4037 23.6572 28.3993 23.7671 28.4488 23.8671C28.4968 23.97 28.5756 24.0643 28.6851 24.1499C28.7946 24.2355 28.9118 24.3101 29.0366 24.3735C29.1465 24.4294 29.2625 24.4772 29.3847 24.5169C29.5052 24.5595 29.6208 24.5865 29.7313 24.5978C29.8418 24.6092 29.9414 24.5981 30.0301 24.5647C30.1173 24.5342 30.1824 24.4738 30.2255 24.3836C30.2823 24.2666 30.2883 24.1538 30.2434 24.0449C30.197 23.939 30.1205 23.8403 30.014 23.7488C29.909 23.6617 29.7911 23.5849 29.6604 23.5184C29.5088 23.4414 29.3518 23.3821 29.1894 23.3406C29.0269 23.2991 28.8797 23.2897 28.7478 23.3123C28.6173 23.3395 28.5221 23.4145 28.4621 23.5373Z" fill="#F7F7F7"/>
<path id="r_3" d="M27.5527 24.9495C27.4652 25.0545 27.4429 25.1439 27.4856 25.2175C27.531 25.2933 27.6053 25.3733 27.7085 25.4577L28.3591 25.9891C28.4055 26.027 28.4561 26.0705 28.5108 26.1194C28.568 26.1705 28.6229 26.2218 28.6754 26.2733C28.707 26.2302 28.7449 26.1795 28.7893 26.121C28.8341 26.0672 28.8669 26.0252 28.8878 25.9949L29.1821 26.2353L29.0541 26.389C28.9709 26.4888 28.9081 26.5903 28.8656 26.6933C28.821 26.7989 28.801 26.8751 28.8054 26.9218L28.6486 27.11C28.6185 27.0941 28.5663 27.0578 28.4919 27.0013C28.42 26.947 28.357 26.8976 28.3028 26.8534C28.3465 27.0612 28.3582 27.2321 28.3377 27.3661C28.3172 27.5 28.2686 27.613 28.1918 27.7052C28.1171 27.7949 28.0262 27.8519 27.9191 27.8763C27.8146 27.9028 27.7055 27.8697 27.5919 27.7769C27.5532 27.7453 27.5194 27.7026 27.4904 27.6488C27.4641 27.5971 27.4527 27.5405 27.4563 27.4789C27.4599 27.4173 27.4894 27.3532 27.5449 27.2866C27.5876 27.2354 27.6468 27.1955 27.7226 27.167C27.7984 27.1386 27.8834 27.1563 27.9775 27.2203C28.0202 27.1691 28.0409 27.1 28.0397 27.0129C28.0411 26.9279 28.0291 26.8407 28.0039 26.7513C27.9791 26.6664 27.9486 26.5963 27.9124 26.5409L27.2812 26.0253C27.245 25.9958 27.1945 25.9523 27.1295 25.895C27.0671 25.8397 27.0083 25.7852 26.9532 25.7316C26.9242 25.7768 26.8895 25.8237 26.8489 25.8724C26.8088 25.9257 26.7781 25.9652 26.7568 25.9908L26.4625 25.7504L27.301 24.7439L27.5527 24.9495Z" fill="#F7F7F7"/>
<path id="e_2" d="M24.6708 27.1614C24.8615 27.0103 25.0635 26.9183 25.2769 26.8853C25.4924 26.855 25.7024 26.8842 25.907 26.9731C26.1137 27.0645 26.3018 27.2152 26.4715 27.4252C26.6181 27.6067 26.7149 27.8086 26.7616 28.031C26.8084 28.2533 26.7974 28.4704 26.7286 28.6822C26.6592 28.8987 26.5266 29.0846 26.3306 29.2398C26.2209 29.3267 26.1012 29.396 25.9715 29.4477C25.844 29.502 25.709 29.5259 25.5668 29.5196C25.4219 29.5153 25.2744 29.4705 25.1242 29.3854C24.9714 29.3023 24.8208 29.1664 24.6726 28.9777L25.9394 27.936C25.8262 27.796 25.7077 27.6837 25.5836 27.5991C25.457 27.5166 25.3269 27.475 25.1936 27.4744C25.0602 27.4737 24.9256 27.5272 24.7897 27.6348C24.7113 27.6969 24.6353 27.7911 24.5617 27.9175C24.4876 28.0485 24.4501 28.2036 24.4492 28.3829L24.1409 28.3592C24.1281 28.1525 24.147 27.9717 24.1976 27.8168C24.2502 27.6645 24.3207 27.5343 24.409 27.4261C24.4947 27.32 24.5819 27.2317 24.6708 27.1614ZM26.1358 28.2269L25.4146 28.7982C25.5471 28.9568 25.6696 29.0448 25.782 29.062C25.8966 29.0818 25.9996 29.0555 26.0911 28.9831C26.206 28.892 26.2627 28.7791 26.261 28.6444C26.2613 28.5123 26.2196 28.3731 26.1358 28.2269Z" fill="#F7F7F7"/>
</g>
<path id="straightArrow" d="M17.036 10.6992V25.1716M17.036 25.1716L15.0469 21.629M17.036 25.1716L19.1205 21.629" stroke="#F7F7F7" stroke-linecap="round"/>
</g>
</svg>
