<svg width="131" height="121" viewBox="0 0 131 121" fill="none" xmlns="http://www.w3.org/2000/svg">
<g id="letterCircle">
<g id="letters">
<path id="s" d="M36.1476 98.9109C36.5986 99.265 36.9938 99.6685 37.3331 100.121C37.6725 100.574 37.8928 100.985 37.994 101.352L38.3332 100.856L39.5287 101.794L37.4666 104.549L36.4441 103.746C36.7705 103.223 36.84 102.616 36.6527 101.926C36.457 101.247 36.0236 100.644 35.3525 100.117C35.0903 99.9116 34.7944 99.781 34.4648 99.7257C34.1353 99.6703 33.8634 99.779 33.6493 100.052C33.4209 100.364 33.4063 100.717 33.6056 101.111C33.7945 101.496 34.0919 102.035 34.498 102.727C34.7243 103.108 34.9517 103.498 35.1802 103.898C35.3982 104.29 35.5747 104.691 35.7096 105.102C35.8257 105.515 35.8565 105.929 35.8019 106.344C35.7391 106.769 35.543 107.192 35.2135 107.611C34.8922 108.02 34.4796 108.34 33.9756 108.572C33.4611 108.795 32.8848 108.86 32.2466 108.765C31.6085 108.671 30.9485 108.357 30.2669 107.821C29.9837 107.599 29.7009 107.301 29.4185 106.926C29.1173 106.554 28.9109 106.18 28.7992 105.805L28.4409 106.261L27.2454 105.322L29.4322 102.538L30.4547 103.341C30.1208 103.96 30.0243 104.58 30.1652 105.199C30.3062 105.818 30.6598 106.35 31.2261 106.795C31.4883 107 31.7789 107.127 32.098 107.174C32.4066 107.213 32.6803 107.08 32.9192 106.776C33.1086 106.535 33.1771 106.275 33.1246 105.997C33.0639 105.729 32.9238 105.432 32.7043 105.107C32.4848 104.782 32.2461 104.417 31.9884 104.011C31.5936 103.413 31.2864 102.833 31.0668 102.271C30.8368 101.7 30.737 101.147 30.7677 100.612C30.79 100.087 30.9948 99.578 31.3819 99.0852C31.8102 98.5399 32.3007 98.1961 32.8534 98.0537C33.4062 97.9113 33.9728 97.9239 34.5533 98.0915C35.1233 98.2508 35.6547 98.524 36.1476 98.9109Z" fill="#F7F7F7"/>
<path id="c" d="M30.0853 92.3209C30.6601 93.0048 31.0345 93.7612 31.2086 94.5901C31.3826 95.419 31.3245 96.2513 31.0342 97.0872C30.7353 97.9128 30.1724 98.6729 29.3454 99.3675C28.5694 100.019 27.7234 100.442 26.8073 100.637C25.881 100.841 24.975 100.809 24.0895 100.543C23.1954 100.267 22.4181 99.7355 21.7576 98.9496C21.2086 98.2963 20.856 97.6695 20.7 97.0693C20.5251 96.4675 20.5109 95.9222 20.6575 95.4334C20.7853 94.943 21.0279 94.5477 21.3852 94.2476C21.6813 93.9989 22.024 93.8678 22.4132 93.8543C22.7837 93.8392 23.1113 93.9907 23.396 94.3088C23.7322 94.6881 23.8523 95.0486 23.7563 95.3904C23.6502 95.7407 23.4899 96.0059 23.2755 96.186C23.1836 96.2632 23.0635 96.3379 22.9153 96.4102C22.7568 96.491 22.6008 96.5437 22.4472 96.5682C22.3169 96.8692 22.3241 97.1678 22.4687 97.4643C22.6134 97.7607 22.7508 97.9761 22.8811 98.1104C23.3235 98.5746 23.9074 98.772 24.6328 98.7026C25.3581 98.6331 26.1547 98.234 27.0226 97.5051C27.5331 97.0763 27.9615 96.612 28.3078 96.1122C28.6353 95.6108 28.8176 95.092 28.8547 94.5559C28.8919 94.0198 28.7105 93.4931 28.3105 92.9758C27.9605 92.5385 27.5067 92.2057 26.9491 91.9775C26.3916 91.7493 25.8089 91.6466 25.2012 91.6695L25.2985 90.3864C26.1178 90.3251 26.8275 90.382 27.4275 90.5571C28.0275 90.7323 28.5407 90.9803 28.9671 91.3012C29.3952 91.6034 29.7679 91.9433 30.0853 92.3209Z" fill="#F7F7F7"/>
<path id="r" d="M26.0124 89.09C25.7539 88.6083 25.4553 88.3903 25.1165 88.4358C24.766 88.4876 24.3558 88.6395 23.8858 88.8916L20.9248 90.4797C20.7133 90.5931 20.4751 90.7133 20.2103 90.8402C19.9337 90.9734 19.6599 91.0975 19.3888 91.2127C19.5014 91.3944 19.633 91.6113 19.7834 91.8634C19.9158 92.1102 20.0226 92.295 20.1037 92.4179L18.7642 93.1363L18.3859 92.4314C18.14 91.9732 17.8574 91.5877 17.5382 91.2747C17.2126 90.9501 16.9596 90.7605 16.779 90.706L16.3156 89.8425C16.4205 89.756 16.6343 89.6186 16.957 89.4304C17.2679 89.2485 17.5468 89.0914 17.7935 88.9591C16.9538 88.8042 16.3003 88.5874 15.8328 88.3085C15.3654 88.0297 15.0182 87.6788 14.7912 87.2558C14.5706 86.8446 14.4958 86.4233 14.5668 85.9918C14.6262 85.5666 14.9143 85.2154 15.4313 84.9381C15.6076 84.8435 15.8177 84.7838 16.0615 84.7589C16.2937 84.7404 16.5217 84.7845 16.7455 84.8914C16.9693 84.9983 17.1632 85.2045 17.3271 85.51C17.4532 85.7449 17.512 86.0236 17.5034 86.3459C17.4948 86.6683 17.3002 86.9542 16.9196 87.2037C17.0457 87.4387 17.2716 87.6201 17.5975 87.7479C17.9116 87.882 18.2542 87.9706 18.6253 88.0137C18.9784 88.0512 19.2855 88.0454 19.5466 87.9962L22.4195 86.4554C22.584 86.3671 22.8221 86.247 23.1339 86.0949C23.434 85.9491 23.7254 85.8154 24.0083 85.694C23.8839 85.5186 23.7618 85.3193 23.642 85.0961C23.5042 84.8674 23.4037 84.6944 23.3407 84.5769L24.6802 83.8585L27.158 88.4756L26.0124 89.09Z" fill="#F7F7F7"/>
<path id="o" d="M22.3695 75.7441C22.6322 76.6675 22.6706 77.5576 22.4847 78.4145C22.2987 79.2713 21.9023 80.0217 21.2953 80.6656C20.6719 81.3003 19.86 81.7599 18.8597 82.0444C17.7952 82.347 16.8034 82.3934 15.8841 82.1835C14.9485 81.9644 14.1586 81.5514 13.5146 80.9444C12.8541 80.3282 12.3998 79.5841 12.1516 78.712C11.8889 77.7887 11.8523 76.905 12.0419 76.0609C12.2315 75.2169 12.638 74.4775 13.2614 73.8428C13.8721 73.2117 14.6904 72.7503 15.7163 72.4586C16.7936 72.1522 17.7882 72.0912 18.7001 72.2755C19.6121 72.4598 20.3882 72.849 21.0286 73.4431C21.6562 74.041 22.1031 74.808 22.3695 75.7441ZM20.9817 76.0556C20.823 75.5463 20.5339 75.2126 20.1147 75.0546C19.6918 74.8837 19.2028 74.8218 18.6478 74.8687C18.0928 74.9156 17.546 75.0157 17.0073 75.1688C16.5328 75.3038 16.0628 75.479 15.5974 75.6945C15.1283 75.8972 14.7168 76.132 14.363 76.399C14.0093 76.6659 13.7488 76.9687 13.5818 77.3073C13.4111 77.6331 13.3869 77.9865 13.5092 78.3676C13.6643 78.8641 13.957 79.2106 14.3872 79.4071C14.8137 79.5907 15.3082 79.6719 15.8705 79.6507C16.4163 79.6202 16.9714 79.5248 17.5357 79.3643C18.1897 79.1783 18.8109 78.9254 19.3992 78.6057C19.9875 78.2859 20.443 77.9138 20.7659 77.4893C21.0722 77.0556 21.1442 76.5777 20.9817 76.0556Z" fill="#F7F7F7"/>
<path id="l" d="M19.8761 70.4098C19.8314 69.8516 19.6454 69.532 19.3179 69.4512C18.976 69.3581 18.5393 69.3328 18.0076 69.3753L9.81374 70.0297C9.57451 70.0489 9.30151 70.064 8.99475 70.0751C8.6747 70.0873 8.36742 70.0918 8.07289 70.0885C8.10319 70.3001 8.13669 70.5516 8.17337 70.8429C8.19571 71.122 8.21937 71.3342 8.24436 71.4793L6.72918 71.6003C6.65474 70.67 6.53139 69.9642 6.35914 69.4831C6.18688 69.0019 6.02898 68.7002 5.88543 68.5779L5.79929 67.5013L17.6416 66.5555C17.8277 66.5406 18.094 66.526 18.4406 66.5117C18.774 66.4985 19.0946 66.4929 19.4024 66.4951C19.3577 66.2713 19.3253 66.0331 19.3051 65.7806C19.2716 65.5291 19.2495 65.3369 19.2389 65.204L20.7541 65.083L21.172 70.3063L19.8761 70.4098Z" fill="#F7F7F7"/>
<path id="l_2" d="M19.7101 62.9972C19.7558 62.4391 19.6236 62.0938 19.3134 61.9614C18.991 61.8147 18.564 61.7195 18.0324 61.676L9.83977 61.0058C9.60057 60.9863 9.32869 60.9573 9.02414 60.919C8.70629 60.8797 8.40228 60.8347 8.1121 60.7842C8.10797 60.9979 8.10056 61.2515 8.08989 61.545C8.06702 61.824 8.05625 62.0372 8.05755 62.1844L6.54262 62.0605C6.61885 61.1303 6.61066 60.4139 6.51807 59.9114C6.42547 59.4088 6.31817 59.0856 6.19617 58.9419L6.28438 57.8655L18.1248 58.8341C18.3109 58.8493 18.5761 58.8777 18.9205 58.9193C19.2517 58.9597 19.569 59.0058 19.8724 59.0574C19.8644 58.8293 19.8707 58.589 19.8914 58.3365C19.8988 58.0829 19.9079 57.8897 19.9188 57.7568L21.4338 57.8807L21.0058 63.1032L19.7101 62.9972Z" fill="#F7F7F7"/>
<path id="d" d="M25.845 46.0442C25.5038 46.7677 25.0155 47.3188 24.38 47.6974C23.7502 48.0638 23.0176 48.2419 22.1823 48.2314C21.3526 48.2089 20.4734 47.9789 19.5447 47.5412C18.5678 47.0808 17.7875 46.4846 17.204 45.7527C16.6204 45.0207 16.2708 44.2148 16.155 43.3348C16.0393 42.4548 16.1918 41.5686 16.6127 40.6762C16.7662 40.3506 16.9389 40.0782 17.1307 39.8591C17.3161 39.6222 17.505 39.409 17.6975 39.2197L16.5035 38.657C16.3346 38.5774 16.0962 38.4577 15.7883 38.2979C15.4804 38.138 15.1995 37.9835 14.9455 37.8343C14.8666 38.033 14.7706 38.2678 14.6575 38.5388C14.5445 38.8098 14.4567 39.0116 14.3941 39.1443L13.0192 38.4963C13.4173 37.6521 13.6612 36.9785 13.751 36.4755C13.8408 35.9724 13.8538 35.6322 13.7901 35.4547L14.2507 34.4779L24.9971 39.5423C25.166 39.6219 25.4044 39.7416 25.7123 39.9014C26.0081 40.0556 26.2891 40.2101 26.5551 40.365C26.6276 40.1486 26.7179 39.9258 26.826 39.6967C26.922 39.4619 26.9984 39.2842 27.0553 39.1636L28.4302 39.8115L26.8095 43.2486C26.6711 43.1981 26.5239 43.1508 26.3678 43.1067C26.2174 43.0506 26.0702 43.0033 25.9261 42.9649C26.1485 43.5561 26.2446 44.1026 26.2144 44.6042C26.1843 45.1059 26.0611 45.5859 25.845 46.0442ZM24.6423 44.3276C24.7901 44.0141 24.8482 43.6877 24.8165 43.3485C24.7728 43.0036 24.6612 42.6931 24.4819 42.4169L19.0544 39.8591C18.901 39.9343 18.7373 40.0782 18.5633 40.291C18.3772 40.4981 18.2244 40.7283 18.105 40.9815C17.8555 41.542 17.8256 42.0585 18.0155 42.5312C18.2053 43.0039 18.5283 43.4288 18.9844 43.8059C19.4461 44.1709 19.9604 44.487 20.5273 44.7541C21.0339 44.9928 21.5628 45.1684 22.1142 45.2809C22.6713 45.3813 23.178 45.3695 23.6345 45.2456C24.0845 45.104 24.4205 44.798 24.6423 44.3276Z" fill="#F7F7F7"/>
<path id="o_2" d="M32.2931 36.3484C31.6941 37.0986 30.9917 37.6469 30.1861 37.9933C29.3804 38.3398 28.5392 38.453 27.6623 38.3332C26.7833 38.1946 25.9373 37.8009 25.1245 37.1522C24.2595 36.4618 23.6455 35.6817 23.2822 34.8118C22.9169 33.9231 22.7943 33.0405 22.9142 32.1638C23.0321 31.2685 23.3739 30.4665 23.9397 29.7581C24.5387 29.0079 25.2369 28.4648 26.0343 28.1288C26.8316 27.7928 27.6697 27.6941 28.5487 27.8327C29.4173 27.9629 30.2684 28.3608 31.1021 29.0262C31.9775 29.7248 32.6051 30.4987 32.985 31.3478C33.3648 32.1968 33.4989 33.0545 33.3873 33.9207C33.2653 34.7786 32.9005 35.5879 32.2931 36.3484ZM31.2332 35.4001C31.5556 34.9751 31.6593 34.5461 31.5444 34.1131C31.4377 33.6698 31.2041 33.2359 30.8434 32.8115C30.4827 32.3872 30.0835 32.0003 29.6458 31.651C29.2602 31.3433 28.8444 31.0626 28.3985 30.8091C27.9609 30.5451 27.5307 30.3467 27.1078 30.2139C26.6849 30.0811 26.2871 30.0451 25.9143 30.1058C25.5499 30.1562 25.2481 30.3418 25.0089 30.6626C24.6948 31.0773 24.5828 31.5167 24.6728 31.9809C24.7711 32.4347 24.9923 32.8842 25.3364 33.3294C25.6783 33.7558 26.0786 34.152 26.5371 34.518C27.0686 34.9422 27.6354 35.3008 28.2375 35.5937C28.8397 35.8867 29.4074 36.0412 29.9405 36.0573C30.4716 36.0547 30.9025 35.8356 31.2332 35.4001Z" fill="#F7F7F7"/>
<path id="w" d="M38.2561 30.4583L32.1454 26.3731C31.8408 26.1685 31.6098 26.0171 31.4522 25.9188C31.3052 25.8125 31.185 25.7194 31.0915 25.6397C30.9979 25.5599 30.887 25.4682 30.7587 25.3645L30.1599 25.8658L29.2448 24.6521L33.0784 21.7636L33.849 22.7856C33.5269 23.045 33.4315 23.3172 33.5629 23.6022C33.6943 23.8872 33.927 24.1626 34.261 24.4284L36.273 25.9675C36.5135 26.1536 36.7607 26.3597 37.0146 26.5857C37.2711 26.7931 37.517 27.0085 37.7523 27.2319C37.6369 26.9682 37.5056 26.6832 37.3581 26.3769C37.2214 26.0626 37.063 25.6644 36.8832 25.1822L35.0271 20.2952L36.7682 18.9833L41.3692 22.4281C41.6016 22.6036 41.8501 22.8003 42.1147 23.0183C42.3819 23.2177 42.6224 23.4037 42.8362 23.5765C42.7182 23.3315 42.6002 23.0532 42.4821 22.7415C42.364 22.4298 42.2606 22.1488 42.172 21.8983L41.2659 19.4008C41.1343 19.0491 41.0323 18.7587 40.9597 18.5296C40.8791 18.2898 40.8145 18.038 40.7659 17.7742L39.9035 18.5241L38.9885 17.3104L42.0234 15.0236L42.794 16.0457C42.581 16.2062 42.4468 16.4158 42.3914 16.6745C42.336 16.9333 42.3207 17.212 42.3454 17.5105C42.3728 17.7904 42.4214 18.0543 42.4914 18.3021C42.5533 18.5392 42.6084 18.7231 42.6567 18.8536L44.8211 25.5116L43.128 26.7874L39.4612 24.2163C39.341 24.1233 39.1593 23.9931 38.9162 23.8257C38.6837 23.6502 38.4339 23.4628 38.1667 23.2635C37.9022 23.0455 37.6537 22.8487 37.4212 22.6733C37.5927 23.0115 37.7697 23.4124 37.9522 23.8759C38.1347 24.3394 38.2984 24.767 38.4434 25.1586C38.5883 25.5502 38.6836 25.8206 38.7293 25.9698L39.8375 29.2668L38.2561 30.4583Z" fill="#F7F7F7"/>
<path id="n" d="M45.7129 25.6028L45.2129 24.4028C45.7175 24.1927 45.9637 23.9168 45.9514 23.5753C45.934 23.2215 45.8227 22.7984 45.6175 22.3061L44.3252 19.2046C44.2329 18.9831 44.1364 18.7344 44.0359 18.4585C43.9303 18.1703 43.8334 17.8857 43.7452 17.6047C43.5533 17.699 43.3246 17.8087 43.0589 17.9337C42.8005 18.0414 42.6061 18.1296 42.4758 18.1982L41.8912 16.7952C42.7405 16.4415 43.3672 16.1083 43.7713 15.7956C44.1878 15.4777 44.4319 15.2316 44.5037 15.0573L45.4084 14.6805C45.4997 14.8303 45.5607 14.9421 45.5915 15.0159C45.6223 15.0898 45.653 15.1636 45.6838 15.2375C45.7217 15.2939 45.7951 15.4005 45.9038 15.5575C46.0679 15.258 46.2792 14.9678 46.5377 14.6869C46.7911 14.3936 47.0598 14.1373 47.3439 13.9178C47.6229 13.6861 47.8855 13.519 48.1317 13.4165C49.2641 12.9449 50.2001 12.9379 50.9396 13.3954C51.6863 13.8355 52.3571 14.7694 52.952 16.1971L53.9828 18.6709C54.0546 18.8432 54.1511 19.0919 54.2721 19.417C54.388 19.7298 54.4926 20.0329 54.5859 20.3262C54.7849 20.2145 55.0014 20.1099 55.2352 20.0125C55.464 19.9028 55.6399 19.8224 55.763 19.7711L56.3476 21.1742L51.5103 23.1886L51.0103 21.9886C51.5272 21.7733 51.7796 21.4949 51.7673 21.1534C51.7498 20.7996 51.6385 20.3765 51.4334 19.8842L50.3226 17.2704C49.9892 16.4704 49.6261 15.9283 49.2333 15.6442C48.8476 15.3426 48.384 15.3046 47.8424 15.5301C47.5347 15.6583 47.2552 15.8541 47.0039 16.1176C46.7649 16.376 46.5792 16.6411 46.4469 16.9128L48.1854 21.0851C48.2572 21.2574 48.3537 21.5061 48.4747 21.8313C48.5906 22.1441 48.6952 22.4472 48.7885 22.7405C48.9752 22.6339 49.1855 22.5318 49.4194 22.4345C49.6604 22.3196 49.8425 22.2366 49.9656 22.1853L50.5502 23.5884L45.7129 25.6028Z" fill="#F7F7F7"/>
<path id="t" d="M67.1157 21.3029C66.7159 21.3137 66.3281 21.2775 65.9524 21.1942C65.59 21.1106 65.2521 20.9463 64.9388 20.7014C64.6384 20.4427 64.3947 20.0624 64.2078 19.5606C64.0209 19.0588 63.9162 18.3881 63.8936 17.5484L63.8041 12.729L62.4446 12.7657L62.3999 11.1063C62.8128 11.0818 63.2088 10.9311 63.5882 10.6541C63.9676 10.3771 64.2848 10.0218 64.5399 9.58806C64.8083 9.15401 64.9829 8.70248 65.0637 8.23346L66.5431 8.1936L66.5984 10.9931L69.1375 10.9247L69.1789 12.4641L66.6414 12.5925L66.7537 17.5113C66.7619 17.8179 66.7968 18.1237 66.8584 18.4288C66.9329 18.7203 67.0595 18.9636 67.2381 19.1589C67.4164 19.3408 67.6722 19.4273 68.0054 19.4183C68.192 19.4133 68.4434 19.3398 68.7597 19.1979C69.0894 19.0556 69.4336 18.7129 69.7925 18.1697L70.7763 19.0435C70.4308 19.5863 70.0687 20.0096 69.69 20.3132C69.3114 20.6169 68.9439 20.8402 68.5877 20.9832C68.2447 21.1258 67.9403 21.214 67.6744 21.2479C67.4086 21.2817 67.2223 21.3001 67.1157 21.3029Z" fill="#F7F7F7"/>
<path id="o_3" d="M75.633 22.4565C74.6884 22.285 73.8725 21.9269 73.1853 21.382C72.4981 20.8372 71.9992 20.1503 71.6887 19.3215C71.3936 18.482 71.3388 17.5505 71.5242 16.5272C71.7214 15.4383 72.1168 14.5276 72.7102 13.7951C73.3191 13.0519 74.0378 12.5252 74.8664 12.2149C75.7105 11.8938 76.5786 11.8143 77.4707 11.9762C78.4152 12.1477 79.2246 12.5047 79.8987 13.0472C80.5728 13.5897 81.0573 14.2807 81.3524 15.1202C81.6498 15.9466 81.7035 16.8846 81.5133 17.9342C81.3137 19.0363 80.9303 19.9559 80.3631 20.6931C79.7959 21.4303 79.1046 21.9553 78.2891 22.268C77.476 22.5676 76.5907 22.6304 75.633 22.4565ZM75.9648 21.0736C76.492 21.1557 76.9188 21.0435 77.2454 20.7369C77.585 20.4327 77.8561 20.0211 78.0585 19.5023C78.2609 18.9834 78.412 18.4485 78.5118 17.8975C78.5998 17.412 78.6495 16.9129 78.6611 16.4C78.6859 15.8896 78.6564 15.4167 78.5726 14.9814C78.4889 14.5461 78.3318 14.1788 78.1015 13.8795C77.8843 13.5826 77.5777 13.405 77.1818 13.3467C76.6677 13.2669 76.2278 13.3767 75.8619 13.6762C75.5091 13.978 75.2184 14.386 74.9897 14.9001C74.7766 15.4034 74.6177 15.9438 74.5131 16.521C74.3919 17.1901 74.3452 17.8592 74.3731 18.5283C74.4009 19.1974 74.5342 19.7704 74.773 20.2474C75.0273 20.7136 75.4246 20.989 75.9648 21.0736Z" fill="#F7F7F7"/>
<path id="l_3" d="M88.2426 25.6851C88.7234 25.9721 89.0917 26.0056 89.3474 25.7855C89.6213 25.5609 89.895 25.2196 90.1685 24.7617L94.3831 17.7044C94.5062 17.4983 94.6521 17.2671 94.8207 17.0106C94.9963 16.7427 95.1707 16.4897 95.344 16.2515C95.154 16.1536 94.9296 16.0353 94.6709 15.8964C94.4304 15.7529 94.2438 15.6493 94.1111 15.5855L94.8904 14.2805C95.6918 14.7589 96.3386 15.0672 96.8305 15.2056C97.3225 15.3439 97.6599 15.3901 97.8428 15.3439L98.7702 15.8974L92.6789 26.097C92.5832 26.2572 92.4408 26.4828 92.2516 26.7736C92.0692 27.0529 91.888 27.3174 91.7078 27.567C91.9161 27.6603 92.1291 27.7719 92.3466 27.9017C92.571 28.0201 92.7404 28.1134 92.8549 28.1818L92.0755 29.4868L87.576 26.8013L88.2426 25.6851Z" fill="#F7F7F7"/>
<path id="e" d="M96.7462 34.0508C96.0186 33.4043 95.5175 32.6737 95.2429 31.8588C94.9771 31.0341 94.951 30.1904 95.1647 29.328C95.3873 28.4556 95.8574 27.6158 96.575 26.8087C97.1952 26.1112 97.93 25.5958 98.7794 25.2625C99.6288 24.9292 100.496 24.8262 101.382 24.9535C102.287 25.0797 103.113 25.4749 103.861 26.1391C104.279 26.511 104.635 26.9339 104.927 27.4078C105.229 27.8716 105.415 28.3848 105.486 28.9472C105.566 29.5184 105.489 30.1274 105.253 30.7739C105.027 31.4293 104.59 32.1113 103.942 32.8199L98.9588 28.5523C98.4804 29.0903 98.1155 29.6312 97.8641 30.1748C97.6227 30.7272 97.5458 31.2653 97.6333 31.789C97.7208 32.3126 98.0236 32.8047 98.5419 33.2652C98.8409 33.5309 99.2657 33.7656 99.8161 33.9693C100.385 34.1719 101.025 34.2145 101.736 34.0971L101.851 35.3226C101.04 35.512 100.311 35.5596 99.6633 35.4656C99.0243 35.3615 98.4606 35.1728 97.9722 34.8994C97.4938 34.6348 97.0851 34.3519 96.7462 34.0508ZM99.9788 27.5857L102.73 30.0301C103.269 29.4034 103.535 28.8637 103.527 28.4109C103.528 27.9481 103.354 27.5617 103.005 27.2518C102.567 26.8621 102.081 26.716 101.549 26.8134C101.025 26.9009 100.501 27.1583 99.9788 27.5857Z" fill="#F7F7F7"/>
<path id="a" d="M103.609 42.0166C103.744 41.8853 103.856 41.7789 103.946 41.6976C104.053 41.6191 104.174 41.5236 104.306 41.4109C103.672 41.3109 103.131 41.111 102.682 40.8111C102.233 40.5112 101.856 40.151 101.55 39.7305C101.048 39.0405 100.86 38.3525 100.988 37.6664C101.115 36.9803 101.486 36.4137 102.101 35.9667C102.618 35.5903 103.154 35.3982 103.709 35.3903C104.272 35.3932 104.824 35.528 105.364 35.7945C105.923 36.064 106.454 36.4198 106.957 36.8618C107.478 37.3068 107.946 37.791 108.36 38.3143L109.201 37.7027C109.622 37.3968 109.915 37.0518 110.08 36.6676C110.254 36.2941 110.169 35.8942 109.826 35.4679C109.475 35.0308 109.057 34.774 108.573 34.6976C108.538 34.8544 108.47 34.9867 108.367 35.0945C108.275 35.1945 108.185 35.2759 108.099 35.3386C107.884 35.4954 107.594 35.5739 107.232 35.5739C106.88 35.5661 106.572 35.3696 106.308 34.9844C106.083 34.6531 106.016 34.3228 106.106 33.9935C106.196 33.6641 106.387 33.3936 106.678 33.1819C107.11 32.8682 107.591 32.7486 108.124 32.823C108.675 32.9005 109.225 33.1352 109.774 33.5272C110.334 33.9114 110.841 34.4161 111.296 35.0414C111.987 35.9902 112.272 36.9037 112.153 37.7819C112.052 38.6631 111.462 39.4957 110.384 40.2799C110.017 40.5465 109.704 40.7739 109.446 40.9622C109.187 41.1504 108.924 41.3332 108.657 41.5106C108.399 41.6988 108.086 41.9262 107.719 42.1928C107.568 42.3026 107.349 42.4541 107.061 42.6472C106.783 42.8324 106.513 43.0045 106.249 43.1633C106.404 43.3309 106.556 43.5171 106.705 43.7219C106.865 43.9189 106.984 44.0713 107.062 44.1791L105.833 45.0731L103.609 42.0166ZM107.2 39.1333C106.706 38.5688 106.17 38.1596 105.589 37.9058C105.017 37.6627 104.502 37.7152 104.047 38.0632C103.752 38.2935 103.607 38.5474 103.611 38.8248C103.615 39.1021 103.704 39.3594 103.876 39.5966C104.057 39.8446 104.279 40.0372 104.544 40.1744C104.809 40.3116 105.09 40.4037 105.388 40.4507L107.2 39.1333Z" fill="#F7F7F7"/>
<path id="r_2" d="M106.733 45.0874C106.957 45.586 107.24 45.8244 107.581 45.8026C107.934 45.7754 108.354 45.6525 108.841 45.4338L111.905 44.0562C112.124 43.9578 112.37 43.8545 112.643 43.7464C112.928 43.6328 113.21 43.5281 113.489 43.4321C113.389 43.243 113.273 43.0175 113.14 42.7554C113.025 42.5 112.932 42.3082 112.86 42.1799L114.246 41.5567L114.574 42.2863C114.787 42.7605 115.042 43.1649 115.339 43.4993C115.641 43.8459 115.88 44.0527 116.057 44.1196L116.459 45.0134C116.348 45.0924 116.125 45.2145 115.79 45.3797C115.467 45.5395 115.178 45.6768 114.923 45.7916C115.749 46.0046 116.386 46.2665 116.833 46.5773C117.28 46.8881 117.602 47.2624 117.799 47.7002C117.99 48.1258 118.035 48.5513 117.934 48.9768C117.845 49.3968 117.533 49.7271 116.998 49.9676C116.816 50.0496 116.602 50.0945 116.357 50.1024C116.124 50.1047 115.9 50.0448 115.684 49.9225C115.468 49.8002 115.289 49.581 115.147 49.2649C115.038 49.0217 114.999 48.7396 115.03 48.4186C115.061 48.0977 115.275 47.826 115.672 47.6037C115.563 47.3605 115.35 47.1637 115.034 47.0135C114.73 46.8577 114.394 46.7455 114.027 46.6766C113.677 46.6145 113.371 46.5989 113.107 46.6298L110.133 47.9664C109.963 48.043 109.717 48.1462 109.395 48.2762C109.086 48.4007 108.786 48.5137 108.495 48.6151C108.607 48.7987 108.715 49.006 108.819 49.2371C108.94 49.4748 109.028 49.6545 109.083 49.7761L107.697 50.3993L105.547 45.6205L106.733 45.0874Z" fill="#F7F7F7"/>
<path id="n_2" d="M108.699 53.605L109.972 53.3375C110.084 53.8725 110.309 54.1657 110.647 54.2173C110.998 54.2662 111.435 54.2357 111.956 54.126L115.245 53.4347C115.479 53.3853 115.742 53.337 116.032 53.2897C116.334 53.2396 116.632 53.1975 116.925 53.1632C116.868 52.9572 116.803 52.7121 116.729 52.4277C116.671 52.1537 116.621 51.9463 116.578 51.8056L118.065 51.4928C118.255 52.3931 118.465 53.0709 118.697 53.5263C118.932 53.9947 119.129 54.2804 119.286 54.3834L119.488 55.3424C119.324 55.4042 119.203 55.4433 119.125 55.4598C119.046 55.4762 118.968 55.4927 118.89 55.5091C118.827 55.5359 118.709 55.5881 118.534 55.6656C118.798 55.8827 119.044 56.1444 119.272 56.4507C119.513 56.7543 119.715 57.0661 119.877 57.3861C120.053 57.7034 120.168 57.9925 120.223 58.2535C120.476 59.4539 120.308 60.3747 119.721 61.0159C119.15 61.6674 118.107 62.1523 116.594 62.4705L113.971 63.0219C113.788 63.0603 113.526 63.1086 113.184 63.1669C112.855 63.2224 112.538 63.2687 112.232 63.3057C112.305 63.522 112.367 63.7541 112.419 64.002C112.485 64.2472 112.531 64.435 112.558 64.5655L111.071 64.8782L109.992 59.7504L111.264 59.483C111.38 60.031 111.606 60.3308 111.944 60.3824C112.295 60.4312 112.731 60.4008 113.253 60.2911L116.029 59.6872C116.877 59.5089 117.477 59.2532 117.829 58.9203C118.197 58.5977 118.321 58.1493 118.2 57.5752C118.132 57.249 117.991 56.9379 117.779 56.6419C117.57 56.3589 117.344 56.1271 117.101 55.9464L112.678 56.8764C112.495 56.9148 112.233 56.9631 111.891 57.0214C111.562 57.0769 111.245 57.1232 110.939 57.1602C111.009 57.3635 111.07 57.5891 111.123 57.837C111.19 58.0952 111.238 58.2895 111.266 58.42L109.778 58.7327L108.699 53.605Z" fill="#F7F7F7"/>
<path id="m" d="M110.147 71.0137L111.418 71.2902C111.301 71.8243 111.387 72.184 111.674 72.3693C111.974 72.5575 112.385 72.7082 112.906 72.8216L116.189 73.5361C116.424 73.5871 116.683 73.6503 116.966 73.7257C117.263 73.804 117.552 73.8873 117.833 73.9757C117.866 73.7644 117.906 73.5141 117.956 73.2246C118.015 72.951 118.054 72.7412 118.072 72.595L119.558 72.9182C119.362 73.8172 119.277 74.5218 119.302 75.0322C119.324 75.5556 119.387 75.8966 119.489 76.0553L119.28 77.0128C119.144 77.0105 118.978 76.9881 118.783 76.9456C118.585 76.9161 118.419 76.8937 118.286 76.8784C118.528 77.395 118.692 77.9287 118.777 78.4793C118.859 79.043 118.85 79.5528 118.751 80.0088C118.62 80.6081 118.402 81.079 118.095 81.4217C117.801 81.7671 117.414 82.0104 116.933 82.1513C117.222 82.7054 117.423 83.288 117.535 83.8993C117.645 84.5235 117.643 85.0962 117.529 85.6173C117.3 86.6726 116.82 87.4007 116.092 87.8016C115.373 88.2184 114.265 88.2637 112.767 87.9377L109.894 87.3126C109.712 87.2729 109.452 87.2097 109.116 87.1229C108.794 87.039 108.485 86.9514 108.191 86.8602C108.172 87.0743 108.135 87.3051 108.081 87.5526C108.038 87.816 108.002 88.0129 107.973 88.1432L106.488 87.82L107.565 82.8758L108.835 83.1522C108.736 83.6082 108.832 83.9158 109.125 84.0751C109.428 84.2502 109.84 84.3944 110.361 84.5078L113.351 85.1585C114.201 85.3297 114.819 85.314 115.204 85.1113C115.586 84.9216 115.832 84.6067 115.942 84.1666C116.028 83.8307 116.039 83.4987 115.974 83.1707C115.906 82.8558 115.807 82.5612 115.675 82.287C115.129 82.2908 114.497 82.2148 113.781 82.0589L111.162 81.489C110.98 81.4493 110.72 81.3861 110.384 81.2994C110.062 81.2155 109.753 81.1279 109.459 81.0366C109.44 81.2507 109.403 81.4816 109.349 81.7291C109.308 81.9795 109.272 82.1763 109.241 82.3196L107.756 81.9964L108.854 76.9546L110.124 77.231C110.016 77.726 110.107 78.0597 110.397 78.232C110.698 78.4201 111.108 78.5709 111.629 78.6843L114.682 79.3281C115.529 79.5124 116.136 79.5148 116.502 79.3353C116.869 79.1558 117.107 78.846 117.216 78.4059C117.287 78.0802 117.282 77.7585 117.202 77.4406C117.118 77.1359 117.002 76.8515 116.855 76.5875L112.438 75.6264C112.256 75.5867 111.997 75.5235 111.661 75.4367C111.338 75.3528 111.03 75.2652 110.736 75.174C110.716 75.3881 110.683 75.6059 110.634 75.8274C110.599 76.0517 110.567 76.229 110.539 76.3593L109.054 76.0361L110.147 71.0137Z" fill="#F7F7F7"/>
<path id="o_4" d="M104.064 87.8381C104.503 86.9842 105.083 86.3077 105.804 85.8086C106.525 85.3096 107.327 85.032 108.21 84.9759C109.099 84.9378 110.007 85.1562 110.932 85.6312C111.916 86.1367 112.673 86.7799 113.201 87.5607C113.735 88.3595 114.03 89.2004 114.086 90.0834C114.147 90.9845 113.971 91.8382 113.557 92.6447C113.118 93.4986 112.541 94.1691 111.826 94.6563C111.111 95.1435 110.309 95.4062 109.42 95.4443C108.543 95.4886 107.63 95.2671 106.681 94.7799C105.685 94.2683 104.916 93.634 104.376 92.8769C103.836 92.1198 103.534 91.3056 103.472 90.4344C103.422 89.5693 103.619 88.7038 104.064 87.8381ZM105.291 88.5578C105.059 89.0383 105.042 89.4794 105.241 89.881C105.433 90.2945 105.748 90.6735 106.185 91.0181C106.623 91.3627 107.091 91.6629 107.589 91.9186C108.028 92.144 108.491 92.3368 108.978 92.497C109.459 92.6692 109.92 92.7785 110.361 92.8249C110.802 92.8714 111.199 92.828 111.552 92.6947C111.9 92.5732 112.159 92.3315 112.33 91.9696C112.555 91.501 112.578 91.0481 112.398 90.6109C112.212 90.1855 111.906 89.7887 111.481 89.4204C111.061 89.0701 110.59 88.7609 110.069 88.493C109.464 88.1824 108.837 87.9431 108.189 87.7751C107.541 87.6072 106.954 87.568 106.428 87.6578C105.908 87.7655 105.529 88.0655 105.291 88.5578Z" fill="#F7F7F7"/>
<path id="r_3" d="M102.275 93.4365C101.928 93.8582 101.839 94.2171 102.009 94.5132C102.19 94.8179 102.486 95.1399 102.898 95.4792L105.49 97.617C105.675 97.7697 105.877 97.9445 106.094 98.1414C106.322 98.3468 106.541 98.5531 106.75 98.7603C106.876 98.5873 107.027 98.3834 107.203 98.1486C107.382 97.9327 107.512 97.7639 107.595 97.6423L108.768 98.6094L108.259 99.2264C107.928 99.6275 107.678 100.035 107.509 100.449C107.332 100.873 107.252 101.179 107.27 101.367L106.647 102.123C106.527 102.058 106.319 101.913 106.022 101.685C105.736 101.467 105.485 101.268 105.269 101.09C105.444 101.925 105.491 102.612 105.41 103.15C105.329 103.688 105.135 104.143 104.83 104.513C104.533 104.873 104.171 105.102 103.745 105.199C103.329 105.306 102.894 105.172 102.442 104.799C102.287 104.671 102.153 104.5 102.037 104.284C101.932 104.076 101.886 103.848 101.901 103.601C101.915 103.353 102.032 103.096 102.253 102.828C102.422 102.623 102.658 102.463 102.96 102.348C103.261 102.234 103.6 102.306 103.975 102.564C104.145 102.358 104.227 102.08 104.222 101.73C104.227 101.389 104.179 101.038 104.078 100.679C103.979 100.338 103.858 100.056 103.713 99.8329L101.198 97.7588C101.054 97.64 100.853 97.4652 100.594 97.2343C100.345 97.012 100.111 96.793 99.8912 96.5773C99.776 96.7588 99.6378 96.9472 99.4765 97.1426C99.3171 97.3568 99.1949 97.5153 99.1101 97.6181L97.9374 96.651L101.273 92.6094L102.275 93.4365Z" fill="#F7F7F7"/>
<path id="e_2" d="M91.5354 101.701C92.2956 101.093 93.1005 100.722 93.9502 100.589C94.8083 100.466 95.6444 100.583 96.4587 100.939C97.2814 101.305 98.0301 101.91 98.7048 102.754C99.288 103.482 99.6722 104.293 99.8576 105.186C100.043 106.08 99.9981 106.952 99.7232 107.804C99.4462 108.674 98.9173 109.421 98.1363 110.046C97.6989 110.395 97.222 110.674 96.7055 110.883C96.1974 111.101 95.66 111.198 95.0936 111.173C94.5167 111.156 93.9294 110.977 93.3317 110.636C92.7236 110.303 92.1248 109.757 91.5354 108.999L96.5837 104.808C96.1338 104.246 95.6621 103.795 95.1685 103.456C94.6646 103.125 94.147 102.958 93.616 102.956C93.0849 102.954 92.5486 103.17 92.0071 103.603C91.6947 103.852 91.3917 104.231 91.0981 104.739C90.8023 105.266 90.6524 105.89 90.6482 106.61L89.4205 106.516C89.3705 105.685 89.4466 104.959 89.6486 104.336C89.8589 103.724 90.1401 103.201 90.492 102.765C90.8336 102.339 91.1814 101.984 91.5354 101.701ZM97.3647 105.976L94.4907 108.275C95.0176 108.912 95.5049 109.265 95.9527 109.334C96.4087 109.413 96.819 109.307 97.1835 109.015C97.6417 108.649 97.8676 108.195 97.8614 107.653C97.8635 107.123 97.6979 106.564 97.3647 105.976Z" fill="#F7F7F7"/>
</g>
<path id="straightArrow" d="M64.0242 41.0078V95.2792M64.0242 95.2792L56.6362 81.9944M64.0242 95.2792L71.7668 81.9944" stroke="#F7F7F7" stroke-width="2" stroke-linecap="round"/>
</g>
</svg>
