<svg width="71" height="64" viewBox="0 0 71 64" fill="none" xmlns="http://www.w3.org/2000/svg">
<g id="letterCircle">
<g id="letters">
<path id="s" d="M19.3799 52.8549C19.6062 53.0309 19.8044 53.2315 19.9746 53.4567C20.1448 53.682 20.2552 53.886 20.3059 54.069L20.4765 53.8216L21.0765 54.2882L20.0392 55.6603L19.5261 55.2613C19.6903 55.0006 19.7256 54.6987 19.6319 54.3555C19.534 54.0176 19.3167 53.7177 18.9798 53.4558C18.8483 53.3535 18.6997 53.2887 18.5342 53.2613C18.3688 53.234 18.2321 53.2882 18.1244 53.424C18.0096 53.5796 18.0021 53.7553 18.1019 53.9512C18.1966 54.143 18.3457 54.411 18.5492 54.755C18.6627 54.9446 18.7767 55.1388 18.8912 55.3376C19.0005 55.5324 19.0889 55.7321 19.1564 55.9366C19.2146 56.1422 19.2298 56.3483 19.2021 56.5548C19.1703 56.7665 19.0716 56.9769 18.9059 57.1858C18.7443 57.3895 18.5369 57.5491 18.2836 57.6646C18.0251 57.776 17.7356 57.8085 17.4151 57.7619C17.0947 57.7154 16.7634 57.5591 16.4213 57.2931C16.2792 57.1826 16.1374 57.0343 15.9957 56.8482C15.8447 56.6631 15.7412 56.4771 15.6853 56.2901L15.5051 56.5173L14.9052 56.0508L16.005 54.664L16.5182 55.063C16.3501 55.3715 16.3013 55.6797 16.3717 55.9879C16.4422 56.296 16.6195 56.5605 16.9037 56.7815C17.0352 56.8838 17.1811 56.9466 17.3414 56.9699C17.4963 56.9891 17.6339 56.9229 17.754 56.7714C17.8493 56.6513 17.8839 56.5219 17.8577 56.3833C17.8273 56.2499 17.7571 56.1024 17.647 55.9409C17.537 55.7793 17.4173 55.5975 17.2881 55.3957C17.0901 55.0982 16.9361 54.8096 16.8262 54.5299C16.711 54.246 16.6612 53.9709 16.6768 53.7044C16.6884 53.4431 16.7915 53.1897 16.9862 52.9442C17.2016 52.6726 17.4482 52.5012 17.7258 52.43C18.0035 52.3588 18.2881 52.3648 18.5796 52.4479C18.8658 52.5269 19.1325 52.6625 19.3799 52.8549Z" fill="#F7F7F7"/>
<path id="c" d="M15.9858 49.2472C16.2748 49.5878 16.4632 49.9644 16.5509 50.377C16.6387 50.7895 16.6099 51.2038 16.4644 51.6196C16.3146 52.0304 16.0321 52.4084 15.617 52.7538C15.2275 53.0778 14.8027 53.2881 14.3426 53.3847C13.8774 53.4855 13.4223 53.4696 12.9774 53.3367C12.5281 53.1988 12.1375 52.9342 11.8054 52.5427C11.5293 52.2174 11.352 51.9053 11.2733 51.6066C11.1852 51.307 11.1779 51.0356 11.2513 50.7924C11.3153 50.5484 11.437 50.3518 11.6164 50.2025C11.765 50.0789 11.9371 50.0138 12.1326 50.0072C12.3187 49.9999 12.4833 50.0754 12.6264 50.2338C12.7955 50.4227 12.856 50.6022 12.8079 50.7722C12.7547 50.9465 12.6743 51.0785 12.5667 51.168C12.5206 51.2064 12.4603 51.2435 12.3858 51.2794C12.3063 51.3196 12.2279 51.3457 12.1508 51.3579C12.0855 51.5076 12.0892 51.6562 12.162 51.8038C12.2347 51.9514 12.3039 52.0587 12.3694 52.1256C12.5918 52.3568 12.8852 52.4552 13.2495 52.421C13.6138 52.3867 14.0138 52.1884 14.4495 51.826C14.7057 51.6128 14.9207 51.3819 15.0945 51.1333C15.2588 50.8839 15.3502 50.6258 15.3686 50.359C15.387 50.0922 15.2957 49.83 15.0946 49.5724C14.9185 49.3546 14.6905 49.1888 14.4103 49.075C14.1301 48.9612 13.8374 48.9099 13.5322 48.921L13.5805 48.2825C13.992 48.2523 14.3485 48.2809 14.65 48.3683C14.9515 48.4558 15.2094 48.5794 15.4237 48.7393C15.6389 48.8898 15.8262 49.0591 15.9858 49.2472Z" fill="#F7F7F7"/>
<path id="r" d="M13.6706 47.2489C13.5404 47.0085 13.3903 46.8995 13.2204 46.9218C13.0447 46.9473 12.839 47.0226 12.6035 47.1477L11.1199 47.9358C11.0139 47.9921 10.8946 48.0517 10.7619 48.1147C10.6233 48.1807 10.4861 48.2423 10.3502 48.2994C10.4069 48.3901 10.4731 48.4983 10.5489 48.6241C10.6156 48.7472 10.6693 48.8394 10.7101 48.9008L10.039 49.2573L9.84841 48.9056C9.72455 48.677 9.58237 48.4846 9.42187 48.3283C9.25819 48.1661 9.13103 48.0714 9.04039 48.0441L8.80697 47.6132C8.85949 47.5702 8.96659 47.502 9.12826 47.4086C9.28405 47.3183 9.42376 47.2403 9.5474 47.1746C9.12599 47.0965 8.79788 46.9877 8.56309 46.8483C8.32829 46.7088 8.15373 46.5335 8.0394 46.3225C7.92824 46.1174 7.89025 45.9073 7.92543 45.6924C7.95472 45.4805 8.09889 45.3058 8.35794 45.1682C8.44625 45.1213 8.55156 45.0918 8.67388 45.0796C8.79032 45.0706 8.90473 45.0929 9.01713 45.1464C9.12953 45.1999 9.22702 45.3029 9.30959 45.4553C9.37311 45.5725 9.40289 45.7114 9.39894 45.8721C9.39498 46.0327 9.29768 46.175 9.10703 46.2989C9.17055 46.4161 9.28411 46.5068 9.44772 46.5708C9.60544 46.638 9.77741 46.6825 9.96364 46.7044C10.1408 46.7235 10.2948 46.7209 10.4258 46.6967L11.8653 45.932C11.9477 45.8882 12.067 45.8286 12.2233 45.7531C12.3736 45.6808 12.5197 45.6145 12.6615 45.5543C12.5989 45.4668 12.5374 45.3673 12.4771 45.256C12.4077 45.1419 12.3571 45.0555 12.3253 44.9969L12.9965 44.6403L14.2446 46.9439L13.6706 47.2489Z" fill="#F7F7F7"/>
<path id="o" d="M11.6461 40.1361C11.7786 40.5975 11.7988 41.042 11.7067 41.4696C11.6145 41.8973 11.4168 42.2716 11.1136 42.5924C10.8022 42.9087 10.3962 43.1373 9.89566 43.2783C9.36305 43.4283 8.86653 43.4504 8.40609 43.3446C7.9374 43.2342 7.5415 43.0271 7.21841 42.7233C6.88705 42.415 6.65879 42.0429 6.53363 41.6072C6.4011 41.1459 6.38184 40.7046 6.47585 40.2833C6.56986 39.8621 6.77259 39.4933 7.08403 39.177C7.38906 38.8625 7.79825 38.633 8.31161 38.4884C8.85064 38.3366 9.34853 38.3072 9.80529 38.4002C10.262 38.4932 10.6511 38.6884 10.9723 38.9857C11.2871 39.2849 11.5117 39.6684 11.6461 40.1361ZM10.9517 40.2902C10.8716 40.0357 10.7266 39.8687 10.5165 39.7894C10.3046 39.7036 10.0597 39.6722 9.78188 39.695C9.50406 39.7178 9.23039 39.7672 8.96088 39.8431C8.72345 39.91 8.48833 39.997 8.25553 40.1041C8.02089 40.2048 7.81515 40.3217 7.63831 40.4546C7.46147 40.5875 7.33141 40.7384 7.24814 40.9073C7.16303 41.0698 7.1513 41.2462 7.21294 41.4367C7.29114 41.6847 7.43804 41.8581 7.65363 41.9567C7.86738 42.0488 8.11501 42.0899 8.39652 42.0799C8.66976 42.0652 8.94756 42.0182 9.22991 41.9386C9.55718 41.8465 9.8679 41.7209 10.1621 41.5618C10.4563 41.4028 10.684 41.2174 10.8451 41.0058C10.998 40.7896 11.0335 40.5511 10.9517 40.2902Z" fill="#F7F7F7"/>
<path id="l" d="M10.3249 37.0491C10.3023 36.77 10.2092 36.6102 10.0454 36.5696C9.87439 36.523 9.65599 36.5102 9.39015 36.5312L5.29295 36.8553C5.17333 36.8648 5.03682 36.8723 4.88342 36.8777C4.72339 36.8837 4.56973 36.8858 4.42244 36.8841C4.43768 36.9899 4.45452 37.1156 4.47298 37.2613C4.48425 37.4008 4.49616 37.5069 4.50871 37.5794L3.75108 37.6394C3.7135 37.1742 3.65156 36.8213 3.56523 36.5807C3.47891 36.3401 3.39984 36.1892 3.32801 36.128L3.28453 35.5898L9.20603 35.1213C9.29907 35.114 9.43226 35.1068 9.60559 35.0997C9.77228 35.0932 9.93258 35.0906 10.0865 35.0918C10.0641 34.9799 10.0478 34.8608 10.0376 34.7345C10.0207 34.6088 10.0096 34.5127 10.0043 34.4463L10.7619 34.3863L10.9729 36.9978L10.3249 37.0491Z" fill="#F7F7F7"/>
<path id="l_2" d="M10.2506 32.9775C10.2737 32.6985 10.2078 32.526 10.0527 32.46C9.89158 32.3868 9.6781 32.3394 9.4123 32.318L5.31561 31.9874C5.196 31.9778 5.06005 31.9635 4.90777 31.9445C4.74884 31.925 4.59683 31.9027 4.45174 31.8776C4.44956 31.9844 4.44571 32.1112 4.44022 32.2579C4.42862 32.3974 4.42311 32.504 4.42369 32.5776L3.66615 32.5165C3.70479 32.0514 3.7011 31.6933 3.65507 31.4421C3.60904 31.1909 3.55556 31.0294 3.49463 30.9576L3.53934 30.4195L9.4601 30.8972C9.55313 30.9047 9.68576 30.9188 9.85798 30.9394C10.0236 30.9594 10.1822 30.9823 10.3339 31.0079C10.33 30.8939 10.3333 30.7737 10.3438 30.6475C10.3477 30.5207 10.3523 30.4241 10.3579 30.3577L11.1154 30.4188L10.8985 33.0298L10.2506 32.9775Z" fill="#F7F7F7"/>
<path id="d" d="M13.59 23.7223C13.418 24.0835 13.1725 24.3588 12.8534 24.5483C12.5372 24.7317 12.1697 24.8213 11.7508 24.8171C11.3348 24.8069 10.8943 24.6932 10.4291 24.4761C9.9398 24.2477 9.54927 23.9513 9.25753 23.5871C8.96578 23.2228 8.79141 22.8214 8.73442 22.3828C8.67743 21.9442 8.75496 21.5022 8.96702 21.0568C9.0444 20.8943 9.1313 20.7583 9.22772 20.6488C9.32097 20.5305 9.41597 20.424 9.5127 20.3293L8.91465 20.0502C8.83007 20.0107 8.71069 19.9513 8.55649 19.872C8.40229 19.7926 8.2616 19.7159 8.13443 19.6419C8.09462 19.741 8.04622 19.8582 7.98921 19.9934C7.93221 20.1287 7.88794 20.2294 7.85642 20.2956L7.16775 19.9741C7.36835 19.5528 7.49146 19.2167 7.53708 18.9658C7.58271 18.7148 7.58964 18.5452 7.55789 18.4568L7.79001 17.9692L13.1725 20.4817C13.2571 20.5211 13.3765 20.5805 13.5307 20.6599C13.6788 20.7364 13.8195 20.8131 13.9527 20.89C13.9894 20.782 14.0349 20.6709 14.0893 20.5565C14.1378 20.4393 14.1763 20.3506 14.2049 20.2904L14.8936 20.6119L14.0769 22.3274C14.0076 22.3024 13.9338 22.279 13.8556 22.2572C13.7802 22.2294 13.7064 22.206 13.6343 22.187C13.7451 22.4815 13.7926 22.7538 13.7769 23.004C13.7612 23.2541 13.6989 23.4936 13.59 23.7223ZM12.9889 22.8679C13.0634 22.7114 13.0929 22.5486 13.0774 22.3795C13.0559 22.2076 13.0003 22.0529 12.9107 21.9155L10.1923 20.6466C10.1153 20.6842 10.0331 20.7562 9.94555 20.8625C9.85199 20.9659 9.77512 21.0809 9.71494 21.2073C9.58916 21.487 9.57359 21.7446 9.66823 21.98C9.76287 22.2155 9.92431 22.4269 10.1525 22.6144C10.3836 22.7958 10.6412 22.9528 10.9251 23.0854C11.1788 23.2038 11.4438 23.2907 11.7202 23.3461C11.9994 23.3955 12.2535 23.3891 12.4825 23.3268C12.7083 23.2556 12.8771 23.1027 12.9889 22.8679Z" fill="#F7F7F7"/>
<path id="o_2" d="M17.1513 18.455C16.85 18.8286 16.4969 19.1019 16.0921 19.2747C15.6873 19.4476 15.2647 19.5044 14.8243 19.4452C14.3829 19.3767 13.9582 19.1812 13.5503 18.8587C13.1162 18.5155 12.8082 18.1276 12.6262 17.6948C12.4432 17.2527 12.382 16.8134 12.4427 16.377C12.5024 15.9313 12.6745 15.532 12.959 15.1791C13.2603 14.8054 13.6113 14.5348 14.0119 14.3671C14.4126 14.1995 14.8336 14.1499 15.275 14.2184C15.7112 14.2828 16.1385 14.4804 16.5569 14.8112C16.9962 15.1584 17.311 15.5433 17.5014 15.9657C17.6917 16.3881 17.7586 16.8149 17.7021 17.2461C17.6404 17.6732 17.4567 18.0761 17.1513 18.455ZM16.6194 17.9835C16.7816 17.7718 16.8339 17.5582 16.7764 17.3428C16.723 17.1222 16.6059 16.9064 16.4249 16.6953C16.244 16.4843 16.0437 16.292 15.824 16.1183C15.6305 15.9654 15.4219 15.8259 15.198 15.6999C14.9784 15.5688 14.7624 15.4703 14.55 15.4044C14.3377 15.3385 14.1379 15.3208 13.9506 15.3512C13.7676 15.3764 13.6159 15.469 13.4956 15.6288C13.3376 15.8353 13.2811 16.0541 13.3261 16.2851C13.3752 16.5109 13.4861 16.7345 13.6587 16.9559C13.8302 17.168 14.031 17.365 14.2612 17.5469C14.5279 17.7578 14.8124 17.9359 15.1147 18.0814C15.417 18.2269 15.702 18.3035 15.9698 18.3113C16.2365 18.3097 16.4531 18.2005 16.6194 17.9835Z" fill="#F7F7F7"/>
<path id="w" d="M20.6418 15.1171L17.5704 13.0797C17.4173 12.9777 17.3012 12.9021 17.222 12.8531C17.1481 12.8001 17.0877 12.7537 17.0406 12.7139C16.9936 12.6742 16.9379 12.6284 16.8734 12.5767L16.5729 12.8259L16.1126 12.2212L18.036 10.7857L18.4237 11.295C18.2621 11.4239 18.2144 11.5593 18.2805 11.7013C18.3467 11.8432 18.4637 11.9805 18.6316 12.113L19.643 12.8804C19.7639 12.9732 19.8882 13.0759 20.0159 13.1886C20.1448 13.292 20.2685 13.3994 20.3867 13.5107C20.3287 13.3794 20.2625 13.2374 20.1883 13.0849C20.1194 12.9283 20.0396 12.73 19.949 12.4899L19.0138 10.056L19.8873 9.4041L22.2001 11.1218C22.317 11.2092 22.4419 11.3073 22.5749 11.416C22.7092 11.5154 22.8301 11.6082 22.9376 11.6943C22.8782 11.5723 22.8187 11.4337 22.7592 11.2784C22.6997 11.1232 22.6476 10.9833 22.603 10.8585L22.1463 9.61473C22.08 9.43961 22.0286 9.29499 21.992 9.18089C21.9514 9.06148 21.9188 8.93609 21.8942 8.80472L21.4616 9.17747L21.0013 8.57273L22.524 7.43633L22.9116 7.94558C22.8047 8.02533 22.7375 8.12959 22.7098 8.25836C22.6822 8.38713 22.6747 8.52584 22.6873 8.67447C22.7012 8.81382 22.7258 8.94519 22.7611 9.06859C22.7923 9.18668 22.8201 9.27823 22.8445 9.34324L23.9357 12.6589L23.0862 13.2928L21.2431 12.0107C21.1826 11.9643 21.0913 11.8994 20.9691 11.8159C20.8523 11.7284 20.7267 11.635 20.5924 11.5356C20.4594 11.4269 20.3344 11.3288 20.2176 11.2413C20.3039 11.4098 20.3931 11.6094 20.485 11.8403C20.577 12.0711 20.6594 12.2841 20.7325 12.4791C20.8055 12.6741 20.8536 12.8088 20.8766 12.8831L21.4352 14.5249L20.6418 15.1171Z" fill="#F7F7F7"/>
<path id="n" d="M24.8889 12.4737L24.6368 11.8746C24.8895 11.7703 25.0125 11.633 25.006 11.4627C24.9968 11.2862 24.9405 11.075 24.8371 10.8292L24.1856 9.28068C24.1391 9.17007 24.0905 9.0459 24.0398 8.90817C23.9865 8.76429 23.9376 8.62221 23.893 8.48194C23.797 8.52875 23.6825 8.5832 23.5495 8.64527C23.4201 8.69865 23.3227 8.7424 23.2575 8.7765L22.9628 8.07597C23.3881 7.90057 23.7018 7.73512 23.904 7.57961C24.1123 7.42156 24.2344 7.2991 24.2701 7.21223L24.7231 7.02539C24.7691 7.10019 24.7998 7.15603 24.8153 7.1929C24.8308 7.22977 24.8463 7.26664 24.8618 7.30351C24.8809 7.33169 24.9178 7.38499 24.9725 7.46339C25.0544 7.31423 25.1599 7.16973 25.2891 7.0299C25.4158 6.88392 25.5502 6.75638 25.6923 6.64727C25.8319 6.53202 25.9633 6.44897 26.0865 6.39813C26.6535 6.16426 27.1226 6.16187 27.4938 6.39096C27.8686 6.61136 28.206 7.07797 28.5058 7.7908L29.0255 9.02595C29.0616 9.11198 29.1103 9.23615 29.1713 9.39846C29.2298 9.55463 29.2826 9.70592 29.3297 9.85234C29.4293 9.79684 29.5377 9.74494 29.6548 9.69664C29.7693 9.64219 29.8573 9.60226 29.919 9.57684L30.2137 10.2774L27.7916 11.2764L27.5396 10.6773C27.7984 10.5705 27.9246 10.4319 27.918 10.2616C27.9088 10.0851 27.8525 9.87391 27.7491 9.62811L27.1892 8.32303C27.0212 7.92361 26.8386 7.6528 26.6413 7.5106C26.4477 7.35971 26.2153 7.3402 25.9441 7.45205C25.79 7.5156 25.6501 7.61295 25.5245 7.74409C25.405 7.8727 25.3123 8.0047 25.2463 8.14009L26.1227 10.2232C26.1589 10.3093 26.2075 10.4334 26.2685 10.5958C26.327 10.7519 26.3798 10.9032 26.4269 11.0496C26.5204 10.9967 26.6257 10.9461 26.7428 10.8978C26.8634 10.8408 26.9546 10.7996 27.0162 10.7741L27.3109 11.4747L24.8889 12.4737Z" fill="#F7F7F7"/>
<path id="t" d="M36.4414 10.2124C36.2415 10.2177 36.0476 10.1996 35.8597 10.1579C35.6785 10.116 35.5096 10.0338 35.3528 9.91132C35.2026 9.78195 35.0807 9.5918 34.9872 9.34087C34.8937 9.08994 34.8413 8.75456 34.8299 8.33471L34.7845 5.92506L34.1047 5.94321L34.0822 5.11351C34.2886 5.10133 34.4866 5.02602 34.6763 4.88758C34.8659 4.74914 35.0245 4.57151 35.152 4.3547C35.2861 4.13771 35.3734 3.91197 35.4137 3.67748L36.1534 3.65773L36.1814 5.05748L37.451 5.0236L37.4719 5.79332L36.2031 5.85719L36.2599 8.31655C36.2641 8.46983 36.2816 8.62275 36.3124 8.77531C36.3497 8.92104 36.413 9.04272 36.5023 9.14037C36.5915 9.23136 36.7194 9.27463 36.886 9.27018C36.9793 9.26769 37.105 9.23099 37.2632 9.16008C37.428 9.08899 37.6 8.91767 37.7794 8.64613L38.2714 9.08315C38.0987 9.35452 37.9178 9.5661 37.7285 9.71787C37.5392 9.86964 37.3555 9.98124 37.1774 10.0527C37.0059 10.124 36.8537 10.168 36.7208 10.1849C36.5878 10.2018 36.4947 10.211 36.4414 10.2124Z" fill="#F7F7F7"/>
<path id="o_3" d="M41.1914 10.8341C40.7189 10.7491 40.311 10.5708 39.9677 10.2991C39.6243 10.0274 39.3752 9.68453 39.2205 9.27062C39.0736 8.85132 39.0469 8.38592 39.1404 7.87441C39.24 7.3301 39.4385 6.87472 39.736 6.50824C40.0412 6.13639 40.4012 5.87261 40.816 5.7169C41.2385 5.55581 41.6729 5.51538 42.119 5.59561C42.5915 5.68056 42.9961 5.85832 43.3329 6.12886C43.6697 6.39941 43.9116 6.74433 44.0586 7.16363C44.2067 7.57636 44.2328 8.04504 44.1369 8.56967C44.0361 9.12053 43.8435 9.58038 43.5592 9.94921C43.2749 10.318 42.9286 10.5809 42.5204 10.7378C42.1134 10.8881 41.6704 10.9202 41.1914 10.8341ZM41.3585 10.1428C41.6221 10.1834 41.8358 10.127 41.9994 9.97353C42.1696 9.82124 42.3055 9.61538 42.4072 9.35595C42.5088 9.09652 42.5849 8.82909 42.6352 8.55366C42.6796 8.31101 42.7049 8.06155 42.7111 7.80528C42.7239 7.55018 42.7095 7.3139 42.668 7.09645C42.6264 6.879 42.5481 6.69558 42.4331 6.5462C42.3247 6.39801 42.1714 6.30949 41.9734 6.28065C41.7163 6.24119 41.4961 6.29642 41.3128 6.44635C41.1361 6.59745 40.9903 6.80154 40.8755 7.05862C40.7685 7.31031 40.6886 7.58043 40.6358 7.86898C40.5746 8.20343 40.5507 8.53781 40.5641 8.87213C40.5775 9.20644 40.6438 9.49268 40.7629 9.73085C40.8897 9.96365 41.0883 10.101 41.3585 10.1428Z" fill="#F7F7F7"/>
<path id="l_3" d="M48.2792 12.72C48.5203 12.8625 48.7051 12.8788 48.8336 12.7689C48.9713 12.6567 49.109 12.4864 49.2467 12.2581L51.3689 8.73834C51.4308 8.63558 51.5043 8.52024 51.5892 8.39232C51.6776 8.25869 51.7653 8.13247 51.8525 8.01365C51.7573 7.96508 51.6448 7.90633 51.5151 7.8374C51.3946 7.76616 51.301 7.71473 51.2345 7.68312L51.6269 7.03227C52.0286 7.26975 52.3529 7.42271 52.5996 7.49115C52.8464 7.55958 53.0157 7.58221 53.1075 7.55905L53.5723 7.83385L50.5052 12.9207C50.457 13.0007 50.3853 13.1131 50.2901 13.2582C50.1983 13.3975 50.107 13.5295 50.0164 13.654C50.1208 13.7002 50.2276 13.7556 50.3366 13.8201C50.4491 13.8788 50.534 13.9251 50.5914 13.9591L50.199 14.6099L47.9436 13.2766L48.2792 12.72Z" fill="#F7F7F7"/>
<path id="e" d="M52.918 17.1451C52.5526 16.8236 52.3011 16.4601 52.1634 16.0547C52.0301 15.6443 52.0172 15.2245 52.1248 14.7953C52.2369 14.3611 52.4733 13.9431 52.834 13.5412C53.1457 13.1939 53.515 12.9373 53.9418 12.7712C54.3686 12.6051 54.8045 12.5536 55.2495 12.6167C55.704 12.6792 56.1189 12.8756 56.4942 13.206C56.7044 13.391 56.8829 13.6013 57.0296 13.837C57.1808 14.0678 57.2742 14.3231 57.3096 14.6029C57.3501 14.8872 57.311 15.1902 57.1923 15.512C57.0786 15.8383 56.859 16.1778 56.5333 16.5306L54.031 14.4082C53.7905 14.6761 53.6071 14.9454 53.4806 15.2159C53.3592 15.4909 53.3204 15.7587 53.3642 16.0193C53.408 16.2798 53.56 16.5246 53.8203 16.7537C53.9704 16.8858 54.1837 17.0025 54.4601 17.1037C54.746 17.2043 55.0676 17.2253 55.4248 17.1667L55.482 17.7766C55.0747 17.871 54.7084 17.8949 54.383 17.8483C54.062 17.7967 53.7789 17.703 53.5336 17.567C53.2933 17.4355 53.0881 17.2949 52.918 17.1451ZM54.5437 13.9269L55.9249 15.1426C56.196 14.8306 56.3297 14.5619 56.3259 14.3366C56.3266 14.1063 56.2393 13.9141 56.0642 13.7599C55.844 13.5661 55.6001 13.4935 55.3325 13.5422C55.0693 13.5859 54.8064 13.7141 54.5437 13.9269Z" fill="#F7F7F7"/>
<path id="a" d="M56.7072 21.4752C56.775 21.4099 56.8313 21.3571 56.876 21.3166C56.9301 21.2777 56.9904 21.2302 57.0568 21.1741C56.7386 21.1239 56.4667 21.024 56.241 20.8744C56.0153 20.7248 55.8254 20.5452 55.6715 20.3357C55.4189 19.9919 55.3243 19.6492 55.3878 19.3077C55.4513 18.9662 55.6372 18.6845 55.9455 18.4624C56.2052 18.2753 56.4743 18.1801 56.753 18.1765C57.0356 18.1784 57.3126 18.2458 57.5841 18.3789C57.8649 18.5135 58.1318 18.691 58.3847 18.9114C58.647 19.1332 58.8822 19.3746 59.0904 19.6354L59.5123 19.3315C59.7233 19.1796 59.8702 19.008 59.9531 18.8168C60.04 18.631 59.9971 18.4319 59.8244 18.2194C59.6478 18.0016 59.4379 17.8734 59.1946 17.8351C59.1775 17.9131 59.1432 17.9789 59.0916 18.0325C59.0454 18.0822 59.0006 18.1227 58.9573 18.1539C58.8492 18.2318 58.704 18.2706 58.5218 18.2704C58.3451 18.2662 58.1903 18.1682 58.0576 17.9763C57.9446 17.8112 57.9106 17.6467 57.9556 17.4828C58.0007 17.3189 58.0962 17.1844 58.2423 17.0792C58.4587 16.9233 58.7006 16.8641 58.9679 16.9016C59.2447 16.9405 59.5211 17.0577 59.7971 17.2532C60.0785 17.4449 60.3337 17.6965 60.5626 18.0081C60.9099 18.4809 61.0539 18.9359 60.9945 19.373C60.9445 19.8116 60.649 20.2257 60.1081 20.6154C59.9241 20.7478 59.7673 20.8608 59.6374 20.9544C59.5076 21.0479 59.3758 21.1387 59.242 21.2268C59.1122 21.3203 58.9553 21.4333 58.7714 21.5658C58.6957 21.6204 58.5855 21.6956 58.4409 21.7915C58.3017 21.8836 58.166 21.969 58.0337 22.0479C58.1116 22.1314 58.188 22.2243 58.263 22.3263C58.3434 22.4245 58.4034 22.5005 58.4428 22.5542L57.8262 22.9984L56.7072 21.4752ZM58.5083 20.0423C58.2603 19.7609 57.9904 19.5569 57.6987 19.4301C57.411 19.3087 57.1528 19.3345 56.9242 19.5074C56.7767 19.6219 56.704 19.7481 56.7062 19.8862C56.7084 20.0243 56.7529 20.1525 56.8397 20.2707C56.9305 20.3942 57.0424 20.4903 57.1754 20.5588C57.3085 20.6272 57.4498 20.6733 57.5995 20.6969L58.5083 20.0423Z" fill="#F7F7F7"/>
<path id="r_2" d="M58.516 23.4117C58.629 23.6606 58.771 23.7798 58.942 23.7693C59.119 23.7562 59.3294 23.6954 59.573 23.5869L61.1077 22.9036C61.2174 22.8547 61.3405 22.8035 61.4773 22.75C61.6201 22.6937 61.7613 22.6417 61.9008 22.5942C61.8506 22.4998 61.7921 22.3872 61.7254 22.2564C61.6675 22.1289 61.6203 22.0331 61.5839 21.9691L62.2782 21.6599L62.4436 22.0242C62.5511 22.2609 62.6794 22.4628 62.8286 22.6299C62.9804 22.8031 63.1006 22.9065 63.1891 22.9401L63.3917 23.3863C63.3363 23.4255 63.2247 23.4861 63.0569 23.5681C62.8952 23.6474 62.7505 23.7155 62.6226 23.7725C63.0373 23.8797 63.3569 24.0111 63.5813 24.1666C63.8057 24.3221 63.9675 24.5091 64.0667 24.7276C64.1632 24.9401 64.1864 25.1523 64.1362 25.3644C64.0922 25.5737 63.9362 25.7381 63.6682 25.8574C63.5768 25.898 63.4698 25.9202 63.3469 25.9238C63.2302 25.9247 63.1176 25.8945 63.0093 25.8333C62.901 25.7721 62.811 25.6626 62.7393 25.5047C62.6842 25.3833 62.6642 25.2426 62.6794 25.0826C62.6946 24.9226 62.8016 24.7874 63.0004 24.677C62.9452 24.5556 62.8383 24.4572 62.6797 24.3819C62.5271 24.3039 62.3587 24.2475 62.1745 24.2128C61.9992 24.1814 61.8454 24.1732 61.7132 24.1883L60.2241 24.8513C60.1388 24.8893 60.0156 24.9405 59.8545 25.0049C59.6995 25.0667 59.5492 25.1226 59.4036 25.1729C59.4599 25.2646 59.5142 25.3681 59.5666 25.4834C59.6278 25.6021 59.6722 25.6918 59.6998 25.7525L59.0055 26.0616L57.9222 23.6761L58.516 23.4117Z" fill="#F7F7F7"/>
<path id="n_2" d="M59.6634 28.1426L60.2998 28.01C60.3566 28.2774 60.4695 28.4241 60.6386 28.4502C60.8142 28.4749 61.0326 28.4601 61.2937 28.4057L62.9384 28.0632C63.0559 28.0388 63.1871 28.0149 63.3321 27.9915C63.4836 27.9667 63.6325 27.9459 63.7788 27.9291C63.7502 27.8261 63.7173 27.7036 63.6803 27.5615C63.6512 27.4245 63.6258 27.3209 63.604 27.2505L64.3481 27.0955C64.4437 27.5455 64.5497 27.8843 64.6662 28.112C64.7841 28.3462 64.8826 28.4892 64.9617 28.5408L65.0635 29.0201C64.9815 29.0508 64.9208 29.0702 64.8817 29.0784C64.8425 29.0865 64.8034 29.0947 64.7642 29.1029C64.7329 29.1162 64.6737 29.1421 64.5865 29.1807C64.7186 29.2894 64.8419 29.4204 64.9562 29.5736C65.077 29.7255 65.1783 29.8814 65.26 30.0415C65.3482 30.2002 65.4062 30.3447 65.4339 30.4751C65.5613 31.0751 65.4784 31.535 65.1851 31.8548C64.8997 32.1798 64.3785 32.4211 63.6214 32.5788L62.3096 32.852C62.2182 32.871 62.087 32.8949 61.9159 32.9237C61.7513 32.9512 61.5926 32.974 61.4397 32.9922C61.4763 33.1004 61.5078 33.2164 61.5341 33.3403C61.5669 33.4629 61.5903 33.5567 61.6041 33.6219L60.8601 33.7769L60.3158 31.214L60.9521 31.0815C61.0103 31.3554 61.1239 31.5054 61.293 31.5315C61.4687 31.5562 61.687 31.5414 61.9481 31.487L63.3362 31.1877C63.7604 31.0994 64.0606 30.9722 64.2366 30.8062C64.4205 30.6453 64.482 30.4214 64.421 30.1345C64.3864 29.9714 64.3159 29.8159 64.2095 29.6678C64.1044 29.5262 63.9912 29.4102 63.8697 29.3198L61.6572 29.7805C61.5658 29.7995 61.4346 29.8234 61.2635 29.8522C61.099 29.8797 60.9403 29.9025 60.7874 29.9208C60.8226 30.0224 60.8534 30.1351 60.8797 30.259C60.9139 30.3881 60.9379 30.4852 60.9518 30.5505L60.2078 30.7054L59.6634 28.1426Z" fill="#F7F7F7"/>
<path id="m" d="M60.3428 37.837L60.9782 37.974C60.9195 38.2409 60.9619 38.4206 61.1055 38.5129C61.2555 38.6066 61.4609 38.6816 61.7216 38.7377L63.3638 39.0917C63.4812 39.117 63.6108 39.1483 63.7527 39.1858C63.9012 39.2246 64.0457 39.2659 64.1862 39.3099C64.2026 39.2043 64.2232 39.0792 64.2482 38.9345C64.2783 38.7978 64.2979 38.6929 64.3071 38.6199L65.0501 38.78C64.9513 39.2293 64.908 39.5814 64.9202 39.8364C64.931 40.0978 64.9618 40.2681 65.0127 40.3473L64.9075 40.8259C64.8395 40.8248 64.7566 40.8138 64.6588 40.7927C64.5596 40.7782 64.4767 40.7671 64.4101 40.7596C64.5309 41.0175 64.6123 41.2839 64.6542 41.559C64.6947 41.8405 64.6899 42.0952 64.6398 42.3231C64.5739 42.6226 64.4642 42.8581 64.3104 43.0295C64.1632 43.2024 63.9692 43.3242 63.7284 43.3951C63.8724 43.6716 63.9722 43.9625 64.028 44.2678C64.0823 44.5796 64.0808 44.8657 64.0236 45.1261C63.9076 45.6535 63.6672 46.0177 63.3022 46.2187C62.9423 46.4275 62.3876 46.4512 61.6382 46.2896L60.2012 45.9799C60.1099 45.9602 59.9803 45.9289 59.8123 45.8859C59.6508 45.8442 59.4965 45.8008 59.3495 45.7554C59.3396 45.8624 59.3211 45.9778 59.2939 46.1015C59.2718 46.2331 59.2536 46.3315 59.2393 46.3966L58.4963 46.2365L59.0395 43.7655L59.6749 43.9024C59.6248 44.1303 59.673 44.2839 59.8194 44.3632C59.9709 44.4504 60.1769 44.5221 60.4376 44.5783L61.9333 44.9006C62.3583 44.9854 62.6673 44.977 62.8603 44.8754C63.0519 44.7803 63.1752 44.6228 63.2304 44.4028C63.2741 44.2349 63.2799 44.069 63.2476 43.9052C63.214 43.748 63.1644 43.6009 63.0989 43.464C62.8253 43.4664 62.5093 43.429 62.1509 43.3517L60.841 43.0694C60.7497 43.0497 60.6201 43.0184 60.4521 42.9754C60.2906 42.9337 60.1364 42.8903 59.9893 42.8449C59.9795 42.9519 59.9609 43.0673 59.9337 43.191C59.9131 43.3161 59.8948 43.4145 59.8791 43.4861L59.1362 43.326L59.6901 40.8061L60.3255 40.9431C60.2711 41.1905 60.3164 41.3571 60.4614 41.4429C60.6114 41.5366 60.8168 41.6116 61.0774 41.6678L62.6046 41.9867C63.0282 42.078 63.3318 42.0786 63.5154 41.9886C63.699 41.8986 63.8184 41.7437 63.8736 41.5237C63.9093 41.3609 63.9071 41.2002 63.8669 41.0415C63.8253 40.8893 63.7678 40.7473 63.6944 40.6155L61.4851 40.1394C61.3939 40.1197 61.2642 40.0884 61.0962 40.0453C60.9347 40.0037 60.7805 39.9602 60.6334 39.9149C60.6236 40.0219 60.6065 40.1307 60.5821 40.2414C60.5643 40.3535 60.5483 40.4421 60.5339 40.5072L59.791 40.3471L60.3428 37.837Z" fill="#F7F7F7"/>
<path id="o_4" d="M57.0584 46.7172C57.2794 46.2911 57.571 45.9533 57.9333 45.7037C58.2955 45.4542 58.6982 45.3149 59.1413 45.286C59.5872 45.266 60.042 45.3738 60.5055 45.6095C60.9987 45.8604 61.3773 46.1801 61.6414 46.5687C61.9083 46.9662 62.0553 47.385 62.0824 47.825C62.1123 48.274 62.0229 48.6998 61.8142 49.1022C61.5932 49.5283 61.3031 49.8631 60.9439 50.1068C60.5847 50.3504 60.1822 50.4822 59.7362 50.5022C59.2962 50.5253 58.8385 50.4159 58.3631 50.1742C57.8639 49.9203 57.4793 49.605 57.2091 49.2283C56.9389 48.8515 56.7887 48.4461 56.7586 48.0119C56.7344 47.5808 56.8343 47.1492 57.0584 46.7172ZM57.6728 47.0746C57.556 47.3143 57.5471 47.5342 57.6461 47.7341C57.7421 47.94 57.8997 48.1285 58.1187 48.2998C58.3378 48.471 58.5721 48.6201 58.8217 48.747C59.0416 48.8589 59.2736 48.9544 59.5179 49.0338C59.759 49.119 59.9901 49.173 60.2112 49.1956C60.4322 49.2183 60.6314 49.1962 60.8088 49.1294C60.9831 49.0684 61.1133 48.9477 61.1995 48.7671C61.3132 48.5333 61.3252 48.3075 61.2354 48.0898C61.1424 47.878 60.9895 47.6806 60.7766 47.4975C60.5665 47.3234 60.3307 47.1698 60.0693 47.0368C59.7662 46.8827 59.4522 46.7642 59.1273 46.6812C58.8023 46.5982 58.508 46.5794 58.2441 46.6247C57.9832 46.679 57.7927 46.8289 57.6728 47.0746Z" fill="#F7F7F7"/>
<path id="r_3" d="M55.854 49.899C55.679 50.109 55.6343 50.2877 55.7198 50.435C55.8105 50.5866 55.9591 50.7467 56.1656 50.9154L57.4667 51.9782C57.5596 52.0541 57.6607 52.141 57.7701 52.2389C57.8846 52.341 57.9943 52.4436 58.0994 52.5466C58.1625 52.4604 58.2384 52.3589 58.3271 52.242C58.4167 52.1344 58.4824 52.0504 58.5242 51.9898L59.1128 52.4706L58.8568 52.7779C58.6903 52.9777 58.5647 53.1806 58.4797 53.3867C58.3906 53.5979 58.3504 53.7502 58.3594 53.8436L58.0458 54.22C57.9856 54.1881 57.8811 54.1157 57.7323 54.0027C57.5886 53.8939 57.4625 53.7953 57.3541 53.7067C57.4416 54.1225 57.4648 54.4643 57.4239 54.7321C57.383 54.9999 57.2857 55.2261 57.1321 55.4104C56.9827 55.5897 56.8009 55.7038 56.5867 55.7526C56.3777 55.8056 56.1596 55.7394 55.9324 55.5538C55.855 55.4905 55.7873 55.4051 55.7294 55.2976C55.6766 55.1942 55.6539 55.081 55.6611 54.9577C55.6683 54.8345 55.7274 54.7063 55.8383 54.5732C55.9237 54.4707 56.0421 54.391 56.1937 54.3341C56.3453 54.2771 56.5152 54.3127 56.7036 54.4407C56.7889 54.3382 56.8304 54.2 56.828 54.0258C56.8307 53.8559 56.8068 53.6815 56.7564 53.5025C56.7068 53.3329 56.6457 53.1927 56.5732 53.0818L55.3109 52.0506C55.2386 51.9916 55.1374 51.9047 55.0075 51.7899C54.8827 51.6793 54.7652 51.5704 54.6549 51.4632C54.597 51.5536 54.5275 51.6474 54.4464 51.7448C54.3662 51.8514 54.3048 51.9304 54.2621 51.9816L53.6735 51.5008L55.3506 49.4878L55.854 49.899Z" fill="#F7F7F7"/>
<path id="e_2" d="M50.09 54.3223C50.4715 54.0201 50.8756 53.8361 51.3023 53.7702C51.7333 53.7095 52.1533 53.768 52.5625 53.9457C52.9759 54.1285 53.3522 54.4299 53.6916 54.85C53.9848 55.213 54.1782 55.6168 54.2718 56.0615C54.3654 56.5061 54.3433 56.9403 54.2057 57.364C54.067 57.797 53.8017 58.1687 53.4098 58.4791C53.1903 58.653 52.9509 58.7916 52.6916 58.8949C52.4364 59.0035 52.1666 59.0514 51.8821 59.0386C51.5923 59.03 51.2972 58.9406 50.9969 58.7703C50.6912 58.6042 50.3902 58.3324 50.0938 57.9548L52.6272 55.8716C52.401 55.5916 52.1638 55.367 51.9158 55.1978C51.6624 55.0327 51.4024 54.9496 51.1357 54.9482C50.8689 54.9469 50.5997 55.0539 50.3279 55.2691C50.1712 55.3933 50.0192 55.5817 49.8719 55.8344C49.7237 56.0964 49.6487 56.4067 49.647 56.7653L49.0303 56.718C49.0047 56.3045 49.0425 55.9429 49.1437 55.6331C49.249 55.3286 49.39 55.0681 49.5665 54.8517C49.7379 54.6395 49.9124 54.463 50.09 54.3223ZM53.0201 56.4534L51.5778 57.5958C51.8427 57.9132 52.0877 58.0891 52.3126 58.1236C52.5417 58.1632 52.7478 58.1106 52.9307 57.9657C53.1606 57.7835 53.2739 57.5578 53.2704 57.2883C53.2712 57.0241 53.1878 56.7458 53.0201 56.4534Z" fill="#F7F7F7"/>
</g>
<path id="straightArrow" d="M34.8204 21.3979V50.3428M34.8204 50.3428L30.8423 43.2575M34.8204 50.3428L38.9896 43.2575" stroke="#F7F7F7" stroke-width="2" stroke-linecap="round"/>
</g>
</svg>
