<svg width="60" height="60" viewBox="0 0 60 60" fill="none" xmlns="http://www.w3.org/2000/svg">
<rect width="60" height="60" fill="#0077B5"/>
<path fill-rule="evenodd" clip-rule="evenodd" d="M21.6489 18.5284C21.6489 20.4898 20.1726 22.0592 17.802 22.0592H17.7585C15.4761 22.0592 14.0005 20.4898 14.0005 18.5284C14.0005 16.5255 15.521 15 17.8468 15C20.1726 15 21.6048 16.5255 21.6489 18.5284ZM21.2014 24.8474V45.2746H14.4027V24.8474H21.2014ZM45.7193 45.2745L45.7196 33.5622C45.7196 27.2879 42.3656 24.3677 37.8918 24.3677C34.2821 24.3677 32.666 26.3503 31.7637 27.7412V24.8479H24.9642C25.0538 26.7647 24.9642 45.275 24.9642 45.275H31.7637V33.8668C31.7637 33.2563 31.8078 32.6473 31.9876 32.2102C32.479 30.9906 33.5977 29.7278 35.476 29.7278C37.9371 29.7278 38.9209 31.6009 38.9209 34.346V45.2745H45.7193Z" fill="white"/>
</svg>
