<svg width="32" height="60" viewBox="0 0 32 60" fill="none" xmlns="http://www.w3.org/2000/svg">
<g id="logo">
<path class="to-color" id="kLetter" d="M0 7.48599V8.50008L0.570435 8.61979C1.66261 8.85923 2.42783 9.28177 2.85217 9.87331L3.06087 10.162V30.1409V50.1197L2.85913 50.3803C2.31652 51.0705 1.62087 51.4226 0.194783 51.7254L0 51.7606V52.7465V53.7324H3.33913H6.67826V43.8522L6.68522 33.9789L11.2487 30.6691C13.753 28.8451 15.833 27.3663 15.8609 27.3733C15.8887 27.3803 18.0313 28.9296 20.6191 30.8099L25.3217 34.2324V43.986V53.7324H28.6609H32V52.7465V51.7606L31.8122 51.7254C30.3791 51.4226 29.6835 51.0705 29.1409 50.3803L28.9391 50.1197V41.2254V32.331L23.9652 28.7184C21.2313 26.7325 19.0052 25.0846 19.0122 25.0564C19.0191 25.0353 21.2591 23.3874 23.9861 21.4085L28.9391 17.8029V13.9789V10.162L29.1478 9.87331C29.5722 9.28177 30.3374 8.85923 31.4296 8.61979L32 8.50008V7.48599V6.47895H28.6609H25.3217V11.1902V15.9015L16.0209 22.6691L6.71304 29.4367L6.69217 17.9578L6.67826 6.47895H3.33913H0V7.48599Z" fill="#F7F7F7"/>
<g id="iLetter">
<path class="to-color" id="Vector" d="M7.44385 1.01414V2.02822L7.81254 2.07048C8.69602 2.18315 9.88559 2.76766 10.2612 3.2747L10.4352 3.50005L10.4491 12.7043L10.4699 21.9155L12.2578 20.6198L14.0456 19.331V9.66202L14.0525 5.50821e-05H10.7482H7.44385V1.01414Z" fill="#F7F7F7"/>
<path class="to-color" id="Vector_2" d="M18.0176 8.21108C18.0176 14.7745 18.0384 16.4153 18.108 16.359C18.1498 16.3238 18.9637 15.7322 19.9167 15.0421L21.635 13.7956V8.61953V3.44348L21.9689 3.10546C22.1567 2.92236 22.5184 2.67588 22.7689 2.54912C23.2211 2.32377 24.1602 2.04208 24.4663 2.04208H24.6263V1.02095V-0.000173228H21.3219H18.0176V8.21108Z" fill="#F7F7F7"/>
<path class="to-color"id="Vector_3" d="M12.2299 34L10.4352 35.3099V45.9366V56.5563L10.1012 56.8944C9.91341 57.0775 9.55167 57.3239 9.30124 57.4507C8.84907 57.6761 7.90993 57.9577 7.60385 57.9577H7.44385V58.9789V60H10.7482H14.0525V46.338C14.0525 38.824 14.0456 32.6761 14.0386 32.6831C14.0247 32.6831 13.2108 33.2747 12.2299 34Z" fill="#F7F7F7"/>
<path class="to-color" id="Vector_4" d="M18.0176 46.4718V60H21.3219H24.6263V58.9789V57.9577H24.4663C24.1602 57.9577 23.2211 57.6831 22.7758 57.4577C22.5324 57.331 22.1706 57.0775 21.9828 56.8873L21.635 56.5423V46.0352V35.5282L19.8889 34.2606C18.9289 33.5634 18.115 32.9789 18.0802 32.9719C18.0454 32.9578 18.0176 38.3028 18.0176 46.4718Z" fill="#F7F7F7"/>
</g>
</g>
</svg>
