<svg width="80" height="20" viewBox="0 0 80 20" fill="none" xmlns="http://www.w3.org/2000/svg">
<path fill-rule="evenodd" clip-rule="evenodd" d="M0.918308 2.80619C6.46043 9.71299 14.2533 13.5949 22.7492 15.3472C35.5797 17.993 50.0163 15.7845 60.8437 11.694C67.6489 9.12402 71.4725 4.88057 77.5839 0.774103C77.8315 0.60792 78.1545 0.693901 78.3055 0.966499C78.4564 1.23764 78.3783 1.59478 78.1307 1.7595C71.9478 5.91408 68.0686 10.1867 61.1839 12.7873C50.2056 16.9346 35.5665 19.165 22.5559 16.4827C13.8256 14.6824 5.82758 10.6693 0.13188 3.57151C-0.0600953 3.33244 -0.0402565 2.96802 0.176874 2.75665C0.394005 2.54528 0.726333 2.56712 0.918308 2.80619Z" fill="#F7F7F7"/>
<path fill-rule="evenodd" clip-rule="evenodd" d="M79.6093 1.14158C79.5881 1.15762 79.4451 1.26108 79.3339 1.36167C78.8705 1.77567 78.1198 2.5818 77.2275 3.66054C74.238 7.28303 69.6703 13.9668 69.2122 19.4757C69.1857 19.7934 68.9302 20.0267 68.6415 19.9975C68.3529 19.9684 68.1398 19.6885 68.1662 19.3707C68.6429 13.6388 73.3403 6.65182 76.4516 2.88355C76.8687 2.37916 77.2566 1.93023 77.6021 1.55122C76.1418 1.87775 74.6921 2.24506 73.2423 2.63136C69.0692 3.74508 65.2495 3.75673 61.0102 2.80774C60.7269 2.74506 60.5428 2.43894 60.6011 2.12698C60.658 1.81503 60.9361 1.61242 61.2194 1.67656C65.2998 2.58911 68.9778 2.58038 72.9947 1.50894C74.8893 1.00456 76.7866 0.532224 78.7024 0.137174C78.893 0.0978153 79.3895 0.00161256 79.461 0.000154819C79.8688 -0.00859166 79.9694 0.355845 79.9879 0.437479C79.9972 0.476838 80.0859 0.972483 79.6093 1.14158ZM79.2518 0.0555321C79.265 0.0511588 79.2783 0.0453136 79.2929 0.0409404C79.2809 0.0438559 79.2677 0.0497011 79.2518 0.0555321Z" fill="#F7F7F7"/>
</svg>
