<svg width="32" height="32" viewBox="0 0 32 32" fill="none" xmlns="http://www.w3.org/2000/svg">
<path d="M15.9998 6.66662C17.8407 6.66662 19.3331 5.17425 19.3331 3.33331C19.3331 1.49237 17.8407 0 15.9998 0C14.1589 0 12.6665 1.49237 12.6665 3.33331C12.6665 5.17425 14.1589 6.66662 15.9998 6.66662Z" fill="#F7F7F7"/>
<path d="M15.9998 19.3331C17.8407 19.3331 19.3331 17.8407 19.3331 15.9998C19.3331 14.1589 17.8407 12.6665 15.9998 12.6665C14.1589 12.6665 12.6665 14.1589 12.6665 15.9998C12.6665 17.8407 14.1589 19.3331 15.9998 19.3331Z" fill="#F7F7F7"/>
<path d="M15.9998 32.0001C17.8407 32.0001 19.3331 30.5077 19.3331 28.6668C19.3331 26.8259 17.8407 25.3335 15.9998 25.3335C14.1589 25.3335 12.6665 26.8259 12.6665 28.6668C12.6665 30.5077 14.1589 32.0001 15.9998 32.0001Z" fill="#F7F7F7"/>
</svg>
