<svg width="32" height="32" viewBox="0 0 32 32" fill="none" xmlns="http://www.w3.org/2000/svg">
<path d="M27.8924 7.55141L27.8945 6.46952L27.2559 6.14693C27.0622 6.04982 22.4492 3.75635 16.0759 3.75635H15.7878C9.39 3.75635 4.80006 6.05049 4.60982 6.14625L3.96916 6.46885L3.9712 7.52899C3.91956 10.2462 4.2579 17.1484 8.49796 22.5319C11.9588 26.9294 15.2755 27.9726 15.6417 28.0765L15.9604 28.1675L16.2776 28.0785C16.4203 28.0384 19.8091 27.0489 23.3643 22.5319C27.6085 17.147 27.9454 10.268 27.8924 7.55141" fill="#FEFEFE"/>
<path d="M27.2133 7.55669C27.2153 7.31696 27.2153 7.18181 27.2153 7.18181V6.88774L26.949 6.75327C26.7622 6.65887 22.2884 4.43604 16.0761 4.43604H15.788C9.57978 4.43604 5.10125 6.65887 4.9151 6.75327L4.6481 6.88773V7.18181C4.6481 7.18181 4.6481 7.31696 4.65082 7.54244C4.60054 10.1857 4.92461 16.8976 9.03151 22.1121C12.3625 26.3445 15.4837 27.3259 15.8281 27.4237L15.9619 27.4624L16.0944 27.4244C16.2296 27.387 19.4092 26.4586 22.8312 22.1121C26.9422 16.8956 27.2656 10.1925 27.2133 7.55669" fill="#2D2925"/>
<path d="M15.9606 26.7446C15.7079 26.672 12.7362 25.7585 9.5438 21.7006C5.33567 16.3592 5.31733 9.36468 5.34926 7.71708C5.34723 7.48549 5.34723 7.35509 5.34723 7.35509C5.34723 7.35509 5.3513 7.35306 5.36014 7.3483V7.33472L5.45389 7.29058C5.67741 7.18871 6.1754 6.9707 6.89691 6.71195C8.68981 6.05589 11.9013 5.13497 15.788 5.13497H16.0714C19.9513 5.13497 23.154 6.05113 24.9496 6.70651C25.6793 6.96798 26.1834 7.18802 26.4082 7.29057L26.502 7.33335V7.3483C26.5095 7.35305 26.5149 7.35509 26.5149 7.35509C26.5149 7.35509 26.5149 7.48548 26.5122 7.71707C26.5448 9.36468 26.5278 16.3592 22.3183 21.7006C19.1177 25.7667 16.2038 26.6774 15.9606 26.7446L15.9606 26.7446ZM22.5357 21.8806C26.5577 16.7748 26.8743 10.1987 26.8213 7.60909C26.8233 7.36799 26.8233 7.23488 26.8233 7.2342V7.13641L26.7357 7.09226C26.553 6.99922 22.1723 4.82324 16.0741 4.82324H15.7867C9.69326 4.82324 5.30985 6.99922 5.12506 7.09226L5.03606 7.13641V7.2342C5.03606 7.23488 5.03606 7.36799 5.03945 7.59415C4.98986 10.1932 5.30782 16.7768 9.32639 21.8806C12.5745 26.0078 15.5849 26.9558 15.9171 27.0496L15.962 27.0618L16.0055 27.0496C16.1345 27.0143 19.1965 26.1191 22.5357 21.8806" fill="#FEFEFE"/>
<path d="M23.7092 10.6564C22.2146 9.11068 22.042 8.86007 22.042 8.22439C22.042 7.59482 22.3171 7.51061 22.5875 7.51061C22.7275 7.51061 22.9007 7.53914 23.0998 7.59618C24.1814 7.90723 24.1814 8.49741 24.1814 8.93478V9.5623C24.1814 9.61188 24.214 9.65671 24.2609 9.67301C24.5218 9.76197 24.6529 9.80816 24.9267 9.90935C24.962 9.92225 25.0028 9.9175 25.034 9.89644C25.066 9.87335 25.0843 9.83804 25.0843 9.79932V9.27503C25.0843 8.61286 25.0843 7.50382 23.1501 6.94896C21.7974 6.56117 21.1072 6.97613 21.1072 8.14969C21.1072 9.12426 21.7043 9.70764 22.6949 10.6741L22.8946 10.8697C24.0693 12.0208 24.3071 12.4004 24.3071 13.1305C24.3071 13.392 24.2677 13.5754 24.1868 13.6901C24.1033 13.807 23.9708 13.8606 23.769 13.8606C23.6121 13.8606 23.4137 13.826 23.1793 13.7587C22.6643 13.6107 22.2907 13.409 22.0692 13.1584C21.7988 12.8541 21.7988 12.596 21.7988 12.0813V11.5243C21.7988 11.4979 21.7899 11.4723 21.7735 11.4516C21.7571 11.4309 21.7341 11.4163 21.7084 11.4103C21.419 11.3451 21.2804 11.3165 21.0032 11.2615C20.9692 11.2554 20.9332 11.2642 20.9061 11.286C20.8789 11.3084 20.8639 11.3417 20.8639 11.3763V12.3624C20.8639 13.2894 21.6215 13.9958 23.0577 14.4053C23.4626 14.5214 23.8125 14.5791 24.0985 14.5791C25.2229 14.5791 25.2229 13.6738 25.2229 13.2874C25.2229 12.268 24.7038 11.684 23.7092 10.6564V10.6564ZM20.6988 6.46405C19.2708 6.20258 17.8114 6.06132 16.3616 6.04502C16.3297 6.04366 16.2998 6.05657 16.2781 6.0783C16.2556 6.10139 16.2434 6.13059 16.2434 6.16183V6.61007C16.2434 6.67391 16.2944 6.7262 16.3589 6.72756C17.0383 6.73503 17.3882 6.74997 18.0316 6.8009V13.2847C18.0316 13.3458 18.0771 13.3968 18.1382 13.4022C18.4222 13.4246 18.5601 13.4382 18.8462 13.4687C18.8495 13.4701 18.855 13.4708 18.8584 13.4708C18.8876 13.4708 18.9148 13.4599 18.9365 13.4402C18.961 13.4178 18.9759 13.3866 18.9759 13.3526V6.89191C19.6213 6.96458 19.9753 7.01756 20.656 7.14252C20.6907 7.14931 20.7267 7.13913 20.7525 7.11671C20.7783 7.09498 20.794 7.0617 20.794 7.02706V6.57951C20.794 6.52246 20.7546 6.47424 20.6988 6.46405ZM15.6456 6.05657C14.4308 6.07626 13.2052 6.18425 12.0034 6.37712C11.9463 6.38595 11.9048 6.43553 11.9048 6.49258V13.5224C11.9048 13.557 11.9205 13.5896 11.9463 13.612C11.968 13.6297 11.9952 13.6392 12.0224 13.6392C12.0278 13.6392 12.0346 13.6392 12.0401 13.6385C13.2256 13.4484 14.4349 13.3411 15.6354 13.3207C15.6986 13.32 15.7502 13.2677 15.7502 13.2039V12.7658C15.7502 12.7346 15.738 12.7033 15.7149 12.6823C15.6931 12.6606 15.6598 12.6483 15.6306 12.649C14.5069 12.668 13.9063 12.7101 12.8322 12.85V10.0683C13.7236 9.95281 14.1951 9.9141 15.1279 9.88014C15.1904 9.87743 15.2413 9.82514 15.2413 9.76265V9.33411C15.2413 9.30219 15.2284 9.27163 15.2046 9.2499C15.1822 9.22817 15.1516 9.21527 15.119 9.2173C14.2066 9.25126 13.7147 9.29065 12.8472 9.40271V6.93063C13.9403 6.78733 14.5117 6.74725 15.6496 6.72892C15.7135 6.72824 15.7645 6.67594 15.7645 6.6121V6.17406C15.7645 6.14214 15.7515 6.11158 15.7298 6.09052C15.7074 6.06811 15.6761 6.05589 15.6456 6.05657V6.05657ZM10.9904 6.56049C10.7098 6.61686 10.5746 6.64606 10.3001 6.70922C10.2465 6.72145 10.2091 6.76967 10.2098 6.82536L10.2662 11.9386C10.2662 12.2782 10.275 12.5899 10.2886 12.8691C9.59765 11.1026 8.87614 9.27367 8.14375 7.42233C8.11998 7.3646 8.05612 7.33404 7.99633 7.35441C7.5887 7.48956 7.391 7.55951 6.98948 7.71096C6.94464 7.72726 6.91406 7.77208 6.91406 7.81962V14.8501C6.91406 14.8888 6.9324 14.9248 6.96434 14.9466C6.98336 14.9601 7.00714 14.9676 7.0316 14.9676C7.04451 14.9676 7.05945 14.9649 7.07237 14.9595C7.32034 14.8657 7.44535 14.8209 7.70963 14.7285C7.75651 14.7123 7.78844 14.6681 7.78776 14.6185C7.77825 12.9546 7.76873 11.2914 7.76058 9.62954C7.76058 9.19149 7.75514 8.947 7.74088 8.63731C8.46239 10.4724 9.16488 12.2687 9.83135 13.9876C9.85377 14.0426 9.91152 14.0739 9.96927 14.0582C10.3973 13.953 10.6072 13.9061 11.0366 13.8199C11.0903 13.8083 11.1303 13.7608 11.1303 13.7051V6.67527C11.1303 6.63995 11.114 6.60667 11.0875 6.58426C11.0597 6.56253 11.0237 6.5537 10.9904 6.56049V6.56049ZM19.8724 22.4733C19.8045 22.5202 19.7372 22.5697 19.6618 22.6213C19.4648 22.7585 19.2732 22.8747 19.068 22.9969C18.9736 23.0553 18.8751 23.1131 18.7739 23.1762C18.0741 23.6095 17.2357 24.089 16.3369 24.364C16.0767 24.4449 15.8369 24.5033 15.6038 24.5406C15.3871 24.5719 15.1847 24.5882 14.9829 24.5882H14.9442C14.6785 24.5861 14.421 24.561 14.1737 24.5155C15.114 24.8489 16.1582 24.9209 17.1984 24.6629C17.7935 24.5155 18.3404 24.271 18.8235 23.9511C19.2875 23.5885 19.6625 23.073 19.903 22.4509C19.8928 22.4584 19.8833 22.4658 19.8724 22.4733V22.4733ZM15.112 24.3253C15.7092 24.2547 16.2037 24.1039 16.767 23.8214C16.8492 23.7813 16.93 23.7392 17.0102 23.6971C17.0788 23.6618 17.1467 23.6258 17.2154 23.5912C17.6936 23.3412 18.2066 23.0696 18.8269 22.7368C19.0449 22.62 19.263 22.495 19.4743 22.3748L19.7223 22.237C19.8181 22.1853 19.9078 22.1371 19.9988 22.0821C20.007 22.0767 20.0178 22.0699 20.0287 22.0631C20.1082 21.7731 20.1598 21.458 20.1836 21.1252C19.5742 21.4301 18.6584 21.6977 17.3152 21.9673C15.595 22.3089 13.9122 22.1561 12.4094 21.5225C11.3998 21.0973 10.9229 20.5085 10.7224 20.1839C10.7483 20.4148 10.7883 20.6457 10.8468 20.8773C11.1783 22.1867 11.982 23.2564 13.0351 23.9491L13.0303 23.9402L13.1784 24.0272C13.298 24.0985 13.4468 24.1603 13.6214 24.2105C13.9495 24.3083 14.2722 24.3566 14.6106 24.3566C14.7696 24.3566 14.9353 24.3457 15.112 24.3253V24.3253ZM20.473 22.1215C20.4689 22.1004 20.4642 22.0998 20.4533 22.0998C20.437 22.0998 20.401 22.1072 20.3276 22.1541C20.3147 22.1643 20.3005 22.1731 20.2855 22.1833C20.2733 22.1915 20.2604 22.1996 20.2495 22.2078C20.1191 22.5534 19.9458 22.8801 19.7474 23.1715C20.0355 22.8658 20.2841 22.5263 20.4886 22.1629H20.4818L20.473 22.1215V22.1215ZM20.6734 20.8237C20.6551 20.8366 20.6381 20.8495 20.6198 20.8631C20.5912 20.8841 20.562 20.9058 20.5308 20.9269C20.5063 21.259 20.4445 21.5877 20.3507 21.9055C20.5151 21.8478 20.5715 21.9144 20.5885 21.9524C20.5899 21.9578 20.5912 21.9639 20.5926 21.9694C20.8637 21.4376 21.0423 20.8597 21.1164 20.2579C21.0328 20.459 20.897 20.6681 20.6734 20.8237V20.8237ZM20.5471 20.5391C20.56 20.5296 20.5729 20.5201 20.5844 20.5119C21.0247 20.2063 21.1381 19.7099 21.1538 19.6284C21.1538 19.212 21.1028 18.7896 20.9948 18.3679C20.9907 18.3509 20.9866 18.3346 20.9812 18.3176C20.9411 18.7047 20.7502 19.0633 20.4132 19.3839C20.5029 19.7703 20.5471 20.1581 20.5471 20.5391ZM12.7076 21.1721C13.9482 21.5809 14.6371 21.712 15.5427 21.712C15.8722 21.712 16.2472 21.6923 16.7248 21.6529C18.0476 21.5388 19.4424 21.1021 20.1917 20.7388C20.1904 20.3747 20.1571 20.006 20.0926 19.6392C19.8704 19.7737 19.619 19.8369 19.3092 19.8369C18.9981 19.8369 18.6217 19.7778 18.0109 19.6311C17.2894 19.4599 16.2567 18.8453 15.3464 18.304C14.847 18.0059 14.3755 17.7247 13.9849 17.5325C12.4984 16.7977 11.6546 16.9009 11.4297 16.9491C10.8991 17.8314 10.6321 18.8691 10.7007 19.9381C10.8006 20.0807 11.3094 20.7116 12.7076 21.1721L12.7076 21.1721ZM13.4658 16.9199C13.9713 17.1312 14.6344 17.4863 15.3348 17.8633C16.4402 18.4568 17.5836 19.0715 18.3574 19.2637C19.047 19.4341 19.6129 19.4192 20.0104 19.2195C20.009 19.212 20.0076 19.2039 20.0056 19.1971C20.0008 19.1679 19.9954 19.1407 19.9866 19.1122C19.651 17.7037 17.8873 14.6197 14.8327 14.6197C14.7043 14.6197 14.5725 14.6265 14.4421 14.638C13.2613 14.9803 12.2891 15.705 11.6308 16.6429C11.7422 16.6075 11.8883 16.5756 12.0867 16.5756C12.4596 16.5756 12.9237 16.6911 13.4658 16.9199V16.9199ZM20.312 18.9981C20.3922 18.9153 20.4547 18.8243 20.5029 18.7292C20.8718 18.0202 20.541 17.2256 20.4024 16.9491C19.3751 15.2554 17.4362 14.2577 15.4143 14.4519C17.5075 14.5647 19.5355 16.4371 20.312 18.9981Z" fill="#FEFEFE"/>
<path d="M17.9932 20.685C17.9932 20.304 17.9932 19.7376 17.5421 19.2982C17.5925 19.2101 17.6335 19.117 17.6644 19.0204C17.7398 18.7936 17.7459 18.545 17.7418 18.3834L17.7398 17.3348V17.3185C17.7275 16.9287 17.6684 16.5164 17.3498 16.1585C17.0638 15.8366 16.6337 15.6675 16.1052 15.6675L14.6812 15.6709C14.5263 15.6709 14.372 15.7313 14.2586 15.8447C14.1492 15.9554 14.084 16.1062 14.084 16.2658L14.0976 23.1523C14.0976 23.3567 14.2022 23.5469 14.3775 23.6522C14.4739 23.7106 14.584 23.7432 14.7002 23.7432L16.148 23.7405C16.6711 23.7391 17.1086 23.5904 17.4504 23.2963L17.4551 23.2936C17.9327 22.865 17.9837 22.3604 17.9959 21.8776V21.8721L17.9932 20.685V20.685Z" fill="#FEFEFE"/>
<path d="M16.0757 18.9831C15.9534 19.0177 15.8943 19.0279 15.6287 19.0374L15.3644 19.0381C15.3189 19.0395 15.3066 19.0177 15.3066 18.9831C15.3066 18.9621 15.3039 16.7698 15.3039 16.7698C15.3039 16.7345 15.3162 16.7134 15.3535 16.7093H15.7958C15.9915 16.7155 16.2089 16.7216 16.3488 16.8078C16.414 16.8472 16.4528 16.8947 16.4766 16.9579C16.4956 17.0238 16.5146 17.1379 16.5255 17.3328L16.5282 18.1899C16.5255 18.2041 16.5255 18.2265 16.5255 18.2551C16.5187 18.4765 16.5146 18.852 16.0757 18.9831V18.9831ZM16.5757 22.5588C16.4691 22.6342 16.34 22.6783 16.0085 22.6906C16.0085 22.6906 15.4398 22.6919 15.3957 22.6919C15.3447 22.6919 15.3243 22.6607 15.3243 22.6118C15.3243 22.1927 15.3189 19.8837 15.3189 19.864C15.3189 19.8422 15.3243 19.813 15.3685 19.813C15.4113 19.813 15.6545 19.8103 15.6545 19.8103C15.9561 19.8252 16.2714 19.8483 16.4766 19.978C16.5948 20.05 16.6749 20.1506 16.7259 20.2857C16.7714 20.4243 16.7802 20.5771 16.7802 20.7197L16.7823 21.7384C16.7823 22.2029 16.7531 22.4216 16.5757 22.5588V22.5588ZM17.6247 20.7319C17.6247 20.3462 17.6247 19.8755 17.2239 19.5434C17.1403 19.4734 17.0398 19.413 16.9209 19.3648C17.1063 19.2398 17.2334 19.068 17.3034 18.852C17.3679 18.6585 17.3645 18.4194 17.3625 18.3257L17.3598 17.2323C17.3489 16.9294 17.3163 16.5844 17.071 16.3046C16.8543 16.0642 16.5255 15.9405 16.1083 15.9419L14.6239 15.946C14.5797 15.946 14.5383 15.963 14.5043 15.9962C14.471 16.0275 14.4561 16.0696 14.4561 16.1131L14.469 23.2991C14.469 23.3561 14.4982 23.4132 14.5485 23.4424C14.5769 23.4597 14.6096 23.4689 14.6429 23.4689L16.1538 23.4648C16.3135 23.4648 16.8061 23.4634 17.2164 23.1137C17.5799 22.785 17.6166 22.3972 17.6274 21.9611L17.6247 20.7319V20.7319Z" fill="#2D2925"/>
</svg>
