<svg width="60" height="60" viewBox="0 0 60 60" fill="none" xmlns="http://www.w3.org/2000/svg">
<rect width="60" height="60" fill="black"/>
<path d="M0 32.0001V60.0001H60V30.5C60 30.5 58 33.5 54 37C46.7395 42.8948 31.0252 34.4562 28 32C14 22.0002 2 31 0 32.0001Z" fill="#32C267"/>
<path d="M23.5625 22.0781V31.0469H28.0469C28.6615 31.0469 29.2396 30.9323 29.7812 30.7031C30.3229 30.4635 30.7969 30.1406 31.2031 29.7344C31.6094 29.3281 31.9271 28.8542 32.1562 28.3125C32.3958 27.7604 32.5156 27.1771 32.5156 26.5625C32.5156 25.9479 32.3958 25.3698 32.1562 24.8281C31.9271 24.276 31.6094 23.7969 31.2031 23.3906C30.7969 22.9844 30.3229 22.6667 29.7812 22.4375C29.2396 22.1979 28.6615 22.0781 28.0469 22.0781H23.5625ZM23.5625 40H19.0781V17.5938H28.0469C28.8698 17.5938 29.6615 17.7031 30.4219 17.9219C31.1823 18.1302 31.8906 18.4323 32.5469 18.8281C33.2135 19.2135 33.8177 19.6823 34.3594 20.2344C34.9115 20.776 35.3802 21.3802 35.7656 22.0469C36.1615 22.7135 36.4635 23.4271 36.6719 24.1875C36.8906 24.9479 37 25.7396 37 26.5625C37 27.3333 36.901 28.0833 36.7031 28.8125C36.5156 29.5417 36.2396 30.2344 35.875 30.8906C35.5208 31.5469 35.0833 32.151 34.5625 32.7031C34.0417 33.2552 33.4583 33.7344 32.8125 34.1406L35.2969 40H30.5312L28.5781 35.4844L23.5625 35.5156V40ZM44.75 38.4062C44.75 38.7812 44.6823 39.1354 44.5469 39.4688C44.4115 39.7917 44.224 40.0729 43.9844 40.3125C43.7448 40.5521 43.4635 40.7396 43.1406 40.875C42.8177 41.0208 42.4688 41.0938 42.0938 41.0938C41.7292 41.0938 41.3802 41.0208 41.0469 40.875C40.724 40.7396 40.4375 40.5521 40.1875 40.3125C39.9479 40.0729 39.7552 39.7917 39.6094 39.4688C39.474 39.1354 39.4062 38.7812 39.4062 38.4062C39.4062 38.0417 39.474 37.6979 39.6094 37.375C39.7552 37.0521 39.9479 36.7708 40.1875 36.5312C40.4375 36.2917 40.724 36.1042 41.0469 35.9688C41.3802 35.8229 41.7292 35.75 42.0938 35.75C42.4688 35.75 42.8177 35.8229 43.1406 35.9688C43.4635 36.1042 43.7448 36.2917 43.9844 36.5312C44.224 36.7708 44.4115 37.0521 44.5469 37.375C44.6823 37.6979 44.75 38.0417 44.75 38.4062Z" fill="white"/>
</svg>
