<svg width="80" height="20" viewBox="0 0 80 20" fill="none" xmlns="http://www.w3.org/2000/svg">
<path fill-rule="evenodd" clip-rule="evenodd" d="M0.918309 17.1938C6.46044 10.287 14.2533 6.40506 22.7492 4.65285C35.5798 2.00704 50.0163 4.21553 60.8437 8.30597C67.6489 10.876 71.4725 15.1194 77.584 19.2259C77.8315 19.3921 78.1546 19.3061 78.3055 19.0335C78.4564 18.7624 78.3783 18.4052 78.1307 18.2405C71.9478 14.0859 68.0686 9.81328 61.184 7.21266C50.2056 3.06537 35.5665 0.835005 22.5559 3.51726C13.8257 5.31757 5.82759 9.33072 0.13188 16.4285C-0.0600953 16.6676 -0.0402565 17.032 0.176874 17.2433C0.394005 17.4547 0.726333 17.4329 0.918309 17.1938Z" fill="#F7F7F7"/>
<path fill-rule="evenodd" clip-rule="evenodd" d="M79.6088 18.8584C79.5876 18.8424 79.4446 18.7389 79.3334 18.6383C78.87 18.2243 78.1194 17.4182 77.227 16.3395C74.2375 12.717 69.6698 6.03317 69.2117 0.524344C69.1852 0.206556 68.9297 -0.0266951 68.6411 0.00245984C68.3524 0.0316148 68.1393 0.311545 68.1657 0.629333C68.6424 6.36119 73.3398 13.3482 76.4511 17.1165C76.8682 17.6208 77.2561 18.0698 77.6017 18.4488C76.1413 18.1222 74.6916 17.7549 73.2419 17.3686C69.0687 16.2549 65.249 16.2433 61.0097 17.1923C60.7264 17.2549 60.5424 17.5611 60.6006 17.873C60.6575 18.185 60.9356 18.3876 61.2189 18.3234C65.2994 17.4109 68.9773 17.4196 72.9943 18.4911C74.8889 18.9954 76.7861 19.4678 78.7019 19.8628C78.8925 19.9022 79.389 19.9984 79.4605 19.9998C79.8683 20.0086 79.9689 19.6442 79.9875 19.5625C79.9967 19.5232 80.0855 19.0275 79.6088 18.8584ZM79.2513 19.9445C79.2646 19.9488 79.2778 19.9547 79.2924 19.9591C79.2805 19.9561 79.2672 19.9503 79.2513 19.9445Z" fill="#F7F7F7"/>
</svg>
